Kreon-Light.ufo
<glyph name="dollar" format="1">
  <advance width="474"/>
  <unicode hex="0024"/>
  <outline>
    <contour>
      <point x="214" y="-108" type="line" name="hr00"/>
      <point x="214" y="-4" type="line"/>
      <point x="173" y="-3"/>
      <point x="92" y="12"/>
      <point x="56" y="29" type="qcurve"/>
      <point x="45" y="183" type="line" name="mh01"/>
      <point x="103" y="183" type="line" name="mh02"/>
      <point x="130" y="84" type="line"/>
      <point x="147" y="76"/>
      <point x="193" y="65"/>
      <point x="214" y="64" type="qcurve"/>
      <point x="214" y="334" type="line"/>
      <point x="181" y="349"/>
      <point x="120" y="381"/>
      <point x="73" y="423"/>
      <point x="45" y="480"/>
      <point x="45" y="520" type="qcurve" name="mh03"/>
      <point x="45" y="555"/>
      <point x="72" y="613"/>
      <point x="118" y="656"/>
      <point x="179" y="683"/>
      <point x="214" y="688" type="qcurve" name="mh04"/>
      <point x="214" y="770" type="line" name="ah01"/>
      <point x="272" y="770" type="line" name="mh05"/>
      <point x="272" y="690" type="line"/>
      <point x="307" y="688"/>
      <point x="370" y="671"/>
      <point x="402" y="659" type="qcurve" name="ah04"/>
      <point x="415" y="505" type="line"/>
      <point x="360" y="505" type="line" name="mh06"/>
      <point x="318" y="611" type="line" name="ah03"/>
      <point x="295" y="620"/>
      <point x="272" y="623" type="qcurve"/>
      <point x="272" y="386" type="line"/>
      <point x="287" y="380" type="line"/>
      <point x="332" y="359"/>
      <point x="391" y="313"/>
      <point x="424" y="265"/>
      <point x="437" y="215"/>
      <point x="437" y="189" type="qcurve" name="mh07"/>
      <point x="437" y="150"/>
      <point x="411" y="86"/>
      <point x="367" y="38"/>
      <point x="306" y="7"/>
      <point x="272" y="0" type="qcurve"/>
      <point x="272" y="-108" type="line"/>
    </contour>
    <contour>
      <point x="366" y="181" type="qcurve"/>
      <point x="366" y="219"/>
      <point x="331" y="278"/>
      <point x="280" y="304" type="qcurve"/>
      <point x="274" y="306"/>
      <point x="272" y="308" type="qcurve"/>
      <point x="272" y="70" type="line"/>
      <point x="310" y="80"/>
      <point x="366" y="134"/>
    </contour>
    <contour>
      <point x="116" y="528" type="qcurve" name="mh08"/>
      <point x="116" y="505"/>
      <point x="132" y="469"/>
      <point x="159" y="442"/>
      <point x="194" y="420"/>
      <point x="214" y="411" type="qcurve" name="mh09"/>
      <point x="214" y="622" type="line" name="ah02"/>
      <point x="195" y="619"/>
      <point x="159" y="604"/>
      <point x="132" y="581"/>
      <point x="116" y="549"/>
    </contour>
  </outline>
</glyph>
<glyph name="percent" format="1">
  <advance width="636"/>
  <unicode hex="0025"/>
  <outline>
    <contour>
      <point x="124" y="0" type="line" name="hr00"/>
      <point x="77" y="0" type="line"/>
      <point x="74" y="13" type="line"/>
      <point x="516" y="692" type="line" name="mh01"/>
      <point x="559" y="692" type="line" name="mh02"/>
      <point x="558" y="677" type="line" name="mh03"/>
    </contour>
    <contour>
      <point x="406" y="171" type="qcurve"/>
      <point x="406" y="167" type="line"/>
      <point x="406" y="150"/>
      <point x="412" y="108"/>
      <point x="427" y="72"/>
      <point x="453" y="48"/>
      <point x="473" y="48" type="qcurve"/>
      <point x="494" y="48"/>
      <point x="521" y="73"/>
      <point x="536" y="111"/>
      <point x="542" y="153"/>
      <point x="542" y="171" type="qcurve"/>
      <point x="542" y="189"/>
      <point x="536" y="231"/>
      <point x="521" y="267"/>
      <point x="494" y="292"/>
      <point x="473" y="292" type="qcurve"/>
      <point x="452" y="292"/>
      <point x="426" y="267"/>
      <point x="412" y="230"/>
      <point x="407" y="188"/>
    </contour>
    <contour>
      <point x="348" y="171" type="qcurve"/>
      <point x="348" y="177" type="line"/>
      <point x="348" y="205"/>
      <point x="362" y="265"/>
      <point x="392" y="313"/>
      <point x="439" y="344"/>
      <point x="473" y="344" type="qcurve"/>
      <point x="509" y="344"/>
      <point x="557" y="312"/>
      <point x="586" y="262"/>
      <point x="599" y="201"/>
      <point x="599" y="171" type="qcurve"/>
      <point x="599" y="142"/>
      <point x="586" y="80"/>
      <point x="556" y="29"/>
      <point x="508" y="-4"/>
      <point x="473" y="-4" type="qcurve"/>
      <point x="436" y="-4"/>
      <point x="389" y="29"/>
      <point x="361" y="81"/>
      <point x="349" y="142"/>
    </contour>
    <contour>
      <point x="96" y="518" type="qcurve"/>
      <point x="96" y="514" type="line"/>
      <point x="96" y="497"/>
      <point x="102" y="455"/>
      <point x="117" y="419"/>
      <point x="143" y="395"/>
      <point x="163" y="395" type="qcurve"/>
      <point x="184" y="395"/>
      <point x="211" y="420"/>
      <point x="226" y="457"/>
      <point x="232" y="500"/>
      <point x="232" y="518" type="qcurve"/>
      <point x="232" y="536"/>
      <point x="226" y="578"/>
      <point x="211" y="614"/>
      <point x="184" y="638"/>
      <point x="163" y="638" type="qcurve"/>
      <point x="142" y="638"/>
      <point x="116" y="613"/>
      <point x="102" y="577"/>
      <point x="97" y="535"/>
    </contour>
    <contour>
      <point x="38" y="518" type="qcurve"/>
      <point x="38" y="524" type="line"/>
      <point x="38" y="552"/>
      <point x="52" y="611"/>
      <point x="82" y="660"/>
      <point x="130" y="691"/>
      <point x="163" y="691" type="qcurve" name="mh04"/>
      <point x="198" y="691"/>
      <point x="246" y="659"/>
      <point x="276" y="609"/>
      <point x="289" y="547"/>
      <point x="289" y="518" type="qcurve"/>
      <point x="289" y="489"/>
      <point x="276" y="426"/>
      <point x="247" y="375"/>
      <point x="199" y="342"/>
      <point x="163" y="342" type="qcurve"/>
      <point x="126" y="342"/>
      <point x="79" y="376"/>
      <point x="51" y="427"/>
      <point x="39" y="489"/>
    </contour>
  </outline>
</glyph>
<glyph name="ampersand" format="1">
  <advance width="602"/>
  <unicode hex="0026"/>
  <outline>
    <contour>
      <point x="540" y="386" type="line" name="mh01"/>
      <point x="538" y="370"/>
      <point x="526" y="315"/>
      <point x="508" y="251"/>
      <point x="483" y="183"/>
      <point x="468" y="155" type="qcurve"/>
      <point x="455" y="131" type="line"/>
      <point x="481" y="102"/>
      <point x="525" y="65"/>
      <point x="536" y="65" type="qcurve" name="mh02"/>
      <point x="542" y="65"/>
      <point x="563" y="73"/>
      <point x="571" y="77" type="qcurve"/>
      <point x="572" y="70"/>
      <point x="576" y="50"/>
      <point x="581" y="30"/>
      <point x="586" y="12"/>
      <point x="588" y="6" type="qcurve"/>
      <point x="574" y="1"/>
      <point x="560" y="-1"/>
      <point x="548" y="-1" type="qcurve"/>
      <point x="518" y="-1"/>
      <point x="453" y="42"/>
      <point x="419" y="77" type="qcurve"/>
      <point x="392" y="45"/>
      <point x="307" y="-4"/>
      <point x="243" y="-4" type="qcurve"/>
      <point x="193" y="-4"/>
      <point x="116" y="26"/>
      <point x="63" y="77"/>
      <point x="35" y="143"/>
      <point x="35" y="178" type="qcurve"/>
      <point x="35" y="213"/>
      <point x="61" y="276"/>
      <point x="102" y="329"/>
      <point x="153" y="372"/>
      <point x="179" y="388" type="qcurve"/>
      <point x="172" y="401" type="line"/>
      <point x="163" y="417"/>
      <point x="142" y="449"/>
      <point x="126" y="483"/>
      <point x="115" y="522"/>
      <point x="115" y="545" type="qcurve"/>
      <point x="115" y="564"/>
      <point x="132" y="614"/>
      <point x="168" y="659"/>
      <point x="225" y="690"/>
      <point x="266" y="690" type="qcurve" name="mh03"/>
      <point x="291" y="690"/>
      <point x="339" y="672"/>
      <point x="377" y="637"/>
      <point x="400" y="588"/>
      <point x="400" y="558" type="qcurve"/>
      <point x="400" y="507"/>
      <point x="338" y="412"/>
      <point x="274" y="364" type="qcurve" name="mh04"/>
      <point x="313" y="312" type="line"/>
      <point x="325" y="292"/>
      <point x="378" y="221"/>
      <point x="410" y="183" type="qcurve"/>
      <point x="430" y="218"/>
      <point x="457" y="299"/>
      <point x="465" y="341" type="qcurve"/>
      <point x="424" y="341" type="line"/>
      <point x="411" y="398" type="line"/>
      <point x="533" y="398" type="line"/>
    </contour>
    <contour>
      <point x="238" y="309" type="qcurve" name="mh05"/>
      <point x="231" y="317"/>
      <point x="219" y="332"/>
      <point x="214" y="340" type="qcurve"/>
      <point x="194" y="325"/>
      <point x="156" y="291"/>
      <point x="126" y="251"/>
      <point x="108" y="202"/>
      <point x="108" y="173" type="qcurve"/>
      <point x="108" y="145"/>
      <point x="132" y="103"/>
      <point x="170" y="74"/>
      <point x="218" y="59"/>
      <point x="243" y="59" type="qcurve"/>
      <point x="281" y="59"/>
      <point x="347" y="96"/>
      <point x="373" y="128" type="qcurve"/>
      <point x="336" y="173"/>
      <point x="267" y="268"/>
    </contour>
    <contour>
      <point x="336" y="551" type="qcurve" name="mh06"/>
      <point x="336" y="564" name="mh07"/>
      <point x="327" y="593"/>
      <point x="309" y="617"/>
      <point x="281" y="632"/>
      <point x="262" y="632" type="qcurve" name="mh08"/>
      <point x="238" y="632"/>
      <point x="207" y="617"/>
      <point x="188" y="592"/>
      <point x="180" y="560"/>
      <point x="180" y="544" type="qcurve"/>
      <point x="180" y="513"/>
      <point x="216" y="444"/>
      <point x="242" y="407" type="qcurve" name="mh09"/>
      <point x="286" y="442"/>
      <point x="336" y="514"/>
    </contour>
  </outline>
</glyph>
<glyph name="parenleft" format="1">
  <advance width="258"/>
  <unicode hex="0028"/>
  <outline>
    <contour>
      <point x="164" y="-162" type="line" name="hr00"/>
      <point x="153" y="-139"/>
      <point x="116" y="-54"/>
      <point x="80" y="63"/>
      <point x="54" y="207"/>
      <point x="54" y="290" type="qcurve" name="mh01"/>
      <point x="54" y="372"/>
      <point x="76" y="514"/>
      <point x="109" y="629"/>
      <point x="148" y="715"/>
      <point x="164" y="742" type="qcurve"/>
      <point x="224" y="742" type="line"/>
      <point x="208" y="712"/>
      <point x="173" y="622"/>
      <point x="144" y="507"/>
      <point x="125" y="369"/>
      <point x="125" y="291" type="qcurve"/>
      <point x="125" y="211"/>
      <point x="147" y="72"/>
      <point x="178" y="-43"/>
      <point x="212" y="-132"/>
      <point x="224" y="-162" type="qcurve"/>
    </contour>
  </outline>
</glyph>
<glyph name="parenright" format="1">
  <advance width="259"/>
  <unicode hex="0029"/>
  <outline>
    <contour>
      <point x="35" y="-162" type="line" name="hr00"/>
      <point x="47" y="-132"/>
      <point x="81" y="-43"/>
      <point x="112" y="72"/>
      <point x="134" y="211"/>
      <point x="134" y="291" type="qcurve"/>
      <point x="134" y="369"/>
      <point x="115" y="507"/>
      <point x="86" y="622"/>
      <point x="51" y="712"/>
      <point x="35" y="742" type="qcurve"/>
      <point x="95" y="742" type="line"/>
      <point x="111" y="715"/>
      <point x="150" y="629"/>
      <point x="183" y="514"/>
      <point x="205" y="372"/>
      <point x="205" y="290" type="qcurve" name="mh01"/>
      <point x="205" y="207"/>
      <point x="179" y="63"/>
      <point x="143" y="-54"/>
      <point x="106" y="-139"/>
      <point x="95" y="-162" type="qcurve"/>
    </contour>
  </outline>
</glyph>
<glyph name="zero" format="1">
  <advance width="567"/>
  <unicode hex="0030"/>
  <outline>
    <contour>
      <point x="53" y="344" type="qcurve" name="hr00"/>
      <point x="53" y="409"/>
      <point x="79" y="534"/>
      <point x="135" y="632"/>
      <point x="222" y="692"/>
      <point x="284" y="692" type="qcurve" name="mh01"/>
      <point x="345" y="692"/>
      <point x="432" y="632"/>
      <point x="488" y="534"/>
      <point x="514" y="409"/>
      <point x="514" y="344" type="qcurve"/>
      <point x="514" y="279"/>
      <point x="488" y="154"/>
      <point x="432" y="56"/>
      <point x="345" y="-4"/>
      <point x="284" y="-4" type="qcurve"/>
      <point x="222" y="-4"/>
      <point x="135" y="56"/>
      <point x="79" y="154"/>
      <point x="53" y="279"/>
    </contour>
    <contour>
      <point x="122" y="344" type="qcurve"/>
      <point x="122" y="295"/>
      <point x="138" y="195"/>
      <point x="176" y="114"/>
      <point x="238" y="63"/>
      <point x="284" y="63" type="qcurve"/>
      <point x="330" y="63"/>
      <point x="391" y="114"/>
      <point x="429" y="195"/>
      <point x="445" y="295"/>
      <point x="445" y="344" type="qcurve"/>
      <point x="445" y="393"/>
      <point x="429" y="494"/>
      <point x="391" y="574"/>
      <point x="330" y="625"/>
      <point x="284" y="625" type="qcurve" name="mh02"/>
      <point x="238" y="625"/>
      <point x="176" y="574"/>
      <point x="138" y="494"/>
      <point x="122" y="393"/>
    </contour>
  </outline>
</glyph>
<glyph name="one" format="1">
  <advance width="327"/>
  <unicode hex="0031"/>
  <outline>
    <contour>
      <point x="41" y="49" type="line" name="hr00"/>
      <point x="146" y="68" type="line"/>
      <point x="146" y="601" type="line" name="mh01"/>
      <point x="43" y="581" type="line"/>
      <point x="34" y="638" type="line"/>
      <point x="192" y="692" type="line" name="mh02"/>
      <point x="214" y="682" type="line"/>
      <point x="214" y="68" type="line"/>
      <point x="308" y="55" type="line"/>
      <point x="308" y="0" type="line"/>
      <point x="48" y="0" type="line"/>
    </contour>
  </outline>
</glyph>
<glyph name="two" format="1">
  <advance width="504"/>
  <unicode hex="0032"/>
  <outline>
    <contour>
      <point x="48" y="0" type="line" name="hr00"/>
      <point x="38" y="58" type="line"/>
      <point x="60" y="83"/>
      <point x="127" y="145"/>
      <point x="200" y="216"/>
      <point x="273" y="296"/>
      <point x="332" y="381"/>
      <point x="368" y="469"/>
      <point x="368" y="513" type="qcurve"/>
      <point x="368" y="547"/>
      <point x="342" y="592"/>
      <point x="304" y="618"/>
      <point x="260" y="628"/>
      <point x="241" y="628" type="qcurve"/>
      <point x="207" y="628"/>
      <point x="164" y="614"/>
      <point x="155" y="609" type="qcurve"/>
      <point x="154" y="607" type="line"/>
      <point x="153" y="606"/>
      <point x="144" y="589"/>
      <point x="125" y="554"/>
      <point x="107" y="521" type="qcurve"/>
      <point x="34" y="566" type="line"/>
      <point x="72" y="629"/>
      <point x="175" y="692"/>
      <point x="247" y="692" type="qcurve"/>
      <point x="293" y="692"/>
      <point x="365" y="663"/>
      <point x="413" y="614"/>
      <point x="438" y="547"/>
      <point x="438" y="508" type="qcurve"/>
      <point x="438" y="469"/>
      <point x="404" y="383"/>
      <point x="350" y="297"/>
      <point x="282" y="216"/>
      <point x="217" y="146"/>
      <point x="160" y="91"/>
      <point x="143" y="75" type="qcurve"/>
      <point x="131" y="63" type="line"/>
      <point x="374" y="63" type="line"/>
      <point x="408" y="171" type="line"/>
      <point x="457" y="171" type="line"/>
      <point x="437" y="0" type="line"/>
    </contour>
  </outline>
</glyph>
<glyph name="three" format="1">
  <advance width="515"/>
  <unicode hex="0033"/>
  <outline>
    <contour>
      <point x="71" y="112" type="line" name="hr00"/>
      <point x="106" y="86"/>
      <point x="190" y="59"/>
      <point x="235" y="59" type="qcurve"/>
      <point x="265" y="59"/>
      <point x="321" y="76"/>
      <point x="364" y="108"/>
      <point x="389" y="156"/>
      <point x="389" y="188" type="qcurve"/>
      <point x="389" y="232"/>
      <point x="345" y="284"/>
      <point x="277" y="311"/>
      <point x="198" y="319"/>
      <point x="162" y="319" type="qcurve"/>
      <point x="147" y="319" type="line"/>
      <point x="147" y="382" type="line"/>
      <point x="181" y="382"/>
      <point x="260" y="388"/>
      <point x="328" y="415"/>
      <point x="372" y="470"/>
      <point x="372" y="518" type="qcurve"/>
      <point x="372" y="543"/>
      <point x="350" y="584"/>
      <point x="314" y="612"/>
      <point x="267" y="628"/>
      <point x="242" y="628" type="qcurve" name="mh01"/>
      <point x="218" y="628"/>
      <point x="174" y="619"/>
      <point x="157" y="607" type="qcurve"/>
      <point x="111" y="521" type="line"/>
      <point x="37" y="566" type="line"/>
      <point x="72" y="629"/>
      <point x="175" y="692"/>
      <point x="250" y="692" type="qcurve" name="mh02"/>
      <point x="284" y="692"/>
      <point x="354" y="669"/>
      <point x="410" y="625"/>
      <point x="445" y="561"/>
      <point x="445" y="520" type="qcurve"/>
      <point x="445" y="492"/>
      <point x="428" y="439"/>
      <point x="398" y="395"/>
      <point x="355" y="362"/>
      <point x="328" y="353" type="qcurve"/>
      <point x="354" y="348"/>
      <point x="403" y="322"/>
      <point x="441" y="281"/>
      <point x="464" y="225"/>
      <point x="464" y="191" type="qcurve" name="hr01"/>
      <point x="464" y="138"/>
      <point x="424" y="64"/>
      <point x="359" y="17"/>
      <point x="276" y="-4"/>
      <point x="232" y="-4" type="qcurve"/>
      <point x="180" y="-4"/>
      <point x="79" y="26"/>
      <point x="36" y="55" type="qcurve"/>
    </contour>
  </outline>
</glyph>
<glyph name="four" format="1">
  <advance width="508"/>
  <unicode hex="0034"/>
  <outline>
    <contour>
      <point x="162" y="56" type="line" name="hr00"/>
      <point x="314" y="72" type="line"/>
      <point x="314" y="200" type="line"/>
      <point x="39" y="200" type="line" name="mh01"/>
      <point x="8" y="264" type="line" name="mh02"/>
      <point x="314" y="691" type="line" name="mh03"/>
      <point x="382" y="691" type="line" name="mh04"/>
      <point x="382" y="268" type="line"/>
      <point x="467" y="268" type="line"/>
      <point x="467" y="200" type="line"/>
      <point x="382" y="200" type="line"/>
      <point x="382" y="73" type="line"/>
      <point x="413" y="66"/>
      <point x="460" y="59"/>
      <point x="462" y="59" type="qcurve"/>
      <point x="462" y="2" type="line"/>
      <point x="162" y="2" type="line"/>
    </contour>
    <contour>
      <point x="314" y="268" type="line" name="mh05"/>
      <point x="314" y="592" type="line" name="mh06"/>
      <point x="85" y="268" type="line" name="mh07"/>
    </contour>
  </outline>
</glyph>
<glyph name="five" format="1">
  <advance width="502"/>
  <unicode hex="0035"/>
  <outline>
    <contour>
      <point x="111" y="690" type="line" name="hr00"/>
      <point x="442" y="690" type="line"/>
      <point x="442" y="623" type="line"/>
      <point x="143" y="623" type="line"/>
      <point x="143" y="451" type="line"/>
      <point x="159" y="453"/>
      <point x="174" y="453" type="qcurve"/>
      <point x="203" y="453" type="line"/>
      <point x="260" y="453"/>
      <point x="353" y="422"/>
      <point x="419" y="364"/>
      <point x="456" y="282"/>
      <point x="456" y="231" type="qcurve"/>
      <point x="456" y="178"/>
      <point x="419" y="91"/>
      <point x="355" y="30"/>
      <point x="266" y="-4"/>
      <point x="214" y="-4" type="qcurve"/>
      <point x="163" y="-4"/>
      <point x="69" y="23"/>
      <point x="29" y="55" type="qcurve"/>
      <point x="65" y="112" type="line"/>
      <point x="94" y="86"/>
      <point x="175" y="59"/>
      <point x="215" y="59" type="qcurve"/>
      <point x="251" y="59"/>
      <point x="313" y="84"/>
      <point x="358" y="129"/>
      <point x="384" y="190"/>
      <point x="384" y="226" type="qcurve"/>
      <point x="384" y="276"/>
      <point x="347" y="340"/>
      <point x="287" y="376"/>
      <point x="211" y="390"/>
      <point x="173" y="390" type="qcurve"/>
      <point x="147" y="390"/>
      <point x="100" y="385"/>
      <point x="80" y="382" type="qcurve"/>
      <point x="80" y="657" type="line"/>
    </contour>
  </outline>
</glyph>
<glyph name="six" format="1">
  <advance width="563"/>
  <unicode hex="0036"/>
  <outline>
    <contour>
      <point x="303" y="430" type="qcurve" name="mh01"/>
      <point x="349" y="430"/>
      <point x="427" y="399"/>
      <point x="484" y="343"/>
      <point x="515" y="265"/>
      <point x="515" y="219" type="qcurve"/>
      <point x="515" y="171"/>
      <point x="484" y="90"/>
      <point x="427" y="30"/>
      <point x="347" y="-4"/>
      <point x="298" y="-4" type="qcurve"/>
      <point x="230" y="-4"/>
      <point x="136" y="60"/>
      <point x="78" y="157"/>
      <point x="51" y="275"/>
      <point x="51" y="329" type="qcurve"/>
      <point x="51" y="367"/>
      <point x="63" y="451"/>
      <point x="90" y="532"/>
      <point x="131" y="605"/>
      <point x="190" y="660"/>
      <point x="266" y="692"/>
      <point x="314" y="692" type="qcurve" name="mh02"/>
      <point x="357" y="692"/>
      <point x="426" y="671"/>
      <point x="475" y="644"/>
      <point x="506" y="618"/>
      <point x="511" y="612" type="qcurve"/>
      <point x="438" y="541" type="line"/>
      <point x="386" y="613" type="line"/>
      <point x="376" y="618"/>
      <point x="338" y="629"/>
      <point x="315" y="629" type="qcurve" name="mh03"/>
      <point x="262" y="629"/>
      <point x="189" y="569"/>
      <point x="144" y="480"/>
      <point x="124" y="378"/>
      <point x="124" y="336" type="qcurve"/>
      <point x="153" y="378"/>
      <point x="246" y="430"/>
    </contour>
    <contour>
      <point x="299" y="59" type="qcurve"/>
      <point x="336" y="59"/>
      <point x="391" y="88"/>
      <point x="426" y="133"/>
      <point x="443" y="190"/>
      <point x="443" y="218" type="qcurve"/>
      <point x="443" y="283"/>
      <point x="365" y="367"/>
      <point x="296" y="367" type="qcurve"/>
      <point x="264" y="367"/>
      <point x="208" y="342"/>
      <point x="165" y="300"/>
      <point x="140" y="243"/>
      <point x="140" y="211" type="qcurve"/>
      <point x="145" y="180"/>
      <point x="171" y="125"/>
      <point x="211" y="83"/>
      <point x="266" y="59"/>
    </contour>
  </outline>
</glyph>
<glyph name="eight" format="1">
  <advance width="513"/>
  <unicode hex="0038"/>
  <outline>
    <contour>
      <point x="80" y="533" type="qcurve" name="hr00"/>
      <point x="80" y="567"/>
      <point x="104" y="625"/>
      <point x="149" y="668"/>
      <point x="213" y="692"/>
      <point x="254" y="692" type="qcurve" name="mh01"/>
      <point x="336" y="692"/>
      <point x="430" y="609"/>
      <point x="430" y="533" type="qcurve"/>
      <point x="430" y="486"/>
      <point x="372" y="413"/>
      <point x="321" y="373" type="qcurve"/>
      <point x="363" y="348"/>
      <point x="418" y="301"/>
      <point x="452" y="253"/>
      <point x="466" y="202"/>
      <point x="466" y="172" type="qcurve"/>
      <point x="466" y="140"/>
      <point x="440" y="78"/>
      <point x="387" y="27"/>
      <point x="308" y="-4"/>
      <point x="254" y="-4" type="qcurve"/>
      <point x="200" y="-4"/>
      <point x="122" y="27"/>
      <point x="71" y="78"/>
      <point x="47" y="140"/>
      <point x="47" y="172" type="qcurve"/>
      <point x="47" y="208"/>
      <point x="72" y="267"/>
      <point x="113" y="315"/>
      <point x="163" y="353"/>
      <point x="188" y="369" type="qcurve"/>
      <point x="143" y="400"/>
      <point x="80" y="477"/>
    </contour>
    <contour>
      <point x="115" y="173" type="qcurve"/>
      <point x="115" y="145"/>
      <point x="138" y="103"/>
      <point x="176" y="74"/>
      <point x="226" y="59"/>
      <point x="254" y="59" type="qcurve"/>
      <point x="282" y="59"/>
      <point x="334" y="74"/>
      <point x="373" y="103"/>
      <point x="397" y="145"/>
      <point x="397" y="173" type="qcurve"/>
      <point x="397" y="205"/>
      <point x="369" y="251"/>
      <point x="325" y="287"/>
      <point x="271" y="317"/>
      <point x="246" y="333" type="qcurve"/>
      <point x="245" y="333"/>
      <point x="243" y="335" type="qcurve"/>
      <point x="222" y="320"/>
      <point x="177" y="288"/>
      <point x="139" y="250"/>
      <point x="115" y="203"/>
    </contour>
    <contour>
      <point x="362" y="539" type="qcurve"/>
      <point x="362" y="564"/>
      <point x="342" y="598"/>
      <point x="310" y="619"/>
      <point x="272" y="629"/>
      <point x="254" y="629" type="qcurve" name="mh02"/>
      <point x="241" y="629"/>
      <point x="204" y="620"/>
      <point x="171" y="600"/>
      <point x="148" y="567"/>
      <point x="148" y="542" type="qcurve"/>
      <point x="148" y="518"/>
      <point x="164" y="481"/>
      <point x="194" y="449"/>
      <point x="238" y="421"/>
      <point x="265" y="405" type="qcurve" name="mh03"/>
      <point x="284" y="421"/>
      <point x="319" y="452"/>
      <point x="346" y="485"/>
      <point x="362" y="520"/>
    </contour>
  </outline>
</glyph>
<glyph name="nine" format="1">
  <advance width="535"/>
  <unicode hex="0039"/>
  <outline>
    <contour>
      <point x="252" y="257" type="qcurve" name="hr00"/>
      <point x="204" y="257"/>
      <point x="129" y="293"/>
      <point x="78" y="353"/>
      <point x="51" y="431"/>
      <point x="51" y="473" type="qcurve"/>
      <point x="51" y="509"/>
      <point x="73" y="586"/>
      <point x="123" y="650"/>
      <point x="200" y="691"/>
      <point x="256" y="691" type="qcurve" name="mh01"/>
      <point x="307" y="691"/>
      <point x="380" y="658"/>
      <point x="430" y="602"/>
      <point x="460" y="528"/>
      <point x="475" y="448"/>
      <point x="480" y="365"/>
      <point x="480" y="328" type="qcurve"/>
      <point x="480" y="251"/>
      <point x="445" y="128"/>
      <point x="381" y="42"/>
      <point x="293" y="-4"/>
      <point x="240" y="-4" type="qcurve"/>
      <point x="205" y="-4"/>
      <point x="145" y="9"/>
      <point x="96" y="29"/>
      <point x="59" y="53"/>
      <point x="46" y="64" type="qcurve"/>
      <point x="89" y="124" type="line"/>
      <point x="101" y="112"/>
      <point x="134" y="89"/>
      <point x="171" y="71"/>
      <point x="212" y="59"/>
      <point x="233" y="59" type="qcurve"/>
      <point x="264" y="59"/>
      <point x="325" y="84"/>
      <point x="374" y="146"/>
      <point x="405" y="250"/>
      <point x="407" y="329" type="qcurve"/>
      <point x="380" y="294"/>
      <point x="297" y="257"/>
    </contour>
    <contour>
      <point x="259" y="628" type="qcurve" name="mh02"/>
      <point x="231" y="628"/>
      <point x="182" y="607"/>
      <point x="145" y="568"/>
      <point x="124" y="512"/>
      <point x="124" y="478" type="qcurve"/>
      <point x="124" y="446"/>
      <point x="141" y="390"/>
      <point x="174" y="346"/>
      <point x="225" y="321"/>
      <point x="259" y="321" type="qcurve" name="mh03"/>
      <point x="283" y="321"/>
      <point x="329" y="339"/>
      <point x="368" y="371"/>
      <point x="396" y="416"/>
      <point x="401" y="444" type="qcurve"/>
      <point x="396" y="485"/>
      <point x="374" y="553"/>
      <point x="340" y="601"/>
      <point x="291" y="628"/>
    </contour>
  </outline>
</glyph>
<glyph name="equal" format="1">
  <advance width="438"/>
  <unicode hex="003D"/>
  <outline>
    <contour>
      <point x="68" y="310" type="line" name="hr00"/>
      <point x="370" y="310" type="line"/>
      <point x="370" y="247" type="line"/>
      <point x="68" y="247" type="line"/>
    </contour>
    <contour>
      <point x="68" y="434" type="line"/>
      <point x="370" y="434" type="line"/>
      <point x="370" y="371" type="line"/>
      <point x="68" y="371" type="line"/>
    </contour>
  </outline>
</glyph>
<glyph name="question" format="1">
  <advance width="397"/>
  <unicode hex="003F"/>
  <outline>
    <contour>
      <point x="104" y="237" type="line" name="hr00"/>
      <point x="103" y="242"/>
      <point x="102" y="257"/>
      <point x="102" y="266" type="qcurve"/>
      <point x="102" y="302"/>
      <point x="130" y="352"/>
      <point x="172" y="389"/>
      <point x="221" y="421"/>
      <point x="263" y="458"/>
      <point x="291" y="507"/>
      <point x="291" y="543" type="qcurve"/>
      <point x="291" y="557"/>
      <point x="282" y="587"/>
      <point x="259" y="611"/>
      <point x="221" y="627"/>
      <point x="192" y="627" type="qcurve" name="mh01"/>
      <point x="177" y="627"/>
      <point x="139" y="622"/>
      <point x="125" y="618" type="qcurve"/>
      <point x="98" y="522" type="line"/>
      <point x="47" y="522" type="line"/>
      <point x="66" y="665" type="line"/>
      <point x="97" y="675"/>
      <point x="163" y="690"/>
      <point x="199" y="690" type="qcurve" name="mh02"/>
      <point x="243" y="690"/>
      <point x="306" y="668"/>
      <point x="346" y="629"/>
      <point x="365" y="577"/>
      <point x="365" y="547" type="qcurve"/>
      <point x="365" y="509"/>
      <point x="339" y="451"/>
      <point x="297" y="404"/>
      <point x="242" y="364"/>
      <point x="213" y="345" type="qcurve"/>
      <point x="179" y="322"/>
      <point x="161" y="269"/>
      <point x="161" y="251" type="qcurve"/>
      <point x="161" y="247"/>
      <point x="162" y="240"/>
      <point x="162" y="238" type="qcurve"/>
    </contour>
    <contour>
      <point x="87" y="49" type="qcurve"/>
      <point x="87" y="70"/>
      <point x="118" y="101"/>
      <point x="140" y="101" type="qcurve"/>
      <point x="161" y="101"/>
      <point x="191" y="70"/>
      <point x="191" y="49" type="qcurve"/>
      <point x="191" y="27"/>
      <point x="161" y="-3"/>
      <point x="140" y="-3" type="qcurve"/>
      <point x="118" y="-3"/>
      <point x="87" y="27"/>
    </contour>
  </outline>
</glyph>
<glyph name="at" format="1">
  <advance width="807"/>
  <unicode hex="0040"/>
  <outline>
    <contour>
      <point x="397" y="-4" type="qcurve" name="hr00"/>
      <point x="359" y="-4"/>
      <point x="292" y="23"/>
      <point x="242" y="76"/>
      <point x="214" y="152"/>
      <point x="214" y="202" type="qcurve" name="mh01"/>
      <point x="214" y="265"/>
      <point x="253" y="346"/>
      <point x="310" y="391"/>
      <point x="375" y="408"/>
      <point x="400" y="408" type="qcurve" name="mh02"/>
      <point x="445" y="408"/>
      <point x="485" y="389" type="qcurve"/>
      <point x="528" y="409" type="line"/>
      <point x="550" y="403" type="line"/>
      <point x="550" y="85" type="line"/>
      <point x="550" y="75"/>
      <point x="557" y="65"/>
      <point x="567" y="60"/>
      <point x="578" y="59"/>
      <point x="582" y="59" type="qcurve"/>
      <point x="603" y="59"/>
      <point x="641" y="90"/>
      <point x="670" y="140"/>
      <point x="687" y="202"/>
      <point x="687" y="232" type="qcurve"/>
      <point x="687" y="294"/>
      <point x="649" y="397"/>
      <point x="579" y="471"/>
      <point x="479" y="512"/>
      <point x="417" y="512" type="qcurve" name="mh03"/>
      <point x="351" y="512"/>
      <point x="238" y="466"/>
      <point x="156" y="385"/>
      <point x="110" y="277"/>
      <point x="110" y="215" type="qcurve" name="ah01"/>
      <point x="110" y="154"/>
      <point x="155" y="41"/>
      <point x="234" y="-45"/>
      <point x="340" y="-97"/>
      <point x="402" y="-97" type="qcurve" name="mv01"/>
      <point x="434" y="-97"/>
      <point x="498" y="-86"/>
      <point x="525" y="-75" type="qcurve"/>
      <point x="538" y="-79" type="line"/>
      <point x="521" y="-143" type="line"/>
      <point x="462" y="-160"/>
      <point x="400" y="-160" type="qcurve"/>
      <point x="323" y="-160"/>
      <point x="192" y="-98"/>
      <point x="96" y="6"/>
      <point x="42" y="143"/>
      <point x="42" y="217" type="qcurve" name="mh04"/>
      <point x="42" y="293"/>
      <point x="103" y="424" name="mh05"/>
      <point x="207" y="520"/>
      <point x="344" y="575"/>
      <point x="419" y="575" type="qcurve" name="mh06"/>
      <point x="494" y="575"/>
      <point x="618" y="524"/>
      <point x="707" y="433"/>
      <point x="755" y="306"/>
      <point x="755" y="230" type="qcurve"/>
      <point x="755" y="189"/>
      <point x="732" y="106"/>
      <point x="688" y="39"/>
      <point x="622" y="-4"/>
      <point x="579" y="-4" type="qcurve"/>
      <point x="522" y="-4"/>
      <point x="498" y="28" type="qcurve"/>
      <point x="485" y="17"/>
      <point x="434" y="-4"/>
    </contour>
    <contour>
      <point x="405" y="345" type="qcurve" name="mh07"/>
      <point x="390" y="345"/>
      <point x="348" y="336"/>
      <point x="309" y="306"/>
      <point x="281" y="251"/>
      <point x="281" y="206" type="qcurve" name="mh08"/>
      <point x="281" y="160"/>
      <point x="305" y="103"/>
      <point x="342" y="71"/>
      <point x="385" y="59"/>
      <point x="404" y="59" type="qcurve"/>
      <point x="427" y="59"/>
      <point x="468" y="74"/>
      <point x="482" y="84" type="qcurve"/>
      <point x="482" y="325" type="line"/>
      <point x="468" y="333"/>
      <point x="428" y="345"/>
    </contour>
  </outline>
</glyph>
<glyph name="B" format="1">
  <advance width="557"/>
  <unicode hex="0042"/>
  <outline>
    <contour>
      <point x="181" y="314" type="line" name="hr00"/>
      <point x="181" y="68" type="line"/>
      <point x="309" y="68" type="line"/>
      <point x="346" y="68"/>
      <point x="396" y="90"/>
      <point x="426" y="126"/>
      <point x="439" y="171"/>
      <point x="439" y="195" type="qcurve"/>
      <point x="439" y="220"/>
      <point x="417" y="264"/>
      <point x="378" y="296"/>
      <point x="325" y="314"/>
      <point x="293" y="314" type="qcurve"/>
    </contour>
    <contour>
      <point x="409" y="505" type="qcurve"/>
      <point x="409" y="529"/>
      <point x="393" y="572"/>
      <point x="358" y="604"/>
      <point x="301" y="623"/>
      <point x="261" y="623" type="qcurve" name="mh01"/>
      <point x="181" y="623" type="line" name="hr01"/>
      <point x="181" y="377" type="line"/>
      <point x="276" y="377" type="line"/>
      <point x="311" y="377"/>
      <point x="361" y="399"/>
      <point x="394" y="435"/>
      <point x="409" y="481"/>
    </contour>
    <contour>
      <point x="62" y="0" type="line"/>
      <point x="55" y="56" type="line"/>
      <point x="112" y="68" type="line"/>
      <point x="112" y="627" type="line"/>
      <point x="55" y="632" type="line"/>
      <point x="55" y="691" type="line" name="mh02"/>
      <point x="263" y="691" type="line"/>
      <point x="316" y="691"/>
      <point x="397" y="663"/>
      <point x="452" y="614"/>
      <point x="480" y="548"/>
      <point x="480" y="510" type="qcurve"/>
      <point x="480" y="475"/>
      <point x="464" y="424"/>
      <point x="438" y="387"/>
      <point x="407" y="362"/>
      <point x="392" y="354" type="qcurve"/>
      <point x="412" y="345"/>
      <point x="454" y="320"/>
      <point x="488" y="282"/>
      <point x="510" y="226"/>
      <point x="510" y="187" type="qcurve"/>
      <point x="510" y="140"/>
      <point x="478" y="69"/>
      <point x="420" y="23"/>
      <point x="338" y="0"/>
      <point x="289" y="0" type="qcurve"/>
    </contour>
  </outline>
</glyph>
<glyph name="C" format="1">
  <advance width="556"/>
  <unicode hex="0043"/>
  <outline>
    <contour>
      <point x="111" y="348" type="qcurve" name="hr00"/>
      <point x="112" y="289"/>
      <point x="147" y="186"/>
      <point x="214" y="109"/>
      <point x="310" y="64"/>
      <point x="372" y="64" type="qcurve"/>
      <point x="406" y="64"/>
      <point x="475" y="83"/>
      <point x="500" y="99" type="qcurve"/>
      <point x="525" y="38" type="line"/>
      <point x="499" y="20"/>
      <point x="415" y="-4"/>
      <point x="373" y="-4" type="qcurve"/>
      <point x="297" y="-4"/>
      <point x="174" y="49"/>
      <point x="87" y="142"/>
      <point x="40" y="271"/>
      <point x="40" y="346" type="qcurve"/>
      <point x="40" y="416"/>
      <point x="89" y="542"/>
      <point x="177" y="636"/>
      <point x="300" y="691"/>
      <point x="375" y="691" type="qcurve" name="mh01"/>
      <point x="407" y="691"/>
      <point x="463" y="684"/>
      <point x="492" y="678" type="qcurve"/>
      <point x="510" y="520" type="line"/>
      <point x="453" y="520" type="line"/>
      <point x="429" y="618" type="line"/>
      <point x="421" y="619"/>
      <point x="402" y="623"/>
      <point x="377" y="623" type="qcurve" name="mh02"/>
      <point x="314" y="623"/>
      <point x="217" y="577"/>
      <point x="149" y="501"/>
      <point x="112" y="402"/>
    </contour>
  </outline>
</glyph>
<glyph name="D" format="1">
  <advance width="605"/>
  <unicode hex="0044"/>
  <outline>
    <contour>
      <point x="55" y="56" type="line" name="hr00"/>
      <point x="112" y="69" type="line"/>
      <point x="112" y="627" type="line"/>
      <point x="55" y="632" type="line"/>
      <point x="55" y="691" type="line"/>
      <point x="198" y="691" type="line" name="mh01"/>
      <point x="275" y="691"/>
      <point x="408" y="650"/>
      <point x="505" y="565"/>
      <point x="561" y="436"/>
      <point x="561" y="349" type="qcurve"/>
      <point x="561" y="260"/>
      <point x="512" y="129"/>
      <point x="420" y="42"/>
      <point x="291" y="0"/>
      <point x="211" y="0" type="qcurve"/>
      <point x="62" y="0" type="line"/>
    </contour>
    <contour>
      <point x="490" y="348" type="qcurve"/>
      <point x="490" y="409"/>
      <point x="452" y="510"/>
      <point x="380" y="583"/>
      <point x="275" y="623"/>
      <point x="208" y="623" type="qcurve" name="mh02"/>
      <point x="181" y="623" type="line"/>
      <point x="181" y="68" type="line"/>
      <point x="225" y="68" type="line"/>
      <point x="304" y="68"/>
      <point x="406" y="117"/>
      <point x="466" y="196"/>
      <point x="490" y="297"/>
    </contour>
  </outline>
</glyph>
<glyph name="G" format="1">
  <advance width="607"/>
  <unicode hex="0047"/>
  <outline>
    <contour>
      <point x="544" y="313" type="line" name="hr00"/>
      <point x="544" y="17" type="line"/>
      <point x="507" y="6"/>
      <point x="427" y="-4"/>
      <point x="386" y="-4" type="qcurve"/>
      <point x="311" y="-4"/>
      <point x="184" y="47"/>
      <point x="92" y="138"/>
      <point x="40" y="264"/>
      <point x="40" y="340" type="qcurve"/>
      <point x="40" y="417"/>
      <point x="89" y="546"/>
      <point x="180" y="639"/>
      <point x="308" y="691"/>
      <point x="386" y="691" type="qcurve" name="mh01"/>
      <point x="423" y="691"/>
      <point x="493" y="681"/>
      <point x="525" y="673" type="qcurve"/>
      <point x="536" y="519" type="line"/>
      <point x="473" y="519" type="line"/>
      <point x="450" y="618" type="line"/>
      <point x="435" y="620"/>
      <point x="395" y="623"/>
      <point x="381" y="623" type="qcurve" name="mh02"/>
      <point x="316" y="623"/>
      <point x="215" y="579"/>
      <point x="146" y="503"/>
      <point x="111" y="401"/>
      <point x="111" y="343" type="qcurve"/>
      <point x="111" y="280"/>
      <point x="152" y="178"/>
      <point x="226" y="104"/>
      <point x="329" y="64"/>
      <point x="392" y="64" type="qcurve"/>
      <point x="411" y="64"/>
      <point x="457" y="67"/>
      <point x="475" y="71" type="qcurve"/>
      <point x="475" y="238" type="line"/>
      <point x="352" y="252" type="line"/>
      <point x="370" y="313" type="line"/>
    </contour>
  </outline>
</glyph>
<glyph name="J" format="1">
  <advance width="358"/>
  <unicode hex="004A"/>
  <outline>
    <contour>
      <point x="116" y="635" type="line" name="hr00"/>
      <point x="122" y="691" type="line"/>
      <point x="315" y="691" type="line" name="mh01"/>
      <point x="315" y="631" type="line"/>
      <point x="257" y="627" type="line"/>
      <point x="257" y="144" type="line"/>
      <point x="257" y="90"/>
      <point x="227" y="30"/>
      <point x="187" y="2"/>
      <point x="145" y="-4"/>
      <point x="133" y="-4" type="qcurve"/>
      <point x="99" y="-4"/>
      <point x="35" y="23"/>
      <point x="11" y="44" type="qcurve"/>
      <point x="50" y="102" type="line"/>
      <point x="60" y="92"/>
      <point x="105" y="62"/>
      <point x="138" y="62" type="qcurve"/>
      <point x="159" y="62"/>
      <point x="189" y="89"/>
      <point x="189" y="123" type="qcurve"/>
      <point x="189" y="627" type="line"/>
    </contour>
  </outline>
</glyph>
<glyph name="P" format="1">
  <advance width="520"/>
  <unicode hex="0050"/>
  <outline>
    <contour>
      <point x="235" y="332" type="line" name="hr00"/>
      <point x="294" y="332"/>
      <point x="368" y="357"/>
      <point x="409" y="399"/>
      <point x="423" y="452"/>
      <point x="423" y="480" type="qcurve"/>
      <point x="423" y="517"/>
      <point x="396" y="571"/>
      <point x="348" y="606"/>
      <point x="283" y="623"/>
      <point x="245" y="623" type="qcurve"/>
      <point x="181" y="623" type="line"/>
      <point x="181" y="332" type="line"/>
    </contour>
    <contour>
      <point x="55" y="55" type="line"/>
      <point x="112" y="68" type="line"/>
      <point x="112" y="627" type="line"/>
      <point x="55" y="632" type="line"/>
      <point x="55" y="691" type="line"/>
      <point x="219" y="691" type="line" name="mh01"/>
      <point x="300" y="691"/>
      <point x="407" y="653"/>
      <point x="469" y="593"/>
      <point x="494" y="518"/>
      <point x="494" y="481" type="qcurve"/>
      <point x="494" y="424"/>
      <point x="451" y="341"/>
      <point x="380" y="289"/>
      <point x="287" y="264"/>
      <point x="238" y="264" type="qcurve"/>
      <point x="181" y="264" type="line"/>
      <point x="181" y="70" type="line"/>
      <point x="321" y="51" type="line"/>
      <point x="321" y="0" type="line"/>
      <point x="62" y="0" type="line"/>
    </contour>
  </outline>
</glyph>
<glyph name="Q" format="1">
  <advance width="649"/>
  <unicode hex="0051"/>
  <outline>
    <contour>
      <point x="283" y="-29" type="line" name="hr00"/>
      <point x="496" y="-102" type="line"/>
      <point x="501" y="-130" type="line"/>
      <point x="417" y="-191" type="line"/>
      <point x="376" y="-158"/>
      <point x="298" y="-91"/>
      <point x="260" y="-56" type="qcurve"/>
    </contour>
    <contour>
      <point x="325" y="-4" type="qcurve"/>
      <point x="254" y="-4"/>
      <point x="150" y="57"/>
      <point x="82" y="156"/>
      <point x="50" y="280"/>
      <point x="50" y="343" type="qcurve"/>
      <point x="50" y="406"/>
      <point x="82" y="530"/>
      <point x="150" y="629"/>
      <point x="254" y="691"/>
      <point x="325" y="691" type="qcurve" name="mh01"/>
      <point x="396" y="691"/>
      <point x="500" y="629"/>
      <point x="567" y="530"/>
      <point x="600" y="406"/>
      <point x="600" y="343" type="qcurve"/>
      <point x="600" y="280"/>
      <point x="567" y="156"/>
      <point x="500" y="57"/>
      <point x="396" y="-4"/>
    </contour>
    <contour>
      <point x="123" y="341" type="qcurve"/>
      <point x="123" y="290"/>
      <point x="145" y="191"/>
      <point x="193" y="112"/>
      <point x="270" y="64"/>
      <point x="325" y="64" type="qcurve"/>
      <point x="380" y="64"/>
      <point x="456" y="112"/>
      <point x="504" y="191"/>
      <point x="526" y="290"/>
      <point x="526" y="341" type="qcurve"/>
      <point x="526" y="392"/>
      <point x="504" y="493"/>
      <point x="456" y="574"/>
      <point x="380" y="624"/>
      <point x="325" y="624" type="qcurve"/>
      <point x="270" y="624"/>
      <point x="193" y="574"/>
      <point x="145" y="493"/>
      <point x="123" y="392"/>
    </contour>
  </outline>
</glyph>
<glyph name="R" format="1">
  <advance width="544"/>
  <unicode hex="0052"/>
  <outline>
    <contour>
      <point x="55" y="55" type="line" name="hr00"/>
      <point x="112" y="68" type="line"/>
      <point x="112" y="627" type="line"/>
      <point x="55" y="632" type="line"/>
      <point x="55" y="691" type="line"/>
      <point x="229" y="691" type="line" name="mh01"/>
      <point x="287" y="691"/>
      <point x="384" y="666"/>
      <point x="454" y="615"/>
      <point x="494" y="536"/>
      <point x="494" y="481" type="qcurve" name="mh02"/>
      <point x="494" y="440"/>
      <point x="471" y="376"/>
      <point x="430" y="327"/>
      <point x="375" y="292"/>
      <point x="343" y="282" type="qcurve"/>
      <point x="445" y="65" type="line"/>
      <point x="510" y="51" type="line"/>
      <point x="510" y="0" type="line"/>
      <point x="392" y="0" type="line"/>
      <point x="272" y="266" type="line"/>
      <point x="261" y="265"/>
      <point x="239" y="264"/>
      <point x="228" y="264" type="qcurve"/>
      <point x="181" y="264" type="line"/>
      <point x="181" y="70" type="line"/>
      <point x="259" y="51" type="line"/>
      <point x="259" y="0" type="line"/>
      <point x="62" y="0" type="line"/>
    </contour>
    <contour>
      <point x="235" y="332" type="line" name="mh03"/>
      <point x="272" y="332"/>
      <point x="340" y="345"/>
      <point x="392" y="379"/>
      <point x="423" y="436"/>
      <point x="423" y="480" type="qcurve" name="mh04"/>
      <point x="423" y="518"/>
      <point x="397" y="572"/>
      <point x="352" y="607"/>
      <point x="291" y="623"/>
      <point x="255" y="623" type="qcurve"/>
      <point x="181" y="623" type="line"/>
      <point x="181" y="332" type="line"/>
    </contour>
  </outline>
</glyph>
<glyph name="S" format="1">
  <advance width="491"/>
  <unicode hex="0053"/>
  <outline>
    <contour>
      <point x="112" y="183" type="line" name="hr00"/>
      <point x="139" y="84" type="line"/>
      <point x="158" y="75"/>
      <point x="211" y="64"/>
      <point x="233" y="64" type="qcurve"/>
      <point x="259" y="64"/>
      <point x="310" y="78"/>
      <point x="350" y="107"/>
      <point x="375" y="151"/>
      <point x="375" y="181" type="qcurve"/>
      <point x="375" y="219"/>
      <point x="340" y="278"/>
      <point x="289" y="304" type="qcurve" name="mh01"/>
      <point x="249" y="323"/>
      <point x="166" y="359"/>
      <point x="98" y="405"/>
      <point x="54" y="470"/>
      <point x="54" y="520" type="qcurve" name="mh02"/>
      <point x="54" y="560"/>
      <point x="87" y="623"/>
      <point x="143" y="667"/>
      <point x="216" y="691"/>
      <point x="257" y="691" type="qcurve" name="mh03"/>
      <point x="299" y="691"/>
      <point x="374" y="673"/>
      <point x="411" y="659" type="qcurve"/>
      <point x="424" y="505" type="line"/>
      <point x="369" y="505" type="line"/>
      <point x="327" y="611" type="line"/>
      <point x="308" y="619"/>
      <point x="270" y="624"/>
      <point x="249" y="624" type="qcurve"/>
      <point x="226" y="624"/>
      <point x="182" y="612"/>
      <point x="147" y="588"/>
      <point x="125" y="552"/>
      <point x="125" y="528" type="qcurve"/>
      <point x="125" y="495"/>
      <point x="157" y="450"/>
      <point x="206" y="418"/>
      <point x="267" y="393"/>
      <point x="296" y="380" type="qcurve"/>
      <point x="341" y="359"/>
      <point x="400" y="313"/>
      <point x="433" y="265"/>
      <point x="446" y="215"/>
      <point x="446" y="189" type="qcurve" name="mh04"/>
      <point x="446" y="143"/>
      <point x="411" y="71"/>
      <point x="353" y="22"/>
      <point x="275" y="-4"/>
      <point x="233" y="-4" type="qcurve"/>
      <point x="190" y="-4"/>
      <point x="103" y="11"/>
      <point x="65" y="29" type="qcurve"/>
      <point x="54" y="183" type="line"/>
    </contour>
  </outline>
</glyph>
<glyph name="bracketleft" format="1">
  <advance width="306"/>
  <unicode hex="005B"/>
  <outline>
    <contour>
      <point x="88" y="669" type="line" name="mh01"/>
      <point x="294" y="669" type="line"/>
      <point x="300" y="669"/>
      <point x="300" y="661" type="qcurve"/>
      <point x="300" y="607" type="line"/>
      <point x="149" y="607" type="line"/>
      <point x="149" y="-117" type="line"/>
      <point x="300" y="-117" type="line"/>
      <point x="300" y="-171" type="line" name="hr01"/>
      <point x="300" y="-179"/>
      <point x="294" y="-179" type="qcurve"/>
      <point x="94" y="-179" type="line"/>
      <point x="81" y="-163" type="line" name="hr02"/>
      <point x="81" y="655" type="line"/>
    </contour>
  </outline>
</glyph>
<glyph name="a" format="1">
  <advance width="448"/>
  <unicode hex="0061"/>
  <outline>
    <contour>
      <point x="366" y="79" type="line" name="hr00"/>
      <point x="366" y="68"/>
      <point x="375" y="50"/>
      <point x="389" y="50" type="qcurve"/>
      <point x="394" y="50"/>
      <point x="405" y="53"/>
      <point x="410" y="55" type="qcurve"/>
      <point x="421" y="17" type="line"/>
      <point x="410" y="6"/>
      <point x="381" y="-4"/>
      <point x="366" y="-4" type="qcurve"/>
      <point x="339" y="-4"/>
      <point x="313" y="21"/>
      <point x="308" y="40" type="qcurve"/>
      <point x="285" y="19"/>
      <point x="226" y="-4"/>
      <point x="190" y="-4" type="qcurve"/>
      <point x="160" y="-4"/>
      <point x="106" y="14"/>
      <point x="65" y="48"/>
      <point x="41" y="97"/>
      <point x="41" y="128" type="qcurve"/>
      <point x="41" y="179"/>
      <point x="96" y="241"/>
      <point x="176" y="275"/>
      <point x="267" y="287"/>
      <point x="303" y="288" type="qcurve" name="mh01"/>
      <point x="303" y="352" type="line"/>
      <point x="303" y="384"/>
      <point x="255" y="422"/>
      <point x="215" y="422" type="qcurve"/>
      <point x="200" y="422"/>
      <point x="159" y="417"/>
      <point x="146" y="409" type="qcurve"/>
      <point x="130" y="356" type="line"/>
      <point x="48" y="371" type="line"/>
      <point x="57" y="399"/>
      <point x="90" y="439"/>
      <point x="133" y="466"/>
      <point x="183" y="479"/>
      <point x="209" y="479" type="qcurve" name="mh02"/>
      <point x="292" y="479"/>
      <point x="366" y="402"/>
      <point x="366" y="337" type="qcurve"/>
    </contour>
    <contour>
      <point x="107" y="131" type="qcurve"/>
      <point x="107" y="96"/>
      <point x="155" y="53"/>
      <point x="197" y="53" type="qcurve" name="mh03"/>
      <point x="228" y="53"/>
      <point x="286" y="82"/>
      <point x="303" y="108" type="qcurve"/>
      <point x="303" y="232" type="line" name="mh04"/>
      <point x="277" y="232"/>
      <point x="210" y="225"/>
      <point x="149" y="204"/>
      <point x="107" y="164"/>
    </contour>
  </outline>
</glyph>
<glyph name="b" format="1">
  <advance width="484"/>
  <unicode hex="0062"/>
  <outline>
    <contour>
      <point x="138" y="697" type="line" name="hr00"/>
      <point x="138" y="442" type="line"/>
      <point x="160" y="460"/>
      <point x="217" y="479"/>
      <point x="247" y="479" type="qcurve"/>
      <point x="297" y="479"/>
      <point x="370" y="440"/>
      <point x="418" y="375"/>
      <point x="442" y="289"/>
      <point x="442" y="242" type="qcurve"/>
      <point x="442" y="195"/>
      <point x="417" y="106"/>
      <point x="366" y="37"/>
      <point x="288" y="-4"/>
      <point x="235" y="-4" type="qcurve"/>
      <point x="206" y="-4"/>
      <point x="151" y="8"/>
      <point x="127" y="22" type="qcurve"/>
      <point x="117" y="15"/>
      <point x="96" y="0"/>
      <point x="91" y="0" type="qcurve"/>
      <point x="75" y="0" type="line"/>
      <point x="75" y="661" type="line"/>
      <point x="14" y="657" type="line"/>
      <point x="6" y="709" type="line"/>
      <point x="111" y="727" type="line" name="mh01"/>
    </contour>
    <contour>
      <point x="233" y="53" type="qcurve"/>
      <point x="273" y="53"/>
      <point x="328" y="85"/>
      <point x="362" y="138"/>
      <point x="376" y="204"/>
      <point x="376" y="237" type="qcurve"/>
      <point x="376" y="269"/>
      <point x="362" y="335"/>
      <point x="331" y="388"/>
      <point x="279" y="422"/>
      <point x="241" y="422" type="qcurve"/>
      <point x="213" y="422"/>
      <point x="152" y="394"/>
      <point x="138" y="371" type="qcurve"/>
      <point x="138" y="85" type="line"/>
      <point x="158" y="69"/>
      <point x="207" y="53"/>
    </contour>
  </outline>
</glyph>
<glyph name="c" format="1">
  <advance width="405"/>
  <unicode hex="0063"/>
  <outline>
    <contour>
      <point x="339" y="373" type="line" name="hr00"/>
      <point x="280" y="420" type="line"/>
      <point x="272" y="422"/>
      <point x="261" y="422" type="qcurve"/>
      <point x="244" y="422" type="line"/>
      <point x="203" y="422"/>
      <point x="151" y="388"/>
      <point x="121" y="334"/>
      <point x="109" y="266"/>
      <point x="109" y="232" type="qcurve"/>
      <point x="109" y="199"/>
      <point x="123" y="134"/>
      <point x="157" y="84"/>
      <point x="214" y="53"/>
      <point x="258" y="53" type="qcurve"/>
      <point x="287" y="53"/>
      <point x="336" y="66"/>
      <point x="360" y="80" type="qcurve"/>
      <point x="377" y="31" type="line"/>
      <point x="351" y="11"/>
      <point x="283" y="-4"/>
      <point x="248" y="-4" type="qcurve"/>
      <point x="194" y="-4"/>
      <point x="117" y="35"/>
      <point x="67" y="101"/>
      <point x="43" y="187"/>
      <point x="43" y="233" type="qcurve"/>
      <point x="43" y="281"/>
      <point x="66" y="370"/>
      <point x="116" y="438"/>
      <point x="194" y="479"/>
      <point x="249" y="479" type="qcurve"/>
      <point x="294" y="479"/>
      <point x="364" y="456"/>
      <point x="383" y="442" type="qcurve"/>
    </contour>
  </outline>
</glyph>
<glyph name="d" format="1">
  <advance width="495"/>
  <unicode hex="0064"/>
  <outline>
    <contour>
      <point x="285" y="657" type="line" name="hr00"/>
      <point x="277" y="709" type="line"/>
      <point x="382" y="727" type="line" name="mh01"/>
      <point x="409" y="697" type="line"/>
      <point x="409" y="79" type="line"/>
      <point x="409" y="68"/>
      <point x="418" y="50"/>
      <point x="432" y="50" type="qcurve"/>
      <point x="437" y="50"/>
      <point x="448" y="53"/>
      <point x="453" y="55" type="qcurve"/>
      <point x="464" y="15" type="line"/>
      <point x="453" y="4"/>
      <point x="417" y="-4"/>
      <point x="408" y="-4" type="qcurve"/>
      <point x="382" y="-4"/>
      <point x="357" y="21"/>
      <point x="352" y="37" type="qcurve"/>
      <point x="329" y="16"/>
      <point x="272" y="-4"/>
      <point x="240" y="-4" type="qcurve"/>
      <point x="189" y="-4"/>
      <point x="115" y="38"/>
      <point x="66" y="105"/>
      <point x="42" y="191"/>
      <point x="42" y="235" type="qcurve"/>
      <point x="42" y="285"/>
      <point x="68" y="374"/>
      <point x="119" y="440"/>
      <point x="197" y="479"/>
      <point x="250" y="479" type="qcurve" name="mh02"/>
      <point x="281" y="479"/>
      <point x="328" y="467"/>
      <point x="346" y="459" type="qcurve"/>
      <point x="346" y="661" type="line"/>
    </contour>
    <contour>
      <point x="254" y="422" type="qcurve" name="mh03"/>
      <point x="213" y="422"/>
      <point x="158" y="390"/>
      <point x="123" y="338"/>
      <point x="108" y="273"/>
      <point x="108" y="239" type="qcurve"/>
      <point x="108" y="207"/>
      <point x="122" y="141"/>
      <point x="155" y="87"/>
      <point x="208" y="53"/>
      <point x="246" y="53" type="qcurve"/>
      <point x="275" y="53"/>
      <point x="330" y="79"/>
      <point x="346" y="104" type="qcurve"/>
      <point x="346" y="387" type="line"/>
      <point x="329" y="406"/>
      <point x="280" y="422"/>
    </contour>
  </outline>
</glyph>
<glyph name="e" format="1">
  <advance width="443"/>
  <unicode hex="0065"/>
  <outline>
    <contour>
      <point x="264" y="52" type="qcurve" name="hr00"/>
      <point x="296" y="52"/>
      <point x="358" y="71"/>
      <point x="381" y="88" type="qcurve"/>
      <point x="398" y="34" type="line"/>
      <point x="369" y="13"/>
      <point x="296" y="-4"/>
      <point x="259" y="-4" type="qcurve"/>
      <point x="204" y="-4"/>
      <point x="123" y="33"/>
      <point x="69" y="97"/>
      <point x="42" y="183"/>
      <point x="42" y="232" type="qcurve"/>
      <point x="42" y="283"/>
      <point x="70" y="373"/>
      <point x="124" y="440"/>
      <point x="202" y="479"/>
      <point x="252" y="479" type="qcurve" name="mh01"/>
      <point x="282" y="479"/>
      <point x="337" y="461"/>
      <point x="377" y="428"/>
      <point x="401" y="379"/>
      <point x="401" y="348" type="qcurve"/>
      <point x="401" y="294"/>
      <point x="346" y="230"/>
      <point x="260" y="196"/>
      <point x="158" y="185"/>
      <point x="111" y="185" type="qcurve"/>
      <point x="121" y="127"/>
      <point x="194" y="52"/>
    </contour>
    <contour>
      <point x="125" y="244" type="line"/>
      <point x="153" y="244"/>
      <point x="226" y="248"/>
      <point x="290" y="269"/>
      <point x="335" y="310"/>
      <point x="335" y="348" type="qcurve"/>
      <point x="335" y="368"/>
      <point x="320" y="396"/>
      <point x="296" y="414"/>
      <point x="266" y="422"/>
      <point x="251" y="422" type="qcurve" name="mh02"/>
      <point x="216" y="422"/>
      <point x="164" y="393"/>
      <point x="129" y="344"/>
      <point x="109" y="280"/>
      <point x="108" y="244" type="qcurve"/>
    </contour>
  </outline>
</glyph>
<glyph name="f" format="1">
  <advance width="311"/>
  <unicode hex="0066"/>
  <outline>
    <contour>
      <point x="38" y="422" type="line" name="hr00"/>
      <point x="24" y="468" type="line"/>
      <point x="31" y="479" type="line"/>
      <point x="101" y="479" type="line"/>
      <point x="101" y="596" type="line"/>
      <point x="101" y="654"/>
      <point x="158" y="727"/>
      <point x="223" y="727" type="qcurve" name="mh01"/>
      <point x="253" y="727"/>
      <point x="310" y="705"/>
      <point x="335" y="690" type="qcurve"/>
      <point x="286" y="622" type="line"/>
      <point x="230" y="670" type="line"/>
      <point x="225" y="670"/>
      <point x="217" y="671"/>
      <point x="212" y="671" type="qcurve" name="mh02"/>
      <point x="196" y="671"/>
      <point x="177" y="660"/>
      <point x="167" y="642"/>
      <point x="164" y="620"/>
      <point x="164" y="608" type="qcurve"/>
      <point x="164" y="479" type="line"/>
      <point x="274" y="479" type="line"/>
      <point x="279" y="479"/>
      <point x="279" y="473" type="qcurve"/>
      <point x="279" y="422" type="line"/>
      <point x="164" y="422" type="line"/>
      <point x="164" y="61" type="line"/>
      <point x="274" y="45" type="line"/>
      <point x="274" y="0" type="line"/>
      <point x="50" y="0" type="line"/>
      <point x="42" y="44" type="line"/>
      <point x="101" y="58" type="line"/>
      <point x="101" y="422" type="line"/>
    </contour>
  </outline>
</glyph>
<glyph name="g" format="1">
  <advance width="476"/>
  <unicode hex="0067"/>
  <outline>
    <contour>
      <point x="226" y="479" type="qcurve" name="hr00"/>
      <point x="262" y="479"/>
      <point x="323" y="458"/>
      <point x="346" y="438" type="qcurve"/>
      <point x="437" y="483" type="line"/>
      <point x="456" y="480" type="line"/>
      <point x="466" y="412" type="line"/>
      <point x="379" y="401" type="line"/>
      <point x="392" y="381"/>
      <point x="406" y="332"/>
      <point x="406" y="304" type="qcurve"/>
      <point x="406" y="265"/>
      <point x="379" y="200"/>
      <point x="331" y="154"/>
      <point x="265" y="128"/>
      <point x="226" y="128" type="qcurve"/>
      <point x="198" y="128"/>
      <point x="174" y="134" type="qcurve"/>
      <point x="153" y="103" type="line"/>
      <point x="156" y="82" type="line"/>
      <point x="177" y="76"/>
      <point x="196" y="71" type="qcurve"/>
      <point x="213" y="66"/>
      <point x="231" y="61" type="qcurve"/>
      <point x="261" y="54" type="line"/>
      <point x="292" y="46"/>
      <point x="350" y="25"/>
      <point x="395" y="-8"/>
      <point x="421" y="-58"/>
      <point x="421" y="-94" type="qcurve"/>
      <point x="421" y="-137"/>
      <point x="386" y="-201"/>
      <point x="329" y="-244"/>
      <point x="255" y="-265"/>
      <point x="217" y="-265" type="qcurve"/>
      <point x="179" y="-265"/>
      <point x="109" y="-244"/>
      <point x="55" y="-204"/>
      <point x="22" y="-144"/>
      <point x="22" y="-105" type="qcurve"/>
      <point x="22" y="-79"/>
      <point x="38" y="-36"/>
      <point x="65" y="-2"/>
      <point x="97" y="23"/>
      <point x="114" y="31" type="qcurve"/>
      <point x="99" y="41"/>
      <point x="81" y="67"/>
      <point x="81" y="87" type="qcurve"/>
      <point x="81" y="108"/>
      <point x="104" y="144"/>
      <point x="118" y="159" type="qcurve"/>
      <point x="85" y="182"/>
      <point x="47" y="255"/>
      <point x="47" y="303" type="qcurve"/>
      <point x="47" y="342"/>
      <point x="73" y="407"/>
      <point x="121" y="453"/>
      <point x="187" y="479"/>
    </contour>
    <contour>
      <point x="85" y="-103" type="qcurve"/>
      <point x="85" y="-129"/>
      <point x="112" y="-166"/>
      <point x="152" y="-190"/>
      <point x="199" y="-202"/>
      <point x="220" y="-202" type="qcurve"/>
      <point x="247" y="-202"/>
      <point x="298" y="-188"/>
      <point x="339" y="-163"/>
      <point x="364" y="-126"/>
      <point x="364" y="-102" type="qcurve"/>
      <point x="364" y="-73"/>
      <point x="329" y="-38"/>
      <point x="275" y="-16"/>
      <point x="209" y="-2"/>
      <point x="178" y="6" type="qcurve"/>
      <point x="141" y="-7"/>
      <point x="85" y="-62"/>
    </contour>
    <contour>
      <point x="226" y="422" type="qcurve"/>
      <point x="172" y="422"/>
      <point x="113" y="355"/>
      <point x="113" y="304" type="qcurve"/>
      <point x="113" y="253"/>
      <point x="172" y="185"/>
      <point x="226" y="185" type="qcurve"/>
      <point x="280" y="185"/>
      <point x="340" y="253"/>
      <point x="340" y="304" type="qcurve"/>
      <point x="340" y="355"/>
      <point x="280" y="422"/>
    </contour>
  </outline>
</glyph>
<glyph name="h" format="1">
  <advance width="498"/>
  <unicode hex="0068"/>
  <outline>
    <contour>
      <point x="151" y="697" type="line" name="hr00"/>
      <point x="151" y="441" type="line"/>
      <point x="177" y="459"/>
      <point x="239" y="479"/>
      <point x="271" y="479" type="qcurve"/>
      <point x="340" y="479"/>
      <point x="414" y="406"/>
      <point x="414" y="334" type="qcurve"/>
      <point x="414" y="58" type="line"/>
      <point x="475" y="44" type="line"/>
      <point x="475" y="0" type="line"/>
      <point x="295" y="0" type="line"/>
      <point x="291" y="44" type="line"/>
      <point x="351" y="58" type="line"/>
      <point x="351" y="327" type="line"/>
      <point x="351" y="422"/>
      <point x="266" y="422" type="qcurve"/>
      <point x="235" y="422"/>
      <point x="174" y="399"/>
      <point x="151" y="379" type="qcurve"/>
      <point x="151" y="58" type="line"/>
      <point x="207" y="45" type="line"/>
      <point x="207" y="0" type="line"/>
      <point x="35" y="0" type="line"/>
      <point x="30" y="44" type="line"/>
      <point x="88" y="58" type="line"/>
      <point x="88" y="661" type="line"/>
      <point x="33" y="661" type="line"/>
      <point x="24" y="710" type="line"/>
      <point x="122" y="727" type="line" name="mh01"/>
    </contour>
  </outline>
</glyph>
<glyph name="i" format="1">
  <advance width="249"/>
  <unicode hex="0069"/>
  <outline>
    <contour>
      <point x="160" y="451" type="line" name="hr00"/>
      <point x="160" y="59" type="line"/>
      <point x="221" y="44" type="line"/>
      <point x="221" y="0" type="line"/>
      <point x="46" y="0" type="line"/>
      <point x="37" y="43" type="line"/>
      <point x="97" y="58" type="line"/>
      <point x="97" y="416" type="line"/>
      <point x="43" y="412" type="line"/>
      <point x="34" y="463" type="line"/>
      <point x="133" y="481" type="line" name="mh01"/>
    </contour>
    <contour>
      <point x="59" y="671" type="qcurve"/>
      <point x="59" y="693"/>
      <point x="89" y="724"/>
      <point x="111" y="724" type="qcurve" name="mh02"/>
      <point x="133" y="724"/>
      <point x="164" y="693"/>
      <point x="164" y="671" type="qcurve"/>
      <point x="164" y="649"/>
      <point x="133" y="619"/>
      <point x="111" y="619" type="qcurve"/>
      <point x="89" y="619"/>
      <point x="59" y="649"/>
    </contour>
  </outline>
</glyph>
<glyph name="j" format="1">
  <advance width="228"/>
  <unicode hex="006A"/>
  <outline>
    <contour>
      <point x="53" y="671" type="qcurve" name="hr00"/>
      <point x="53" y="693"/>
      <point x="83" y="724"/>
      <point x="105" y="724" type="qcurve" name="mh01"/>
      <point x="127" y="724"/>
      <point x="158" y="693"/>
      <point x="158" y="671" type="qcurve"/>
      <point x="158" y="649"/>
      <point x="127" y="619"/>
      <point x="105" y="619" type="qcurve"/>
      <point x="83" y="619"/>
      <point x="53" y="649"/>
    </contour>
    <contour>
      <point x="23" y="411" type="line"/>
      <point x="15" y="462" type="line"/>
      <point x="128" y="481" type="line" name="mh02"/>
      <point x="155" y="451" type="line"/>
      <point x="155" y="-166" type="line"/>
      <point x="155" y="-186"/>
      <point x="147" y="-224"/>
      <point x="125" y="-254"/>
      <point x="88" y="-273"/>
      <point x="59" y="-273" type="qcurve"/>
      <point x="43" y="-273"/>
      <point x="15" y="-265"/>
      <point x="-6" y="-254"/>
      <point x="-22" y="-242"/>
      <point x="-26" y="-238" type="qcurve"/>
      <point x="7" y="-190" type="line"/>
      <point x="15" y="-198"/>
      <point x="43" y="-217"/>
      <point x="60" y="-217" type="qcurve"/>
      <point x="82" y="-217"/>
      <point x="92" y="-181"/>
      <point x="92" y="-156" type="qcurve"/>
      <point x="92" y="416" type="line"/>
    </contour>
  </outline>
</glyph>
<glyph name="k" format="1">
  <advance width="458"/>
  <unicode hex="006B"/>
  <outline>
    <contour>
      <point x="151" y="697" type="line" name="hr00"/>
      <point x="151" y="271" type="line" name="mh01"/>
      <point x="327" y="434" type="line"/>
      <point x="286" y="434" type="line"/>
      <point x="278" y="481" type="line" name="mh02"/>
      <point x="416" y="481" type="line"/>
      <point x="430" y="454" type="line"/>
      <point x="262" y="297" type="line"/>
      <point x="385" y="55" type="line"/>
      <point x="437" y="44" type="line"/>
      <point x="437" y="0" type="line"/>
      <point x="338" y="0" type="line" name="mh03"/>
      <point x="210" y="250" type="line" name="mh04"/>
      <point x="151" y="194" type="line"/>
      <point x="151" y="58" type="line"/>
      <point x="207" y="45" type="line"/>
      <point x="207" y="0" type="line"/>
      <point x="35" y="0" type="line"/>
      <point x="30" y="44" type="line"/>
      <point x="88" y="58" type="line"/>
      <point x="88" y="661" type="line" name="mh05"/>
      <point x="33" y="661" type="line" name="mh06"/>
      <point x="24" y="710" type="line"/>
      <point x="124" y="727" type="line" name="mh07"/>
    </contour>
  </outline>
</glyph>
<glyph name="m" format="1">
  <advance width="767"/>
  <unicode hex="006D"/>
  <outline>
    <contour>
      <point x="683" y="58" type="line" name="hr00"/>
      <point x="744" y="44" type="line"/>
      <point x="744" y="0" type="line"/>
      <point x="564" y="0" type="line"/>
      <point x="560" y="44" type="line"/>
      <point x="620" y="58" type="line" name="hr01"/>
      <point x="620" y="327" type="line"/>
      <point x="620" y="422"/>
      <point x="535" y="422" type="qcurve" name="mh01"/>
      <point x="512" y="422"/>
      <point x="450" y="406"/>
      <point x="418" y="372" type="qcurve"/>
      <point x="421" y="354"/>
      <point x="421" y="334" type="qcurve"/>
      <point x="421" y="58" type="line"/>
      <point x="482" y="44" type="line"/>
      <point x="482" y="0" type="line"/>
      <point x="302" y="0" type="line"/>
      <point x="298" y="44" type="line"/>
      <point x="358" y="58" type="line"/>
      <point x="358" y="327" type="line"/>
      <point x="358" y="422"/>
      <point x="273" y="422" type="qcurve" name="mh02"/>
      <point x="242" y="422"/>
      <point x="181" y="400"/>
      <point x="158" y="380" type="qcurve"/>
      <point x="158" y="59" type="line"/>
      <point x="219" y="44" type="line" name="hr02"/>
      <point x="219" y="0" type="line"/>
      <point x="46" y="0" type="line"/>
      <point x="40" y="43" type="line"/>
      <point x="95" y="58" type="line"/>
      <point x="95" y="420" type="line"/>
      <point x="41" y="416" type="line" name="mh03"/>
      <point x="32" y="463" type="line"/>
      <point x="133" y="481" type="line" name="mh04"/>
      <point x="155" y="440" type="line"/>
      <point x="183" y="459"/>
      <point x="251" y="479"/>
      <point x="278" y="479" type="qcurve" name="mh05"/>
      <point x="316" y="479"/>
      <point x="376" y="455"/>
      <point x="395" y="429" type="qcurve"/>
      <point x="418" y="447"/>
      <point x="461" y="468"/>
      <point x="498" y="477"/>
      <point x="527" y="479" name="mh06"/>
      <point x="535" y="479" type="qcurve"/>
      <point x="607" y="479"/>
      <point x="683" y="406"/>
      <point x="683" y="334" type="qcurve"/>
    </contour>
  </outline>
</glyph>
<glyph name="p" format="1">
  <advance width="500"/>
  <unicode hex="0070"/>
  <outline>
    <contour>
      <point x="30" y="412" type="line" name="hr00"/>
      <point x="22" y="463" type="line"/>
      <point x="127" y="481" type="line" name="mh01"/>
      <point x="154" y="445" type="line"/>
      <point x="176" y="461"/>
      <point x="233" y="479"/>
      <point x="263" y="479" type="qcurve" name="mh02"/>
      <point x="313" y="479"/>
      <point x="386" y="440"/>
      <point x="434" y="375"/>
      <point x="458" y="289"/>
      <point x="458" y="242" type="qcurve" name="hr01"/>
      <point x="458" y="195"/>
      <point x="433" y="106"/>
      <point x="382" y="37"/>
      <point x="304" y="-4"/>
      <point x="251" y="-4" type="qcurve"/>
      <point x="225" y="-4"/>
      <point x="176" y="5"/>
      <point x="154" y="16" type="qcurve"/>
      <point x="154" y="-208" type="line"/>
      <point x="275" y="-229" type="line"/>
      <point x="275" y="-273" type="line"/>
      <point x="41" y="-273" type="line"/>
      <point x="32" y="-229" type="line"/>
      <point x="91" y="-215" type="line"/>
      <point x="91" y="416" type="line"/>
    </contour>
    <contour>
      <point x="249" y="53" type="qcurve"/>
      <point x="289" y="53"/>
      <point x="344" y="85"/>
      <point x="378" y="138"/>
      <point x="392" y="204"/>
      <point x="392" y="237" type="qcurve"/>
      <point x="392" y="269"/>
      <point x="378" y="335"/>
      <point x="347" y="388"/>
      <point x="295" y="422"/>
      <point x="257" y="422" type="qcurve"/>
      <point x="229" y="422"/>
      <point x="168" y="394"/>
      <point x="154" y="371" type="qcurve"/>
      <point x="154" y="85" type="line"/>
      <point x="174" y="69"/>
      <point x="223" y="53"/>
    </contour>
  </outline>
</glyph>
<glyph name="q" format="1">
  <advance width="483"/>
  <unicode hex="0071"/>
  <outline>
    <contour>
      <point x="409" y="470" type="line" name="hr00"/>
      <point x="409" y="-215" type="line"/>
      <point x="468" y="-229" type="line"/>
      <point x="468" y="-273" type="line"/>
      <point x="232" y="-273" type="line"/>
      <point x="225" y="-229" type="line"/>
      <point x="346" y="-202" type="line"/>
      <point x="346" y="32" type="line"/>
      <point x="331" y="19"/>
      <point x="277" y="-4"/>
      <point x="237" y="-4" type="qcurve"/>
      <point x="196" y="-4"/>
      <point x="125" y="28"/>
      <point x="73" y="89"/>
      <point x="42" y="177"/>
      <point x="42" y="234" type="qcurve"/>
      <point x="42" y="307"/>
      <point x="85" y="403"/>
      <point x="147" y="459"/>
      <point x="218" y="481"/>
      <point x="246" y="481" type="qcurve" name="mh01"/>
      <point x="281" y="481"/>
      <point x="331" y="464"/>
      <point x="351" y="451" type="qcurve"/>
      <point x="374" y="480" type="line"/>
    </contour>
    <contour>
      <point x="252" y="423" type="qcurve"/>
      <point x="229" y="423"/>
      <point x="178" y="407"/>
      <point x="136" y="366"/>
      <point x="108" y="294"/>
      <point x="108" y="239" type="qcurve"/>
      <point x="108" y="184"/>
      <point x="134" y="113"/>
      <point x="174" y="71"/>
      <point x="221" y="54"/>
      <point x="243" y="54" type="qcurve"/>
      <point x="280" y="54"/>
      <point x="335" y="86"/>
      <point x="346" y="104" type="qcurve"/>
      <point x="346" y="387" type="line"/>
      <point x="336" y="399"/>
      <point x="286" y="423"/>
    </contour>
  </outline>
</glyph>
<glyph name="r" format="1">
  <advance width="386"/>
  <unicode hex="0072"/>
  <outline>
    <contour>
      <point x="159" y="440" type="line" name="hr00"/>
      <point x="181" y="460"/>
      <point x="235" y="481"/>
      <point x="260" y="481" type="qcurve" name="mh01"/>
      <point x="282" y="481"/>
      <point x="318" y="469"/>
      <point x="347" y="449"/>
      <point x="369" y="426"/>
      <point x="377" y="415" type="qcurve"/>
      <point x="301" y="378" type="line"/>
      <point x="267" y="424" type="line"/>
      <point x="253" y="424"/>
      <point x="216" y="412"/>
      <point x="182" y="385"/>
      <point x="159" y="343"/>
      <point x="159" y="312" type="qcurve"/>
      <point x="159" y="64" type="line"/>
      <point x="299" y="44" type="line"/>
      <point x="299" y="0" type="line"/>
      <point x="46" y="0" type="line"/>
      <point x="37" y="44" type="line"/>
      <point x="96" y="58" type="line"/>
      <point x="96" y="415" type="line"/>
      <point x="42" y="415" type="line"/>
      <point x="34" y="463" type="line"/>
      <point x="132" y="480" type="line" name="mh02"/>
    </contour>
  </outline>
</glyph>
<glyph name="s" format="1">
  <advance width="397"/>
  <unicode hex="0073"/>
  <outline>
    <contour>
      <point x="199" y="481" type="qcurve" name="hr00"/>
      <point x="232" y="481"/>
      <point x="286" y="462"/>
      <point x="327" y="434"/>
      <point x="354" y="400"/>
      <point x="361" y="384" type="qcurve"/>
      <point x="283" y="355" type="line"/>
      <point x="260" y="406" type="line"/>
      <point x="254" y="411"/>
      <point x="226" y="423"/>
      <point x="199" y="423" type="qcurve"/>
      <point x="188" y="423"/>
      <point x="160" y="416"/>
      <point x="135" y="400"/>
      <point x="118" y="375"/>
      <point x="118" y="356" type="qcurve"/>
      <point x="118" y="339"/>
      <point x="129" y="316"/>
      <point x="156" y="297"/>
      <point x="199" y="279"/>
      <point x="231" y="269" type="qcurve"/>
      <point x="294" y="248"/>
      <point x="351" y="181"/>
      <point x="351" y="130" type="qcurve" name="mh01"/>
      <point x="351" y="97"/>
      <point x="323" y="46"/>
      <point x="279" y="13"/>
      <point x="222" y="-4"/>
      <point x="194" y="-4" type="qcurve"/>
      <point x="160" y="-4"/>
      <point x="107" y="15"/>
      <point x="67" y="43" name="mh02"/>
      <point x="40" y="77"/>
      <point x="32" y="92" type="qcurve" name="mh03"/>
      <point x="110" y="122" type="line"/>
      <point x="133" y="70" type="line"/>
      <point x="138" y="67"/>
      <point x="170" y="54"/>
      <point x="200" y="54" type="qcurve"/>
      <point x="213" y="54"/>
      <point x="242" y="62"/>
      <point x="268" y="80"/>
      <point x="285" y="106"/>
      <point x="285" y="124" type="qcurve"/>
      <point x="285" y="142"/>
      <point x="274" y="169"/>
      <point x="249" y="190"/>
      <point x="207" y="209"/>
      <point x="176" y="220" type="qcurve"/>
      <point x="122" y="237" name="mh04"/>
      <point x="52" y="299"/>
      <point x="52" y="350" type="qcurve" name="mh05"/>
      <point x="52" y="381"/>
      <point x="76" y="430"/>
      <point x="117" y="463"/>
      <point x="170" y="481"/>
    </contour>
  </outline>
</glyph>
<glyph name="t" format="1">
  <advance width="303"/>
  <unicode hex="0074"/>
  <outline>
    <contour>
      <point x="21" y="424" type="line" name="hr00"/>
      <point x="7" y="468" type="line"/>
      <point x="14" y="479" type="line"/>
      <point x="102" y="479" type="line"/>
      <point x="102" y="540"/>
      <point x="103" y="632"/>
      <point x="103" y="647" type="qcurve"/>
      <point x="159" y="661" type="line"/>
      <point x="165" y="650" type="line"/>
      <point x="164" y="626"/>
      <point x="164" y="603" type="qcurve"/>
      <point x="164" y="479" type="line"/>
      <point x="270" y="479" type="line"/>
      <point x="275" y="479"/>
      <point x="275" y="473" type="qcurve"/>
      <point x="275" y="424" type="line"/>
      <point x="163" y="424" type="line"/>
      <point x="163" y="101" type="line"/>
      <point x="163" y="74"/>
      <point x="186" y="54"/>
      <point x="208" y="54" type="qcurve"/>
      <point x="229" y="54"/>
      <point x="265" y="75"/>
      <point x="272" y="80" type="qcurve"/>
      <point x="289" y="29" type="line"/>
      <point x="277" y="20"/>
      <point x="232" y="-4"/>
      <point x="191" y="-4" type="qcurve"/>
      <point x="143" y="-4"/>
      <point x="99" y="58"/>
      <point x="99" y="106" type="qcurve"/>
      <point x="99" y="139" type="line"/>
      <point x="99" y="169"/>
      <point x="100" y="259"/>
      <point x="101" y="369"/>
      <point x="101" y="424" type="qcurve"/>
    </contour>
  </outline>
</glyph>
<glyph name="x" format="1">
  <advance width="456"/>
  <unicode hex="0078"/>
  <outline>
    <contour>
      <point x="40" y="0" type="line" name="hr00"/>
      <point x="30" y="52" type="line"/>
      <point x="72" y="52" type="line"/>
      <point x="186" y="243" type="line"/>
      <point x="72" y="421" type="line" name="mh01"/>
      <point x="30" y="421" type="line"/>
      <point x="30" y="479" type="line"/>
      <point x="113" y="479" type="line" name="mh02"/>
      <point x="236" y="289" type="line" name="mh03"/>
      <point x="350" y="479" type="line" name="mh04"/>
      <point x="420" y="479" type="line"/>
      <point x="420" y="426" type="line"/>
      <point x="387" y="426" type="line" name="mh05"/>
      <point x="271" y="235" type="line" name="mh06"/>
      <point x="386" y="58" type="line"/>
      <point x="428" y="58" type="line"/>
      <point x="428" y="0" type="line"/>
      <point x="343" y="0" type="line"/>
      <point x="221" y="188" type="line"/>
      <point x="109" y="0" type="line"/>
    </contour>
  </outline>
</glyph>
<glyph name="y" format="1">
  <advance width="449"/>
  <unicode hex="0079"/>
  <outline>
    <contour>
      <point x="436" y="445" type="line" name="hr00"/>
      <point x="388" y="314"/>
      <point x="278" y="13"/>
      <point x="220" y="-140" type="qcurve"/>
      <point x="212" y="-162"/>
      <point x="192" y="-209"/>
      <point x="164" y="-248"/>
      <point x="126" y="-273"/>
      <point x="99" y="-273" type="qcurve" name="mh01"/>
      <point x="73" y="-273"/>
      <point x="30" y="-252"/>
      <point x="11" y="-237" type="qcurve"/>
      <point x="42" y="-185" type="line"/>
      <point x="45" y="-188"/>
      <point x="56" y="-198"/>
      <point x="71" y="-208"/>
      <point x="89" y="-215"/>
      <point x="100" y="-215" type="qcurve" name="mh02"/>
      <point x="115" y="-215"/>
      <point x="137" y="-196"/>
      <point x="155" y="-168"/>
      <point x="168" y="-135"/>
      <point x="173" y="-120" type="qcurve"/>
      <point x="199" y="-47" type="line"/>
      <point x="45" y="425" type="line" name="hr01"/>
      <point x="11" y="425" type="line"/>
      <point x="3" y="474" type="line"/>
      <point x="98" y="480" type="line" name="mh03"/>
      <point x="235" y="54" type="line" name="mh04"/>
      <point x="367" y="425" type="line" name="mh05"/>
      <point x="331" y="425" type="line" name="mh06"/>
      <point x="323" y="474" type="line"/>
      <point x="419" y="480" type="line"/>
    </contour>
  </outline>
</glyph>
<glyph name="z" format="1">
  <advance width="428"/>
  <unicode hex="007A"/>
  <outline>
    <contour>
      <point x="379" y="420" type="line" name="hr00"/>
      <point x="126" y="58" type="line"/>
      <point x="316" y="58" type="line"/>
      <point x="332" y="152" type="line"/>
      <point x="379" y="152" type="line"/>
      <point x="379" y="0" type="line"/>
      <point x="47" y="0" type="line"/>
      <point x="47" y="58" type="line"/>
      <point x="293" y="420" type="line" name="mh01"/>
      <point x="110" y="420" type="line"/>
      <point x="94" y="337" type="line"/>
      <point x="47" y="337" type="line"/>
      <point x="47" y="479" type="line" name="mh02"/>
      <point x="379" y="479" type="line"/>
    </contour>
  </outline>
</glyph>
<glyph name="braceleft" format="1">
  <advance width="309"/>
  <unicode hex="007B"/>
  <outline>
    <contour>
      <point x="14" y="316" type="line" name="hr00"/>
      <point x="36" y="316"/>
      <point x="76" y="330"/>
      <point x="107" y="355"/>
      <point x="126" y="393"/>
      <point x="126" y="417" type="qcurve"/>
      <point x="126" y="440" type="line"/>
      <point x="126" y="457"/>
      <point x="125" y="495"/>
      <point x="125" y="512" type="qcurve"/>
      <point x="125" y="540" type="line"/>
      <point x="125" y="572"/>
      <point x="136" y="630"/>
      <point x="164" y="673"/>
      <point x="211" y="699"/>
      <point x="248" y="699" type="qcurve"/>
      <point x="264" y="699"/>
      <point x="292" y="696"/>
      <point x="309" y="694" type="qcurve"/>
      <point x="288" y="617" type="line"/>
      <point x="231" y="634" type="line"/>
      <point x="222" y="632" type="line"/>
      <point x="203" y="624"/>
      <point x="191" y="564"/>
      <point x="191" y="527" type="qcurve"/>
      <point x="191" y="502"/>
      <point x="193" y="450"/>
      <point x="193" y="426" type="qcurve"/>
      <point x="193" y="388"/>
      <point x="178" y="334"/>
      <point x="150" y="299"/>
      <point x="111" y="280"/>
      <point x="86" y="277" type="qcurve"/>
      <point x="78" y="276" type="line"/>
      <point x="78" y="272" type="line"/>
      <point x="86" y="271" type="line"/>
      <point x="137" y="265"/>
      <point x="193" y="197"/>
      <point x="193" y="118" type="qcurve"/>
      <point x="193" y="94"/>
      <point x="191" y="45"/>
      <point x="191" y="21" type="qcurve"/>
      <point x="191" y="-20"/>
      <point x="203" y="-85"/>
      <point x="222" y="-93" type="qcurve"/>
      <point x="231" y="-96" type="line"/>
      <point x="288" y="-79" type="line"/>
      <point x="309" y="-155" type="line"/>
      <point x="292" y="-158"/>
      <point x="264" y="-161"/>
      <point x="248" y="-161" type="qcurve"/>
      <point x="211" y="-161"/>
      <point x="164" y="-135"/>
      <point x="136" y="-91"/>
      <point x="125" y="-33"/>
      <point x="125" y="-1" type="qcurve"/>
      <point x="125" y="27" type="line"/>
      <point x="125" y="47"/>
      <point x="126" y="88"/>
      <point x="126" y="106" type="qcurve"/>
      <point x="126" y="131" type="line"/>
      <point x="126" y="182"/>
      <point x="65" y="232"/>
      <point x="14" y="232" type="qcurve"/>
    </contour>
  </outline>
</glyph>
<glyph name="bar" format="1">
  <advance width="221"/>
  <unicode hex="007C"/>
  <outline>
    <contour>
      <point x="139" y="666" type="line" name="hr00"/>
      <point x="139" y="-166" type="line"/>
      <point x="82" y="-166" type="line"/>
      <point x="82" y="666" type="line" name="mh01"/>
    </contour>
  </outline>
</glyph>
<glyph name="braceright" format="1">
  <advance width="310"/>
  <unicode hex="007D"/>
  <outline>
    <contour>
      <point x="296" y="232" type="line" name="hr00"/>
      <point x="244" y="232"/>
      <point x="183" y="182"/>
      <point x="183" y="131" type="qcurve"/>
      <point x="183" y="106" type="line"/>
      <point x="183" y="88"/>
      <point x="184" y="47"/>
      <point x="184" y="27" type="qcurve"/>
      <point x="184" y="-1" type="line"/>
      <point x="184" y="-33"/>
      <point x="173" y="-91"/>
      <point x="145" y="-135"/>
      <point x="97" y="-161"/>
      <point x="61" y="-161" type="qcurve"/>
      <point x="46" y="-161"/>
      <point x="17" y="-158"/>
      <point x="0" y="-155" type="qcurve"/>
      <point x="21" y="-79" type="line"/>
      <point x="78" y="-96" type="line"/>
      <point x="88" y="-93" type="line"/>
      <point x="107" y="-85"/>
      <point x="118" y="-20"/>
      <point x="118" y="21" type="qcurve"/>
      <point x="118" y="45"/>
      <point x="116" y="94"/>
      <point x="116" y="118" type="qcurve"/>
      <point x="116" y="197"/>
      <point x="172" y="265"/>
      <point x="223" y="271" type="qcurve"/>
      <point x="231" y="272" type="line"/>
      <point x="231" y="276" type="line"/>
      <point x="223" y="277" type="line"/>
      <point x="198" y="280"/>
      <point x="158" y="299"/>
      <point x="131" y="334"/>
      <point x="116" y="388"/>
      <point x="116" y="426" type="qcurve"/>
      <point x="116" y="450"/>
      <point x="118" y="502"/>
      <point x="118" y="527" type="qcurve"/>
      <point x="118" y="564"/>
      <point x="107" y="624"/>
      <point x="88" y="632" type="qcurve"/>
      <point x="78" y="634" type="line"/>
      <point x="21" y="617" type="line"/>
      <point x="0" y="694" type="line"/>
      <point x="17" y="696"/>
      <point x="46" y="699"/>
      <point x="61" y="699" type="qcurve"/>
      <point x="97" y="699"/>
      <point x="145" y="673"/>
      <point x="173" y="630"/>
      <point x="184" y="572"/>
      <point x="184" y="540" type="qcurve"/>
      <point x="184" y="512" type="line"/>
      <point x="184" y="495"/>
      <point x="183" y="457"/>
      <point x="183" y="440" type="qcurve"/>
      <point x="183" y="417" type="line"/>
      <point x="183" y="393"/>
      <point x="202" y="355"/>
      <point x="233" y="330"/>
      <point x="274" y="316"/>
      <point x="296" y="316" type="qcurve"/>
    </contour>
  </outline>
</glyph>
<glyph name="asciitilde" format="1">
  <advance width="387"/>
  <unicode hex="007E"/>
  <outline>
    <contour>
      <point x="266" y="621" type="qcurve" name="hr02"/>
      <point x="322" y="663" type="line" name="hr01"/>
      <point x="359" y="601" type="line"/>
      <point x="340" y="585"/>
      <point x="293" y="563"/>
      <point x="265" y="563" type="qcurve" name="mh01"/>
      <point x="246" y="563"/>
      <point x="214" y="575"/>
      <point x="182" y="588"/>
      <point x="150" y="600"/>
      <point x="132" y="600" type="qcurve" name="mh02"/>
      <point x="111" y="600"/>
      <point x="81" y="572"/>
      <point x="74" y="554" type="qcurve"/>
      <point x="31" y="580" type="line"/>
      <point x="33" y="587" type="line"/>
      <point x="49" y="625"/>
      <point x="104" y="663"/>
      <point x="134" y="663" type="qcurve" name="mh03"/>
      <point x="156" y="663"/>
      <point x="193" y="650"/>
      <point x="225" y="634"/>
      <point x="253" y="621"/>
    </contour>
  </outline>
</glyph>
<glyph name="cent" format="1">
  <advance width="408"/>
  <unicode hex="00A2"/>
  <outline>
    <contour>
      <point x="333" y="373" type="line" name="hr00"/>
      <point x="274" y="420" type="line"/>
      <point x="273" y="420"/>
      <point x="271" y="421"/>
      <point x="270" y="421" type="qcurve"/>
      <point x="270" y="53" type="line"/>
      <point x="293" y="55"/>
      <point x="334" y="68"/>
      <point x="354" y="80" type="qcurve"/>
      <point x="371" y="31" type="line"/>
      <point x="350" y="15"/>
      <point x="298" y="-1"/>
      <point x="270" y="-3" type="qcurve"/>
      <point x="270" y="-158" type="line"/>
      <point x="212" y="-158" type="line"/>
      <point x="212" y="-2" type="line"/>
      <point x="166" y="4"/>
      <point x="98" y="46"/>
      <point x="54" y="110"/>
      <point x="32" y="190"/>
      <point x="32" y="233" type="qcurve"/>
      <point x="32" y="277"/>
      <point x="53" y="360"/>
      <point x="98" y="426"/>
      <point x="165" y="471"/>
      <point x="212" y="477" type="qcurve" name="mh01"/>
      <point x="212" y="609" type="line" name="mh02"/>
      <point x="270" y="609" type="line"/>
      <point x="270" y="478" type="line"/>
      <point x="305" y="474"/>
      <point x="361" y="453"/>
      <point x="377" y="442" type="qcurve" name="mh03"/>
    </contour>
    <contour>
      <point x="98" y="232" type="qcurve"/>
      <point x="98" y="203"/>
      <point x="110" y="146"/>
      <point x="137" y="98"/>
      <point x="180" y="64"/>
      <point x="212" y="57" type="qcurve"/>
      <point x="212" y="420" type="line" name="mh04"/>
      <point x="179" y="414"/>
      <point x="136" y="377"/>
      <point x="109" y="325"/>
      <point x="98" y="263"/>
    </contour>
  </outline>
</glyph>
<glyph name="sterling" format="1">
  <advance width="487"/>
  <unicode hex="00A3"/>
  <outline>
    <contour>
      <point x="219" y="329" type="line" name="hr00"/>
      <point x="217" y="261"/>
      <point x="204" y="144"/>
      <point x="174" y="103" type="qcurve"/>
      <point x="205" y="100"/>
      <point x="259" y="85"/>
      <point x="306" y="68"/>
      <point x="346" y="54"/>
      <point x="362" y="54" type="qcurve"/>
      <point x="418" y="96" type="line"/>
      <point x="454" y="34" type="line"/>
      <point x="433" y="18"/>
      <point x="385" y="-4"/>
      <point x="358" y="-4" type="qcurve"/>
      <point x="326" y="-4"/>
      <point x="269" y="10"/>
      <point x="218" y="27"/>
      <point x="173" y="41"/>
      <point x="154" y="41" type="qcurve"/>
      <point x="119" y="41"/>
      <point x="86" y="13"/>
      <point x="81" y="-4" type="qcurve"/>
      <point x="27" y="14" type="line"/>
      <point x="29" y="21" type="line"/>
      <point x="39" y="44"/>
      <point x="68" y="73"/>
      <point x="86" y="89" type="qcurve"/>
      <point x="108" y="108"/>
      <point x="134" y="160"/>
      <point x="148" y="222"/>
      <point x="151" y="292"/>
      <point x="151" y="329" type="qcurve"/>
      <point x="81" y="329" type="line"/>
      <point x="81" y="383" type="line"/>
      <point x="88" y="392" type="line"/>
      <point x="151" y="392" type="line"/>
      <point x="151" y="527" type="line"/>
      <point x="151" y="575"/>
      <point x="179" y="638"/>
      <point x="223" y="675"/>
      <point x="278" y="691"/>
      <point x="305" y="691" type="qcurve" name="mh01"/>
      <point x="326" y="691"/>
      <point x="363" y="680"/>
      <point x="394" y="664"/>
      <point x="418" y="648"/>
      <point x="425" y="642" type="qcurve"/>
      <point x="377" y="576" type="line"/>
      <point x="318" y="626" type="line"/>
      <point x="313" y="627"/>
      <point x="301" y="628"/>
      <point x="296" y="628" type="qcurve"/>
      <point x="287" y="628"/>
      <point x="260" y="622"/>
      <point x="236" y="602"/>
      <point x="219" y="564"/>
      <point x="219" y="532" type="qcurve"/>
      <point x="219" y="392" type="line"/>
      <point x="357" y="392" type="line"/>
      <point x="363" y="392"/>
      <point x="363" y="384" type="qcurve"/>
      <point x="363" y="329" type="line"/>
    </contour>
  </outline>
</glyph>
<glyph name="section" format="1">
  <advance width="495"/>
  <unicode hex="00A7"/>
  <outline>
    <contour>
      <point x="449" y="235" type="qcurve" name="hr00"/>
      <point x="449" y="196"/>
      <point x="415" y="131"/>
      <point x="395" y="109" type="qcurve"/>
      <point x="415" y="89"/>
      <point x="439" y="37"/>
      <point x="439" y="3" type="qcurve"/>
      <point x="439" y="-38"/>
      <point x="404" y="-99"/>
      <point x="345" y="-140"/>
      <point x="268" y="-161"/>
      <point x="227" y="-161" type="qcurve"/>
      <point x="177" y="-161"/>
      <point x="104" y="-144"/>
      <point x="64" y="-128" type="qcurve"/>
      <point x="54" y="24" type="line"/>
      <point x="112" y="24" type="line"/>
      <point x="132" y="-82" type="line"/>
      <point x="138" y="-85"/>
      <point x="159" y="-90"/>
      <point x="186" y="-95"/>
      <point x="217" y="-98"/>
      <point x="231" y="-98" type="qcurve"/>
      <point x="255" y="-98"/>
      <point x="303" y="-87"/>
      <point x="342" y="-63"/>
      <point x="366" y="-24"/>
      <point x="366" y="4" type="qcurve"/>
      <point x="366" y="31"/>
      <point x="336" y="70"/>
      <point x="290" y="100"/>
      <point x="236" y="124"/>
      <point x="212" y="136" type="qcurve"/>
      <point x="139" y="171"/>
      <point x="57" y="248"/>
      <point x="57" y="306" type="qcurve"/>
      <point x="57" y="341"/>
      <point x="85" y="400"/>
      <point x="107" y="422" type="qcurve"/>
      <point x="81" y="443"/>
      <point x="53" y="496"/>
      <point x="53" y="533" type="qcurve"/>
      <point x="53" y="568"/>
      <point x="83" y="626"/>
      <point x="136" y="668"/>
      <point x="208" y="691"/>
      <point x="250" y="691" type="qcurve" name="mh01"/>
      <point x="277" y="691"/>
      <point x="320" y="686"/>
      <point x="358" y="677"/>
      <point x="392" y="666"/>
      <point x="409" y="659" type="qcurve"/>
      <point x="421" y="505" type="line"/>
      <point x="367" y="505" type="line"/>
      <point x="325" y="615" type="line"/>
      <point x="311" y="621"/>
      <point x="276" y="628"/>
      <point x="250" y="628" type="qcurve" name="mh02"/>
      <point x="225" y="628"/>
      <point x="180" y="615"/>
      <point x="145" y="592"/>
      <point x="125" y="560"/>
      <point x="125" y="542" type="qcurve"/>
      <point x="125" y="515"/>
      <point x="156" y="476"/>
      <point x="204" y="445"/>
      <point x="263" y="421"/>
      <point x="292" y="409" type="qcurve"/>
      <point x="373" y="374"/>
      <point x="449" y="294"/>
    </contour>
    <contour>
      <point x="233" y="356" type="line"/>
      <point x="213" y="364"/>
      <point x="176" y="381"/>
      <point x="160" y="389" type="qcurve"/>
      <point x="148" y="375"/>
      <point x="130" y="339"/>
      <point x="130" y="320" type="qcurve"/>
      <point x="130" y="300"/>
      <point x="148" y="268"/>
      <point x="184" y="238"/>
      <point x="240" y="206"/>
      <point x="279" y="186" type="qcurve"/>
      <point x="296" y="177"/>
      <point x="330" y="158"/>
      <point x="347" y="147" type="qcurve"/>
      <point x="360" y="164"/>
      <point x="375" y="208"/>
      <point x="375" y="227" type="qcurve"/>
      <point x="375" y="253"/>
      <point x="350" y="291"/>
      <point x="311" y="321"/>
      <point x="262" y="344"/>
      <point x="238" y="354" type="qcurve"/>
    </contour>
  </outline>
</glyph>
<glyph name="dieresis" format="1">
  <advance width="355"/>
  <unicode hex="00A8"/>
  <outline>
    <contour>
      <point x="52" y="528" type="qcurve" name="hr00"/>
      <point x="52" y="548"/>
      <point x="80" y="577"/>
      <point x="101" y="577" type="qcurve" name="mh01"/>
      <point x="121" y="577"/>
      <point x="151" y="548"/>
      <point x="151" y="528" type="qcurve"/>
      <point x="151" y="507"/>
      <point x="121" y="478"/>
      <point x="101" y="478" type="qcurve"/>
      <point x="80" y="478"/>
      <point x="52" y="507"/>
    </contour>
    <contour>
      <point x="204" y="528" type="qcurve"/>
      <point x="204" y="548"/>
      <point x="234" y="577"/>
      <point x="255" y="577" type="qcurve"/>
      <point x="275" y="577"/>
      <point x="303" y="548"/>
      <point x="303" y="528" type="qcurve"/>
      <point x="303" y="507"/>
      <point x="275" y="478"/>
      <point x="255" y="478" type="qcurve"/>
      <point x="234" y="478"/>
      <point x="204" y="507"/>
    </contour>
  </outline>
</glyph>
<glyph name="copyright" format="1">
  <advance width="728"/>
  <unicode hex="00A9"/>
  <outline>
    <contour>
      <point x="230" y="366" type="qcurve" name="mh01"/>
      <point x="230" y="303"/>
      <point x="304" y="226"/>
      <point x="370" y="226" type="qcurve"/>
      <point x="386" y="226"/>
      <point x="416" y="232"/>
      <point x="442" y="239"/>
      <point x="460" y="248"/>
      <point x="463" y="251" type="qcurve"/>
      <point x="478" y="198" type="line"/>
      <point x="462" y="188"/>
      <point x="407" y="168"/>
      <point x="366" y="168" type="qcurve"/>
      <point x="324" y="168"/>
      <point x="253" y="196"/>
      <point x="201" y="248"/>
      <point x="171" y="320"/>
      <point x="171" y="365" type="qcurve" name="mh02"/>
      <point x="171" y="412"/>
      <point x="201" y="489"/>
      <point x="254" y="543"/>
      <point x="327" y="572"/>
      <point x="370" y="572" type="qcurve"/>
      <point x="401" y="572"/>
      <point x="439" y="568"/>
      <point x="450" y="565" type="qcurve"/>
      <point x="460" y="456" type="line"/>
      <point x="420" y="456" type="line"/>
      <point x="407" y="512" type="line"/>
      <point x="402" y="513"/>
      <point x="374" y="514"/>
      <point x="368" y="514" type="qcurve"/>
      <point x="339" y="514"/>
      <point x="289" y="496"/>
      <point x="252" y="459"/>
      <point x="230" y="403"/>
    </contour>
    <contour>
      <point x="41" y="372" type="qcurve" name="mh03"/>
      <point x="41" y="439"/>
      <point x="89" y="556"/>
      <point x="175" y="644"/>
      <point x="293" y="695"/>
      <point x="364" y="695" type="qcurve" name="mh04"/>
      <point x="434" y="695"/>
      <point x="553" y="644"/>
      <point x="639" y="556"/>
      <point x="687" y="439"/>
      <point x="687" y="372" type="qcurve"/>
      <point x="687" y="305"/>
      <point x="639" y="188"/>
      <point x="553" y="100"/>
      <point x="434" y="49"/>
      <point x="364" y="49" type="qcurve"/>
      <point x="293" y="49"/>
      <point x="175" y="100"/>
      <point x="89" y="188"/>
      <point x="41" y="305"/>
    </contour>
    <contour>
      <point x="99" y="372" type="qcurve" name="mh05"/>
      <point x="99" y="315"/>
      <point x="139" y="217"/>
      <point x="209" y="147"/>
      <point x="307" y="107"/>
      <point x="364" y="107" type="qcurve"/>
      <point x="421" y="107"/>
      <point x="519" y="147"/>
      <point x="589" y="217"/>
      <point x="629" y="315"/>
      <point x="629" y="372" type="qcurve"/>
      <point x="629" y="429"/>
      <point x="589" y="527"/>
      <point x="519" y="597"/>
      <point x="421" y="637"/>
      <point x="364" y="637" type="qcurve" name="mh06"/>
      <point x="307" y="637"/>
      <point x="209" y="597"/>
      <point x="139" y="527"/>
      <point x="99" y="429"/>
    </contour>
  </outline>
</glyph>
<glyph name="ordfeminine" format="1">
  <advance width="297"/>
  <unicode hex="00AA"/>
  <outline>
    <contour>
      <point x="230" y="491" type="line" name="hr00"/>
      <point x="230" y="478"/>
      <point x="238" y="478" type="qcurve"/>
      <point x="241" y="478"/>
      <point x="248" y="481"/>
      <point x="250" y="481" type="qcurve"/>
      <point x="260" y="450" type="line"/>
      <point x="254" y="445"/>
      <point x="233" y="434"/>
      <point x="218" y="434" type="qcurve"/>
      <point x="204" y="434"/>
      <point x="189" y="443"/>
      <point x="184" y="451" type="qcurve"/>
      <point x="161" y="433"/>
      <point x="126" y="433" type="qcurve"/>
      <point x="111" y="433"/>
      <point x="82" y="442"/>
      <point x="58" y="460"/>
      <point x="43" y="486"/>
      <point x="43" y="504" type="qcurve"/>
      <point x="43" y="530"/>
      <point x="69" y="563"/>
      <point x="108" y="581"/>
      <point x="155" y="588"/>
      <point x="177" y="589" type="qcurve"/>
      <point x="177" y="611" type="line"/>
      <point x="177" y="615"/>
      <point x="175" y="628"/>
      <point x="167" y="640"/>
      <point x="150" y="649"/>
      <point x="136" y="649" type="qcurve"/>
      <point x="122" y="649"/>
      <point x="112" y="642" type="qcurve"/>
      <point x="105" y="613" type="line"/>
      <point x="43" y="622" type="line"/>
      <point x="46" y="641"/>
      <point x="65" y="667"/>
      <point x="91" y="683"/>
      <point x="120" y="691"/>
      <point x="134" y="691" type="qcurve" name="mh01"/>
      <point x="149" y="691"/>
      <point x="183" y="683"/>
      <point x="211" y="665"/>
      <point x="230" y="634"/>
      <point x="230" y="610" type="qcurve"/>
    </contour>
    <contour>
      <point x="99" y="505" type="qcurve"/>
      <point x="99" y="498"/>
      <point x="111" y="475"/>
      <point x="133" y="475" type="qcurve"/>
      <point x="151" y="475"/>
      <point x="171" y="491"/>
      <point x="176" y="501" type="qcurve"/>
      <point x="177" y="506" type="line"/>
      <point x="177" y="547" type="line"/>
      <point x="162" y="547"/>
      <point x="134" y="543"/>
      <point x="112" y="534"/>
      <point x="99" y="518"/>
    </contour>
  </outline>
</glyph>
<glyph name="guillemotleft" format="1">
  <advance width="454"/>
  <unicode hex="00AB"/>
  <outline>
    <contour>
      <point x="264" y="512" type="line" name="hr00"/>
      <point x="91" y="338" type="line"/>
      <point x="264" y="164" type="line"/>
      <point x="223" y="123" type="line"/>
      <point x="10" y="337" type="line"/>
      <point x="223" y="553" type="line"/>
    </contour>
    <contour>
      <point x="408" y="491" type="line"/>
      <point x="256" y="338" type="line"/>
      <point x="408" y="185" type="line"/>
      <point x="367" y="144" type="line"/>
      <point x="175" y="337" type="line"/>
      <point x="367" y="532" type="line"/>
    </contour>
  </outline>
</glyph>
<glyph name="registered" format="1">
  <advance width="728"/>
  <unicode hex="00AE"/>
  <outline>
    <contour>
      <point x="41" y="372" type="qcurve" name="hr00"/>
      <point x="41" y="439"/>
      <point x="89" y="556"/>
      <point x="175" y="644"/>
      <point x="293" y="695"/>
      <point x="364" y="695" type="qcurve"/>
      <point x="434" y="695"/>
      <point x="553" y="644"/>
      <point x="639" y="556"/>
      <point x="687" y="439"/>
      <point x="687" y="372" type="qcurve"/>
      <point x="687" y="305"/>
      <point x="639" y="188"/>
      <point x="553" y="100"/>
      <point x="434" y="49"/>
      <point x="364" y="49" type="qcurve"/>
      <point x="293" y="49"/>
      <point x="175" y="100"/>
      <point x="89" y="188"/>
      <point x="41" y="305"/>
    </contour>
    <contour>
      <point x="99" y="372" type="qcurve"/>
      <point x="99" y="315"/>
      <point x="139" y="217"/>
      <point x="209" y="147"/>
      <point x="307" y="107"/>
      <point x="364" y="107" type="qcurve"/>
      <point x="421" y="107"/>
      <point x="519" y="147"/>
      <point x="589" y="217"/>
      <point x="629" y="315"/>
      <point x="629" y="372" type="qcurve"/>
      <point x="629" y="429"/>
      <point x="589" y="527"/>
      <point x="519" y="597"/>
      <point x="421" y="637"/>
      <point x="364" y="637" type="qcurve"/>
      <point x="307" y="637"/>
      <point x="209" y="597"/>
      <point x="139" y="527"/>
      <point x="99" y="429"/>
    </contour>
    <contour>
      <point x="234" y="224" type="line"/>
      <point x="260" y="231" type="line"/>
      <point x="260" y="523" type="line"/>
      <point x="234" y="526" type="line"/>
      <point x="234" y="577" type="line"/>
      <point x="325" y="577" type="line"/>
      <point x="416" y="577"/>
      <point x="502" y="508"/>
      <point x="502" y="448" type="qcurve"/>
      <point x="502" y="407"/>
      <point x="456" y="350"/>
      <point x="417" y="336" type="qcurve"/>
      <point x="489" y="229" type="line"/>
      <point x="523" y="222" type="line"/>
      <point x="523" y="178" type="line"/>
      <point x="448" y="178" type="line"/>
      <point x="360" y="323" type="line"/>
      <point x="352" y="322"/>
      <point x="345" y="322" type="qcurve"/>
      <point x="318" y="322" type="line"/>
      <point x="318" y="232" type="line"/>
      <point x="369" y="222" type="line"/>
      <point x="369" y="178" type="line"/>
      <point x="238" y="178" type="line"/>
    </contour>
    <contour>
      <point x="334" y="380" type="line"/>
      <point x="439" y="380"/>
      <point x="439" y="448" type="qcurve"/>
      <point x="439" y="488"/>
      <point x="381" y="520"/>
      <point x="341" y="520" type="qcurve"/>
      <point x="318" y="520" type="line"/>
      <point x="318" y="380" type="line"/>
    </contour>
  </outline>
</glyph>
<glyph name="degree" format="1">
  <advance width="264"/>
  <unicode hex="00B0"/>
  <outline>
    <contour>
      <point x="38" y="630" type="qcurve" name="hr00"/>
      <point x="38" y="675"/>
      <point x="84" y="734"/>
      <point x="132" y="734" type="qcurve" name="mh01"/>
      <point x="180" y="734"/>
      <point x="226" y="675"/>
      <point x="226" y="630" type="qcurve"/>
      <point x="226" y="585"/>
      <point x="180" y="525"/>
      <point x="132" y="525" type="qcurve"/>
      <point x="84" y="525"/>
      <point x="38" y="585"/>
    </contour>
    <contour>
      <point x="91" y="630" type="qcurve"/>
      <point x="91" y="609"/>
      <point x="111" y="572"/>
      <point x="132" y="572" type="qcurve"/>
      <point x="153" y="572"/>
      <point x="174" y="609"/>
      <point x="174" y="630" type="qcurve"/>
      <point x="174" y="649"/>
      <point x="153" y="687"/>
      <point x="132" y="687" type="qcurve"/>
      <point x="111" y="687"/>
      <point x="91" y="649"/>
    </contour>
  </outline>
</glyph>
<glyph name="plusminus" format="1">
  <advance width="481"/>
  <unicode hex="00B1"/>
  <outline>
    <contour>
      <point x="271" y="560" type="line" name="hr00"/>
      <point x="271" y="449" type="line"/>
      <point x="409" y="449" type="line"/>
      <point x="409" y="386" type="line"/>
      <point x="271" y="386" type="line"/>
      <point x="271" y="273" type="line"/>
      <point x="216" y="273" type="line"/>
      <point x="208" y="286" type="line"/>
      <point x="208" y="386" type="line"/>
      <point x="70" y="386" type="line"/>
      <point x="70" y="434" type="line"/>
      <point x="83" y="449" type="line"/>
      <point x="208" y="449" type="line"/>
      <point x="208" y="560" type="line"/>
    </contour>
    <contour>
      <point x="409" y="169" type="line"/>
      <point x="70" y="169" type="line"/>
      <point x="70" y="227" type="line"/>
      <point x="78" y="239" type="line"/>
      <point x="409" y="239" type="line"/>
    </contour>
  </outline>
</glyph>
<glyph name="twosuperior" format="1">
  <advance width="265"/>
  <unicode hex="00B2"/>
  <outline>
    <contour>
      <point x="53" y="434" type="line" name="hr00"/>
      <point x="50" y="462" type="line"/>
      <point x="57" y="468"/>
      <point x="93" y="501"/>
      <point x="130" y="543"/>
      <point x="158" y="589"/>
      <point x="158" y="610" type="qcurve"/>
      <point x="158" y="644"/>
      <point x="125" y="644" type="qcurve"/>
      <point x="117" y="644"/>
      <point x="105" y="641"/>
      <point x="100" y="639" type="qcurve"/>
      <point x="99" y="639"/>
      <point x="97" y="631"/>
      <point x="89" y="608" type="qcurve"/>
      <point x="42" y="622" type="line"/>
      <point x="52" y="660"/>
      <point x="106" y="691"/>
      <point x="135" y="691" type="qcurve" name="mh01"/>
      <point x="165" y="691"/>
      <point x="211" y="652"/>
      <point x="211" y="615" type="qcurve"/>
      <point x="211" y="594"/>
      <point x="196" y="556"/>
      <point x="174" y="523"/>
      <point x="149" y="496"/>
      <point x="139" y="486" type="qcurve"/>
      <point x="129" y="476" type="line"/>
      <point x="175" y="476" type="line"/>
      <point x="189" y="508" type="line"/>
      <point x="220" y="508" type="line"/>
      <point x="209" y="434" type="line"/>
    </contour>
  </outline>
</glyph>
<glyph name="threesuperior" format="1">
  <advance width="264"/>
  <unicode hex="00B3"/>
  <outline>
    <contour>
      <point x="68" y="507" type="line" name="hr00"/>
      <point x="79" y="497"/>
      <point x="106" y="481"/>
      <point x="129" y="481" type="qcurve"/>
      <point x="153" y="481"/>
      <point x="172" y="502"/>
      <point x="172" y="512" type="qcurve"/>
      <point x="172" y="522"/>
      <point x="159" y="534"/>
      <point x="140" y="540"/>
      <point x="116" y="542"/>
      <point x="104" y="542" type="qcurve"/>
      <point x="104" y="586" type="line" name="mv01"/>
      <point x="159" y="586"/>
      <point x="159" y="618" type="qcurve"/>
      <point x="159" y="627"/>
      <point x="146" y="644"/>
      <point x="128" y="644" type="qcurve"/>
      <point x="111" y="644"/>
      <point x="104" y="638" type="qcurve"/>
      <point x="92" y="607" type="line"/>
      <point x="43" y="622" type="line" name="mv02"/>
      <point x="52" y="652"/>
      <point x="98" y="691"/>
      <point x="134" y="691" type="qcurve" name="mv03"/>
      <point x="147" y="691"/>
      <point x="175" y="682"/>
      <point x="196" y="664"/>
      <point x="210" y="640"/>
      <point x="210" y="625" type="qcurve" name="mh01"/>
      <point x="210" y="606"/>
      <point x="190" y="572"/>
      <point x="166" y="568" type="qcurve" name="hr01"/>
      <point x="193" y="563"/>
      <point x="225" y="534"/>
      <point x="225" y="508" type="qcurve" name="mh02"/>
      <point x="225" y="471"/>
      <point x="169" y="434"/>
      <point x="127" y="434" type="qcurve" name="mv04"/>
      <point x="96" y="434"/>
      <point x="53" y="455"/>
      <point x="39" y="468" type="qcurve"/>
    </contour>
  </outline>
</glyph>
<glyph name="mu" format="1">
  <advance width="513"/>
  <unicode hex="00B5"/>
  <unicode hex="03BC"/>
  <outline>
    <contour>
      <point x="302" y="415" type="line" name="hr00"/>
      <point x="295" y="463" type="line"/>
      <point x="395" y="482" type="line"/>
      <point x="419" y="453" type="line"/>
      <point x="419" y="73" type="line"/>
      <point x="419" y="60"/>
      <point x="434" y="51"/>
      <point x="442" y="51" type="qcurve"/>
      <point x="448" y="51"/>
      <point x="458" y="54"/>
      <point x="460" y="54" type="qcurve"/>
      <point x="468" y="19" type="line"/>
      <point x="462" y="12"/>
      <point x="433" y="-4"/>
      <point x="412" y="-4" type="qcurve"/>
      <point x="371" y="-4"/>
      <point x="360" y="36" type="qcurve"/>
      <point x="340" y="18"/>
      <point x="284" y="-4"/>
      <point x="247" y="-4" type="qcurve"/>
      <point x="197" y="-4"/>
      <point x="157" y="25" type="qcurve"/>
      <point x="156" y="18"/>
      <point x="156" y="11" type="qcurve"/>
      <point x="156" y="-4" type="line"/>
      <point x="156" y="-19"/>
      <point x="157" y="-47"/>
      <point x="157" y="-58" type="qcurve"/>
      <point x="157" y="-274" type="line"/>
      <point x="94" y="-274" type="line"/>
      <point x="94" y="415" type="line"/>
      <point x="40" y="415" type="line"/>
      <point x="31" y="463" type="line"/>
      <point x="130" y="481" type="line"/>
      <point x="157" y="449" type="line"/>
      <point x="157" y="146" type="line"/>
      <point x="157" y="113"/>
      <point x="183" y="76"/>
      <point x="218" y="58"/>
      <point x="251" y="54"/>
      <point x="259" y="54" type="qcurve"/>
      <point x="285" y="54"/>
      <point x="342" y="78"/>
      <point x="356" y="100" type="qcurve"/>
      <point x="356" y="415" type="line"/>
    </contour>
  </outline>
</glyph>
<glyph name="paragraph" format="1">
  <advance width="523"/>
  <unicode hex="00B6"/>
  <outline>
    <contour>
      <point x="31" y="500" type="qcurve" name="hr00"/>
      <point x="31" y="532"/>
      <point x="54" y="600"/>
      <point x="105" y="655"/>
      <point x="189" y="691"/>
      <point x="250" y="691" type="qcurve" name="mh01"/>
      <point x="462" y="691" type="line"/>
      <point x="462" y="632" type="line"/>
      <point x="420" y="632" type="line"/>
      <point x="420" y="0" type="line"/>
      <point x="363" y="0" type="line"/>
      <point x="363" y="632" type="line"/>
      <point x="331" y="632" type="line"/>
      <point x="331" y="125" type="line"/>
      <point x="331" y="107"/>
      <point x="329" y="82"/>
      <point x="324" y="77" type="qcurve"/>
      <point x="309" y="60"/>
      <point x="261" y="11"/>
      <point x="241" y="-8" type="qcurve"/>
      <point x="188" y="66" type="line"/>
      <point x="263" y="109" type="line" name="hr01"/>
      <point x="263" y="299" type="line"/>
      <point x="209" y="300"/>
      <point x="123" y="331"/>
      <point x="63" y="384"/>
      <point x="31" y="457"/>
    </contour>
  </outline>
</glyph>
<glyph name="cedilla" format="1">
  <advance width="398"/>
  <unicode hex="00B8"/>
  <outline>
    <contour>
      <point x="155" y="-106" type="line" name="hr00"/>
      <point x="137" y="-87" type="line"/>
      <point x="175" y="15" type="line" name="ah01"/>
      <point x="243" y="15" type="line"/>
      <point x="221" y="-49" type="line"/>
      <point x="240" y="-51"/>
      <point x="277" y="-66"/>
      <point x="307" y="-93"/>
      <point x="326" y="-132"/>
      <point x="326" y="-158" type="qcurve"/>
      <point x="326" y="-209"/>
      <point x="257" y="-273"/>
      <point x="187" y="-273" type="qcurve"/>
      <point x="150" y="-273"/>
      <point x="97" y="-255"/>
      <point x="72" y="-246" type="qcurve"/>
      <point x="115" y="-164" type="line"/>
      <point x="189" y="-210" type="line"/>
      <point x="216" y="-210"/>
      <point x="252" y="-183"/>
      <point x="252" y="-160" type="qcurve"/>
      <point x="252" y="-141"/>
      <point x="213" y="-106"/>
      <point x="164" y="-106" type="qcurve"/>
    </contour>
  </outline>
</glyph>
<glyph name="ordmasculine" format="1">
  <advance width="296"/>
  <unicode hex="00BA"/>
  <outline>
    <contour>
      <point x="39" y="563" type="qcurve" name="hr00"/>
      <point x="39" y="596"/>
      <point x="56" y="645"/>
      <point x="86" y="676"/>
      <point x="125" y="692"/>
      <point x="147" y="692" type="qcurve" name="mh01"/>
      <point x="193" y="692"/>
      <point x="257" y="629"/>
      <point x="257" y="563" type="qcurve"/>
      <point x="257" y="497"/>
      <point x="193" y="433"/>
      <point x="147" y="433" type="qcurve"/>
      <point x="102" y="433"/>
      <point x="39" y="497"/>
    </contour>
    <contour>
      <point x="95" y="561" type="qcurve"/>
      <point x="95" y="526"/>
      <point x="122" y="484"/>
      <point x="147" y="484" type="qcurve"/>
      <point x="174" y="484"/>
      <point x="201" y="526"/>
      <point x="201" y="561" type="qcurve"/>
      <point x="201" y="595"/>
      <point x="174" y="640"/>
      <point x="147" y="640" type="qcurve" name="mh02"/>
      <point x="122" y="640"/>
      <point x="95" y="595"/>
    </contour>
  </outline>
</glyph>
<glyph name="guillemotright" format="1">
  <advance width="455"/>
  <unicode hex="00BB"/>
  <outline>
    <contour>
      <point x="190" y="164" type="line" name="hr00"/>
      <point x="363" y="338" type="line"/>
      <point x="190" y="512" type="line"/>
      <point x="231" y="553" type="line"/>
      <point x="444" y="339" type="line"/>
      <point x="231" y="123" type="line"/>
    </contour>
    <contour>
      <point x="46" y="185" type="line"/>
      <point x="198" y="338" type="line"/>
      <point x="46" y="491" type="line"/>
      <point x="87" y="532" type="line"/>
      <point x="279" y="339" type="line"/>
      <point x="87" y="144" type="line"/>
    </contour>
  </outline>
</glyph>
<glyph name="onequarter" format="1">
  <advance width="598"/>
  <unicode hex="00BC"/>
  <outline>
    <contour>
      <point x="380" y="37" type="line" name="hr00"/>
      <point x="464" y="48" type="line"/>
      <point x="464" y="117" type="line"/>
      <point x="317" y="117" type="line" name="mv01"/>
      <point x="317" y="181" type="line" name="av01"/>
      <point x="464" y="376" type="line" name="mv02"/>
      <point x="517" y="376" type="line" name="mv03"/>
      <point x="517" y="164" type="line"/>
      <point x="566" y="164" type="line"/>
      <point x="566" y="117" type="line"/>
      <point x="517" y="117" type="line"/>
      <point x="517" y="47" type="line"/>
      <point x="553" y="41" type="line"/>
      <point x="553" y="0" type="line"/>
      <point x="382" y="0" type="line"/>
    </contour>
    <contour>
      <point x="127" y="-21" type="line" name="hr01"/>
      <point x="79" y="-21" type="line"/>
      <point x="76" y="-8" type="line" name="ab01"/>
      <point x="425" y="691" type="line" name="mv04"/>
      <point x="477" y="691" type="line" name="mv05"/>
      <point x="476" y="677" type="line" name="mv06"/>
    </contour>
    <contour>
      <point x="51" y="350" type="line"/>
      <point x="94" y="357" type="line"/>
      <point x="94" y="635" type="line"/>
      <point x="44" y="629" type="line"/>
      <point x="36" y="664" type="line"/>
      <point x="139" y="693" type="line" name="mv07"/>
      <point x="148" y="688" type="line"/>
      <point x="148" y="360" type="line"/>
      <point x="183" y="352" type="line" name="hr02"/>
      <point x="183" y="315" type="line" name="hr03"/>
      <point x="54" y="315" type="line"/>
    </contour>
    <contour>
      <point x="464" y="164" type="line" name="hr04"/>
      <point x="464" y="300" type="line" name="hr05"/>
      <point x="361" y="164" type="line" name="mv08"/>
    </contour>
  </outline>
</glyph>
<glyph name="onehalf" format="1">
  <advance width="625"/>
  <unicode hex="00BD"/>
  <outline>
    <contour>
      <point x="344" y="0" type="line" name="hr00"/>
      <point x="339" y="31" type="line"/>
      <point x="346" y="39"/>
      <point x="380" y="69"/>
      <point x="422" y="109"/>
      <point x="467" y="155"/>
      <point x="505" y="202"/>
      <point x="529" y="249"/>
      <point x="529" y="269" type="qcurve"/>
      <point x="529" y="292"/>
      <point x="513" y="319"/>
      <point x="491" y="333"/>
      <point x="468" y="337"/>
      <point x="461" y="337" type="qcurve"/>
      <point x="447" y="337"/>
      <point x="423" y="330"/>
      <point x="416" y="327" type="qcurve"/>
      <point x="387" y="267" type="line"/>
      <point x="333" y="301" type="line"/>
      <point x="351" y="332"/>
      <point x="418" y="379"/>
      <point x="463" y="379" type="qcurve" name="mv01"/>
      <point x="513" y="379"/>
      <point x="581" y="325"/>
      <point x="581" y="269" type="qcurve"/>
      <point x="581" y="234"/>
      <point x="542" y="165"/>
      <point x="489" y="104"/>
      <point x="436" y="56"/>
      <point x="422" y="42" type="qcurve"/>
      <point x="533" y="42" type="line"/>
      <point x="552" y="93" type="line"/>
      <point x="590" y="93" type="line"/>
      <point x="578" y="0" type="line"/>
    </contour>
    <contour>
      <point x="50" y="350" type="line"/>
      <point x="93" y="357" type="line"/>
      <point x="93" y="635" type="line"/>
      <point x="43" y="629" type="line"/>
      <point x="35" y="664" type="line"/>
      <point x="138" y="693" type="line" name="mv02"/>
      <point x="147" y="688" type="line"/>
      <point x="147" y="360" type="line"/>
      <point x="182" y="352" type="line"/>
      <point x="182" y="315" type="line"/>
      <point x="53" y="315" type="line"/>
    </contour>
    <contour>
      <point x="125" y="-21" type="line"/>
      <point x="77" y="-21" type="line"/>
      <point x="74" y="-8" type="line"/>
      <point x="423" y="691" type="line" name="mv03"/>
      <point x="475" y="691" type="line" name="mv04"/>
      <point x="474" y="677" type="line"/>
    </contour>
  </outline>
</glyph>
<glyph name="threequarters" format="1">
  <advance width="654"/>
  <unicode hex="00BE"/>
  <outline>
    <contour>
      <point x="436" y="37" type="line" name="hr00"/>
      <point x="520" y="48" type="line"/>
      <point x="520" y="117" type="line"/>
      <point x="373" y="117" type="line"/>
      <point x="373" y="181" type="line"/>
      <point x="520" y="376" type="line"/>
      <point x="573" y="376" type="line"/>
      <point x="573" y="164" type="line"/>
      <point x="622" y="164" type="line"/>
      <point x="622" y="117" type="line"/>
      <point x="573" y="117" type="line"/>
      <point x="573" y="47" type="line"/>
      <point x="609" y="41" type="line"/>
      <point x="609" y="0" type="line"/>
      <point x="438" y="0" type="line"/>
    </contour>
    <contour>
      <point x="182" y="-21" type="line"/>
      <point x="134" y="-21" type="line"/>
      <point x="130" y="-8" type="line"/>
      <point x="480" y="691" type="line"/>
      <point x="532" y="691" type="line"/>
      <point x="530" y="677" type="line"/>
    </contour>
    <contour>
      <point x="62" y="379" type="line"/>
      <point x="77" y="365"/>
      <point x="118" y="346"/>
      <point x="144" y="346" type="qcurve"/>
      <point x="157" y="346"/>
      <point x="186" y="354"/>
      <point x="210" y="370"/>
      <point x="225" y="395"/>
      <point x="225" y="413" type="qcurve"/>
      <point x="225" y="448"/>
      <point x="168" y="484"/>
      <point x="105" y="484" type="qcurve"/>
      <point x="105" y="526" type="line"/>
      <point x="127" y="526"/>
      <point x="169" y="528"/>
      <point x="202" y="541"/>
      <point x="222" y="567"/>
      <point x="222" y="591" type="qcurve"/>
      <point x="222" y="605"/>
      <point x="207" y="626"/>
      <point x="186" y="640"/>
      <point x="163" y="647"/>
      <point x="154" y="647" type="qcurve"/>
      <point x="134" y="647"/>
      <point x="123" y="642" type="qcurve"/>
      <point x="106" y="635" type="line"/>
      <point x="79" y="589" type="line"/>
      <point x="35" y="617" type="line"/>
      <point x="41" y="629"/>
      <point x="61" y="654"/>
      <point x="91" y="675"/>
      <point x="132" y="689"/>
      <point x="159" y="689" type="qcurve"/>
      <point x="180" y="689"/>
      <point x="220" y="677"/>
      <point x="250" y="652"/>
      <point x="269" y="615"/>
      <point x="269" y="590" type="qcurve"/>
      <point x="269" y="560"/>
      <point x="233" y="508"/>
      <point x="198" y="503" type="qcurve"/>
      <point x="238" y="497"/>
      <point x="275" y="444"/>
      <point x="275" y="416" type="qcurve"/>
      <point x="275" y="389"/>
      <point x="252" y="347"/>
      <point x="214" y="319"/>
      <point x="167" y="304"/>
      <point x="143" y="304" type="qcurve"/>
      <point x="110" y="304"/>
      <point x="55" y="321"/>
      <point x="34" y="336" type="qcurve"/>
    </contour>
    <contour>
      <point x="520" y="164" type="line"/>
      <point x="520" y="300" type="line"/>
      <point x="417" y="164" type="line"/>
    </contour>
  </outline>
</glyph>
<glyph name="questiondown" format="1">
  <advance width="383"/>
  <unicode hex="00BF"/>
  <outline>
    <contour>
      <point x="286" y="243" type="line" name="hr00"/>
      <point x="289" y="232"/>
      <point x="289" y="214" type="qcurve"/>
      <point x="289" y="177"/>
      <point x="261" y="128"/>
      <point x="219" y="90"/>
      <point x="170" y="59"/>
      <point x="128" y="22"/>
      <point x="100" y="-27"/>
      <point x="100" y="-63" type="qcurve"/>
      <point x="100" y="-77"/>
      <point x="109" y="-107"/>
      <point x="132" y="-131"/>
      <point x="169" y="-147"/>
      <point x="198" y="-147" type="qcurve"/>
      <point x="214" y="-147"/>
      <point x="252" y="-142"/>
      <point x="265" y="-139" type="qcurve"/>
      <point x="293" y="-42" type="line"/>
      <point x="343" y="-42" type="line"/>
      <point x="324" y="-189" type="line"/>
      <point x="312" y="-193"/>
      <point x="280" y="-200"/>
      <point x="244" y="-205"/>
      <point x="209" y="-208"/>
      <point x="195" y="-208" type="qcurve"/>
      <point x="107" y="-208"/>
      <point x="26" y="-128"/>
      <point x="26" y="-67" type="qcurve"/>
      <point x="26" y="-30"/>
      <point x="50" y="26"/>
      <point x="92" y="73"/>
      <point x="147" y="113"/>
      <point x="177" y="134" type="qcurve"/>
      <point x="194" y="146"/>
      <point x="215" y="171"/>
      <point x="226" y="196"/>
      <point x="230" y="220"/>
      <point x="230" y="229" type="qcurve"/>
      <point x="230" y="233"/>
      <point x="229" y="239" name="mh01"/>
      <point x="229" y="241" type="qcurve"/>
    </contour>
    <contour>
      <point x="303" y="430" type="qcurve"/>
      <point x="303" y="409"/>
      <point x="273" y="379"/>
      <point x="251" y="379" type="qcurve"/>
      <point x="230" y="379"/>
      <point x="199" y="409"/>
      <point x="199" y="430" type="qcurve"/>
      <point x="199" y="453"/>
      <point x="230" y="483"/>
      <point x="251" y="483" type="qcurve" name="mh02"/>
      <point x="273" y="483"/>
      <point x="303" y="453"/>
    </contour>
  </outline>
</glyph>
<glyph name="Atilde" format="1">
  <advance width="570"/>
  <unicode hex="00C3"/>
  <outline>
    <contour>
      <point x="429" y="836" type="line" name="hr00"/>
      <point x="466" y="770" type="line"/>
      <point x="458" y="763"/>
      <point x="438" y="748"/>
      <point x="415" y="735"/>
      <point x="392" y="727"/>
      <point x="382" y="727" type="qcurve" name="mh01"/>
      <point x="359" y="727"/>
      <point x="327" y="743"/>
      <point x="297" y="762"/>
      <point x="265" y="778"/>
      <point x="243" y="778" type="qcurve" name="mh02"/>
      <point x="211" y="778"/>
      <point x="179" y="747"/>
      <point x="168" y="729" type="qcurve"/>
      <point x="131" y="760" type="line"/>
      <point x="131" y="776" type="line"/>
      <point x="134" y="782"/>
      <point x="149" y="804"/>
      <point x="176" y="826"/>
      <point x="216" y="842"/>
      <point x="245" y="842" type="qcurve" name="mh03"/>
      <point x="282" y="842"/>
      <point x="335" y="808"/>
      <point x="367" y="786" type="qcurve" name="mh04"/>
    </contour>
    <contour>
      <point x="364" y="0" type="line"/>
      <point x="364" y="44" type="line"/>
      <point x="445" y="65" type="line"/>
      <point x="392" y="241" type="line"/>
      <point x="169" y="241" type="line"/>
      <point x="117" y="62" type="line"/>
      <point x="205" y="45" type="line"/>
      <point x="205" y="0" type="line"/>
      <point x="11" y="0" type="line"/>
      <point x="-2" y="47" type="line"/>
      <point x="52" y="65" type="line"/>
      <point x="243" y="691" type="line" name="mh05"/>
      <point x="327" y="691" type="line" name="mh06"/>
      <point x="519" y="65" type="line"/>
      <point x="566" y="47" type="line"/>
      <point x="555" y="0" type="line"/>
    </contour>
    <contour>
      <point x="279" y="616" type="line"/>
      <point x="188" y="304" type="line"/>
      <point x="373" y="304" type="line"/>
    </contour>
  </outline>
</glyph>
<glyph name="Adieresis" format="1">
  <advance width="570"/>
  <unicode hex="00C4"/>
  <outline>
    <contour>
      <point x="364" y="0" type="line" name="hr00"/>
      <point x="364" y="44" type="line"/>
      <point x="445" y="65" type="line"/>
      <point x="392" y="241" type="line"/>
      <point x="169" y="241" type="line"/>
      <point x="117" y="62" type="line"/>
      <point x="205" y="45" type="line"/>
      <point x="205" y="0" type="line"/>
      <point x="11" y="0" type="line"/>
      <point x="-2" y="47" type="line"/>
      <point x="52" y="65" type="line"/>
      <point x="243" y="691" type="line" name="mh01"/>
      <point x="327" y="691" type="line" name="mh02"/>
      <point x="519" y="65" type="line"/>
      <point x="566" y="47" type="line"/>
      <point x="555" y="0" type="line"/>
    </contour>
    <contour>
      <point x="279" y="616" type="line" name="mh03"/>
      <point x="188" y="304" type="line"/>
      <point x="373" y="304" type="line"/>
    </contour>
    <contour>
      <point x="127" y="772" type="qcurve"/>
      <point x="127" y="796"/>
      <point x="160" y="829"/>
      <point x="184" y="829" type="qcurve" name="mh04"/>
      <point x="207" y="829"/>
      <point x="242" y="796"/>
      <point x="242" y="772" type="qcurve"/>
      <point x="242" y="748"/>
      <point x="207" y="714"/>
      <point x="184" y="714" type="qcurve"/>
      <point x="160" y="714"/>
      <point x="127" y="748"/>
    </contour>
    <contour>
      <point x="303" y="772" type="qcurve"/>
      <point x="303" y="796"/>
      <point x="338" y="829"/>
      <point x="363" y="829" type="qcurve" name="mh05"/>
      <point x="386" y="829"/>
      <point x="418" y="796"/>
      <point x="418" y="772" type="qcurve"/>
      <point x="418" y="748"/>
      <point x="386" y="714"/>
      <point x="363" y="714" type="qcurve"/>
      <point x="338" y="714"/>
      <point x="303" y="748"/>
    </contour>
  </outline>
</glyph>
<glyph name="Aring" format="1">
  <advance width="567"/>
  <unicode hex="00C5"/>
  <outline>
    <contour>
      <point x="363" y="0" type="line" name="hr00"/>
      <point x="363" y="44" type="line"/>
      <point x="444" y="65" type="line"/>
      <point x="391" y="241" type="line"/>
      <point x="168" y="241" type="line"/>
      <point x="116" y="62" type="line"/>
      <point x="204" y="45" type="line"/>
      <point x="204" y="0" type="line"/>
      <point x="10" y="0" type="line"/>
      <point x="-3" y="47" type="line"/>
      <point x="51" y="65" type="line"/>
      <point x="235" y="670" type="line"/>
      <point x="215" y="682"/>
      <point x="191" y="725"/>
      <point x="191" y="751" type="qcurve"/>
      <point x="191" y="770"/>
      <point x="206" y="805"/>
      <point x="231" y="830"/>
      <point x="266" y="845"/>
      <point x="286" y="845" type="qcurve" name="mh01"/>
      <point x="305" y="845"/>
      <point x="340" y="830"/>
      <point x="365" y="805"/>
      <point x="380" y="770"/>
      <point x="380" y="751" type="qcurve"/>
      <point x="380" y="724"/>
      <point x="354" y="681"/>
      <point x="333" y="668" type="qcurve"/>
      <point x="518" y="65" type="line"/>
      <point x="565" y="47" type="line"/>
      <point x="554" y="0" type="line"/>
    </contour>
    <contour>
      <point x="278" y="616" type="line" name="mh02"/>
      <point x="187" y="304" type="line"/>
      <point x="372" y="304" type="line"/>
    </contour>
    <contour>
      <point x="248" y="751" type="qcurve"/>
      <point x="248" y="734"/>
      <point x="269" y="713"/>
      <point x="286" y="713" type="qcurve"/>
      <point x="303" y="713"/>
      <point x="323" y="734"/>
      <point x="323" y="751" type="qcurve"/>
      <point x="323" y="768"/>
      <point x="303" y="789"/>
      <point x="286" y="789" type="qcurve" name="mh03"/>
      <point x="269" y="789"/>
      <point x="248" y="768"/>
    </contour>
  </outline>
</glyph>
<glyph name="Ccedilla" format="1">
  <advance width="559"/>
  <unicode hex="00C7"/>
  <outline>
    <contour>
      <point x="293" y="-90" type="line" name="hr00"/>
      <point x="278" y="-74" type="line"/>
      <point x="306" y="2" type="line"/>
      <point x="245" y="13"/>
      <point x="148" y="73"/>
      <point x="79" y="163"/>
      <point x="42" y="279"/>
      <point x="42" y="346" type="qcurve"/>
      <point x="42" y="416"/>
      <point x="91" y="542"/>
      <point x="179" y="636"/>
      <point x="302" y="691"/>
      <point x="377" y="691" type="qcurve"/>
      <point x="409" y="691"/>
      <point x="465" y="684"/>
      <point x="494" y="678" type="qcurve"/>
      <point x="512" y="520" type="line"/>
      <point x="455" y="520" type="line"/>
      <point x="431" y="618" type="line"/>
      <point x="423" y="619"/>
      <point x="404" y="623"/>
      <point x="379" y="623" type="qcurve"/>
      <point x="316" y="623"/>
      <point x="218" y="577"/>
      <point x="149" y="501"/>
      <point x="113" y="402"/>
      <point x="113" y="348" type="qcurve"/>
      <point x="113" y="289"/>
      <point x="148" y="186"/>
      <point x="216" y="109"/>
      <point x="312" y="64"/>
      <point x="374" y="64" type="qcurve"/>
      <point x="408" y="64"/>
      <point x="477" y="83"/>
      <point x="502" y="99" type="qcurve"/>
      <point x="527" y="38" type="line"/>
      <point x="501" y="20"/>
      <point x="417" y="-4"/>
      <point x="375" y="-4" type="qcurve"/>
      <point x="372" y="-4"/>
      <point x="366" y="-3"/>
      <point x="363" y="-3" type="qcurve"/>
      <point x="351" y="-41" type="line"/>
      <point x="367" y="-43"/>
      <point x="400" y="-55"/>
      <point x="427" y="-79"/>
      <point x="443" y="-113"/>
      <point x="443" y="-136" type="qcurve"/>
      <point x="443" y="-180"/>
      <point x="383" y="-236"/>
      <point x="321" y="-236" type="qcurve"/>
      <point x="293" y="-236"/>
      <point x="252" y="-224"/>
      <point x="233" y="-216" type="qcurve"/>
      <point x="221" y="-212" type="line"/>
      <point x="258" y="-141" type="line"/>
      <point x="323" y="-181" type="line"/>
      <point x="347" y="-181"/>
      <point x="378" y="-157"/>
      <point x="378" y="-137" type="qcurve"/>
      <point x="378" y="-121"/>
      <point x="344" y="-90"/>
      <point x="301" y="-90" type="qcurve"/>
    </contour>
  </outline>
</glyph>
<glyph name="Ecircumflex" format="1">
  <advance width="523"/>
  <unicode hex="00CA"/>
  <outline>
    <contour>
      <point x="251" y="884" type="line" name="ah02"/>
      <point x="267" y="884" type="line"/>
      <point x="408" y="727" type="line"/>
      <point x="334" y="727" type="line"/>
      <point x="258" y="790" type="line"/>
      <point x="183" y="727" type="line"/>
      <point x="109" y="727" type="line"/>
    </contour>
    <contour>
      <point x="55" y="632" type="line"/>
      <point x="55" y="691" type="line" name="ah01"/>
      <point x="453" y="691" type="line"/>
      <point x="473" y="520" type="line" name="hr01"/>
      <point x="425" y="520" type="line"/>
      <point x="391" y="623" type="line" name="hr02"/>
      <point x="181" y="623" type="line"/>
      <point x="181" y="377" type="line"/>
      <point x="343" y="377" type="line"/>
      <point x="343" y="314" type="line"/>
      <point x="181" y="314" type="line" name="hr03"/>
      <point x="181" y="68" type="line"/>
      <point x="401" y="68" type="line"/>
      <point x="436" y="171" type="line" name="hr04"/>
      <point x="483" y="171" type="line"/>
      <point x="464" y="0" type="line"/>
      <point x="62" y="0" type="line"/>
      <point x="55" y="56" type="line"/>
      <point x="112" y="68" type="line"/>
      <point x="112" y="627" type="line"/>
    </contour>
  </outline>
</glyph>
<glyph name="Edieresis" format="1">
  <advance width="523"/>
  <unicode hex="00CB"/>
  <outline>
    <contour>
      <point x="55" y="632" type="line" name="hr00"/>
      <point x="55" y="691" type="line" name="ah01"/>
      <point x="453" y="691" type="line"/>
      <point x="473" y="520" type="line"/>
      <point x="425" y="520" type="line"/>
      <point x="391" y="623" type="line"/>
      <point x="181" y="623" type="line"/>
      <point x="181" y="377" type="line"/>
      <point x="343" y="377" type="line"/>
      <point x="343" y="314" type="line"/>
      <point x="181" y="314" type="line"/>
      <point x="181" y="68" type="line"/>
      <point x="401" y="68" type="line"/>
      <point x="436" y="171" type="line"/>
      <point x="483" y="171" type="line"/>
      <point x="464" y="0" type="line"/>
      <point x="62" y="0" type="line"/>
      <point x="55" y="56" type="line"/>
      <point x="112" y="68" type="line" name="hr01"/>
      <point x="112" y="627" type="line"/>
    </contour>
    <contour>
      <point x="119" y="793" type="qcurve" name="hr02"/>
      <point x="119" y="817"/>
      <point x="152" y="850"/>
      <point x="176" y="850" type="qcurve" name="ah02"/>
      <point x="199" y="850"/>
      <point x="234" y="817"/>
      <point x="234" y="793" type="qcurve"/>
      <point x="234" y="769"/>
      <point x="199" y="735"/>
      <point x="176" y="735" type="qcurve"/>
      <point x="152" y="735"/>
      <point x="119" y="769"/>
    </contour>
    <contour>
      <point x="295" y="793" type="qcurve"/>
      <point x="295" y="817"/>
      <point x="330" y="850"/>
      <point x="355" y="850" type="qcurve"/>
      <point x="378" y="850"/>
      <point x="410" y="817"/>
      <point x="410" y="793" type="qcurve" name="hr03"/>
      <point x="410" y="769"/>
      <point x="378" y="735"/>
      <point x="355" y="735" type="qcurve"/>
      <point x="330" y="735"/>
      <point x="295" y="769"/>
    </contour>
  </outline>
</glyph>
<glyph name="Idieresis" format="1">
  <advance width="293"/>
  <unicode hex="00CF"/>
  <outline>
    <contour>
      <point x="20" y="793" type="qcurve" name="hr01"/>
      <point x="20" y="816"/>
      <point x="52" y="850"/>
      <point x="76" y="850" type="qcurve" name="ah02"/>
      <point x="100" y="850"/>
      <point x="134" y="816"/>
      <point x="134" y="793" type="qcurve"/>
      <point x="134" y="769"/>
      <point x="100" y="735"/>
      <point x="76" y="735" type="qcurve"/>
      <point x="52" y="735"/>
      <point x="20" y="769"/>
    </contour>
    <contour>
      <point x="165" y="793" type="qcurve"/>
      <point x="165" y="816"/>
      <point x="199" y="850"/>
      <point x="223" y="850" type="qcurve"/>
      <point x="247" y="850"/>
      <point x="279" y="816"/>
      <point x="279" y="793" type="qcurve"/>
      <point x="279" y="769"/>
      <point x="247" y="735"/>
      <point x="223" y="735" type="qcurve"/>
      <point x="199" y="735"/>
      <point x="165" y="769"/>
    </contour>
    <contour>
      <point x="112" y="64" type="line"/>
      <point x="112" y="627" type="line"/>
      <point x="55" y="631" type="line"/>
      <point x="55" y="691" type="line" name="ah01"/>
      <point x="231" y="691" type="line"/>
      <point x="235" y="635" type="line"/>
      <point x="181" y="627" type="line"/>
      <point x="181" y="64" type="line"/>
      <point x="238" y="60" type="line"/>
      <point x="238" y="0" type="line"/>
      <point x="62" y="0" type="line"/>
      <point x="58" y="56" type="line"/>
    </contour>
  </outline>
</glyph>
<glyph name="Eth" format="1">
  <advance width="606"/>
  <unicode hex="00D0"/>
  <outline>
    <contour>
      <point x="56" y="56" type="line" name="hr00"/>
      <point x="113" y="69" type="line"/>
      <point x="113" y="314" type="line"/>
      <point x="23" y="314" type="line"/>
      <point x="23" y="369" type="line"/>
      <point x="30" y="377" type="line"/>
      <point x="113" y="377" type="line"/>
      <point x="113" y="627" type="line"/>
      <point x="56" y="632" type="line"/>
      <point x="56" y="691" type="line"/>
      <point x="199" y="691" type="line"/>
      <point x="276" y="691"/>
      <point x="409" y="650"/>
      <point x="506" y="565"/>
      <point x="562" y="436"/>
      <point x="562" y="349" type="qcurve"/>
      <point x="562" y="260"/>
      <point x="513" y="129"/>
      <point x="421" y="42"/>
      <point x="292" y="0"/>
      <point x="212" y="0" type="qcurve"/>
      <point x="63" y="0" type="line"/>
    </contour>
    <contour>
      <point x="491" y="348" type="qcurve"/>
      <point x="491" y="409"/>
      <point x="453" y="510"/>
      <point x="381" y="583"/>
      <point x="276" y="623"/>
      <point x="209" y="623" type="qcurve"/>
      <point x="182" y="623" type="line"/>
      <point x="182" y="377" type="line"/>
      <point x="350" y="377" type="line"/>
      <point x="357" y="377"/>
      <point x="357" y="370" type="qcurve"/>
      <point x="357" y="314" type="line"/>
      <point x="182" y="314" type="line"/>
      <point x="182" y="68" type="line"/>
      <point x="226" y="68" type="line"/>
      <point x="305" y="68"/>
      <point x="407" y="117"/>
      <point x="467" y="196"/>
      <point x="491" y="297"/>
    </contour>
  </outline>
</glyph>
<glyph name="Ntilde" format="1">
  <advance width="659"/>
  <unicode hex="00D1"/>
  <outline>
    <contour>
      <point x="467" y="836" type="line" name="hr00"/>
      <point x="504" y="770" type="line"/>
      <point x="496" y="763"/>
      <point x="476" y="748"/>
      <point x="453" y="735"/>
      <point x="430" y="727" name="mh01"/>
      <point x="420" y="727" type="qcurve"/>
      <point x="397" y="727"/>
      <point x="365" y="743"/>
      <point x="335" y="762"/>
      <point x="303" y="778"/>
      <point x="281" y="778" type="qcurve" name="mh02"/>
      <point x="249" y="778"/>
      <point x="217" y="747"/>
      <point x="206" y="729" type="qcurve"/>
      <point x="169" y="760" type="line"/>
      <point x="169" y="776" type="line"/>
      <point x="172" y="782"/>
      <point x="187" y="804"/>
      <point x="214" y="826"/>
      <point x="254" y="842"/>
      <point x="283" y="842" type="qcurve" name="mh03"/>
      <point x="320" y="842"/>
      <point x="373" y="808"/>
      <point x="405" y="786" type="qcurve" name="mh04"/>
    </contour>
    <contour>
      <point x="174" y="629" type="line"/>
      <point x="174" y="66" type="line"/>
      <point x="241" y="56" type="line"/>
      <point x="241" y="0" type="line"/>
      <point x="62" y="0" type="line"/>
      <point x="54" y="56" type="line"/>
      <point x="112" y="68" type="line"/>
      <point x="112" y="627" type="line"/>
      <point x="54" y="632" type="line"/>
      <point x="54" y="691" type="line" name="mh05"/>
      <point x="221" y="691" type="line"/>
      <point x="491" y="75" type="line"/>
      <point x="491" y="625" type="line"/>
      <point x="427" y="635" type="line"/>
      <point x="427" y="691" type="line"/>
      <point x="605" y="691" type="line"/>
      <point x="615" y="635" type="line"/>
      <point x="554" y="623" type="line"/>
      <point x="554" y="0" type="line"/>
      <point x="449" y="0" type="line"/>
    </contour>
  </outline>
</glyph>
<glyph name="Ograve" format="1">
  <advance width="645"/>
  <unicode hex="00D2"/>
  <outline>
    <contour>
      <point x="415" y="717" type="line" name="hr00"/>
      <point x="212" y="818" type="line"/>
      <point x="248" y="890" type="line"/>
      <point x="279" y="897" type="line" name="ah03"/>
      <point x="447" y="764" type="line"/>
    </contour>
    <contour>
      <point x="323" y="-4" type="qcurve"/>
      <point x="252" y="-4"/>
      <point x="149" y="57"/>
      <point x="82" y="156"/>
      <point x="50" y="280"/>
      <point x="50" y="343" type="qcurve"/>
      <point x="50" y="406"/>
      <point x="82" y="530"/>
      <point x="149" y="629"/>
      <point x="252" y="691"/>
      <point x="323" y="691" type="qcurve" name="ah01"/>
      <point x="394" y="691"/>
      <point x="497" y="629"/>
      <point x="563" y="530"/>
      <point x="595" y="406"/>
      <point x="595" y="343" type="qcurve"/>
      <point x="595" y="280"/>
      <point x="563" y="156"/>
      <point x="497" y="57"/>
      <point x="394" y="-4"/>
    </contour>
    <contour>
      <point x="121" y="341" type="qcurve"/>
      <point x="121" y="290"/>
      <point x="143" y="191"/>
      <point x="191" y="112"/>
      <point x="268" y="64"/>
      <point x="323" y="64" type="qcurve"/>
      <point x="378" y="64"/>
      <point x="454" y="112"/>
      <point x="502" y="191"/>
      <point x="524" y="290"/>
      <point x="524" y="341" type="qcurve"/>
      <point x="524" y="392"/>
      <point x="502" y="493"/>
      <point x="454" y="573"/>
      <point x="378" y="623"/>
      <point x="323" y="623" type="qcurve" name="ah02"/>
      <point x="268" y="623"/>
      <point x="191" y="573"/>
      <point x="143" y="493"/>
      <point x="121" y="392"/>
    </contour>
  </outline>
</glyph>
<glyph name="Otilde" format="1">
  <advance width="645"/>
  <unicode hex="00D5"/>
  <outline>
    <contour>
      <point x="462" y="836" type="line" name="hr00"/>
      <point x="499" y="770" type="line"/>
      <point x="491" y="763"/>
      <point x="471" y="748"/>
      <point x="448" y="735"/>
      <point x="425" y="727"/>
      <point x="415" y="727" type="qcurve" name="mh01"/>
      <point x="392" y="727"/>
      <point x="360" y="743"/>
      <point x="330" y="762"/>
      <point x="298" y="778"/>
      <point x="276" y="778" type="qcurve" name="mh02"/>
      <point x="244" y="778"/>
      <point x="212" y="747"/>
      <point x="201" y="729" type="qcurve"/>
      <point x="164" y="760" type="line"/>
      <point x="164" y="776" type="line"/>
      <point x="167" y="782"/>
      <point x="182" y="804"/>
      <point x="209" y="826"/>
      <point x="249" y="842"/>
      <point x="278" y="842" type="qcurve" name="mh03"/>
      <point x="315" y="842"/>
      <point x="368" y="808"/>
      <point x="400" y="786" type="qcurve" name="mh04"/>
    </contour>
    <contour>
      <point x="323" y="-4" type="qcurve"/>
      <point x="252" y="-4"/>
      <point x="149" y="57"/>
      <point x="82" y="156"/>
      <point x="50" y="280"/>
      <point x="50" y="343" type="qcurve"/>
      <point x="50" y="406"/>
      <point x="82" y="530"/>
      <point x="149" y="629"/>
      <point x="252" y="691"/>
      <point x="323" y="691" type="qcurve" name="mh05"/>
      <point x="394" y="691"/>
      <point x="497" y="629"/>
      <point x="563" y="530"/>
      <point x="595" y="406"/>
      <point x="595" y="343" type="qcurve"/>
      <point x="595" y="280"/>
      <point x="563" y="156"/>
      <point x="497" y="57"/>
      <point x="394" y="-4"/>
    </contour>
    <contour>
      <point x="121" y="341" type="qcurve"/>
      <point x="121" y="290"/>
      <point x="143" y="191"/>
      <point x="191" y="112"/>
      <point x="268" y="64"/>
      <point x="323" y="64" type="qcurve"/>
      <point x="378" y="64"/>
      <point x="454" y="112"/>
      <point x="502" y="191"/>
      <point x="524" y="290"/>
      <point x="524" y="341" type="qcurve"/>
      <point x="524" y="392"/>
      <point x="502" y="493"/>
      <point x="454" y="573"/>
      <point x="378" y="623"/>
      <point x="323" y="623" type="qcurve" name="mh06"/>
      <point x="268" y="623"/>
      <point x="191" y="573"/>
      <point x="143" y="493"/>
      <point x="121" y="392"/>
    </contour>
  </outline>
</glyph>
<glyph name="Odieresis" format="1">
  <advance width="645"/>
  <unicode hex="00D6"/>
  <outline>
    <contour>
      <point x="323" y="-4" type="qcurve" name="hr00"/>
      <point x="252" y="-4"/>
      <point x="149" y="57"/>
      <point x="82" y="156"/>
      <point x="50" y="280"/>
      <point x="50" y="343" type="qcurve"/>
      <point x="50" y="406"/>
      <point x="82" y="530"/>
      <point x="149" y="629"/>
      <point x="252" y="691"/>
      <point x="323" y="691" type="qcurve" name="mh01"/>
      <point x="394" y="691"/>
      <point x="497" y="629"/>
      <point x="563" y="530"/>
      <point x="595" y="406"/>
      <point x="595" y="343" type="qcurve"/>
      <point x="595" y="280"/>
      <point x="563" y="156"/>
      <point x="497" y="57"/>
      <point x="394" y="-4"/>
    </contour>
    <contour>
      <point x="121" y="341" type="qcurve"/>
      <point x="121" y="290"/>
      <point x="143" y="191"/>
      <point x="191" y="112"/>
      <point x="268" y="64"/>
      <point x="323" y="64" type="qcurve"/>
      <point x="378" y="64"/>
      <point x="454" y="112"/>
      <point x="502" y="191"/>
      <point x="524" y="290"/>
      <point x="524" y="341" type="qcurve"/>
      <point x="524" y="392"/>
      <point x="502" y="493"/>
      <point x="454" y="573"/>
      <point x="378" y="623"/>
      <point x="323" y="623" type="qcurve"/>
      <point x="268" y="623"/>
      <point x="191" y="573"/>
      <point x="143" y="493"/>
      <point x="121" y="392"/>
    </contour>
    <contour>
      <point x="187" y="793" type="qcurve"/>
      <point x="187" y="817"/>
      <point x="220" y="850"/>
      <point x="244" y="850" type="qcurve" name="mh02"/>
      <point x="267" y="850"/>
      <point x="302" y="817"/>
      <point x="302" y="793" type="qcurve"/>
      <point x="302" y="769"/>
      <point x="267" y="735"/>
      <point x="244" y="735" type="qcurve"/>
      <point x="220" y="735"/>
      <point x="187" y="769"/>
    </contour>
    <contour>
      <point x="363" y="793" type="qcurve"/>
      <point x="363" y="817"/>
      <point x="398" y="850"/>
      <point x="423" y="850" type="qcurve" name="mh03"/>
      <point x="446" y="850"/>
      <point x="478" y="817"/>
      <point x="478" y="793" type="qcurve"/>
      <point x="478" y="769"/>
      <point x="446" y="735"/>
      <point x="423" y="735" type="qcurve"/>
      <point x="398" y="735"/>
      <point x="363" y="769"/>
    </contour>
  </outline>
</glyph>
<glyph name="multiply" format="1">
  <advance width="513"/>
  <unicode hex="00D7"/>
  <outline>
    <contour>
      <point x="54" y="186" type="line" name="hr00"/>
      <point x="212" y="340" type="line" name="ah03"/>
      <point x="59" y="498" type="line" name="ah02"/>
      <point x="103" y="542" type="line" name="ah01"/>
      <point x="257" y="383" type="line" name="ah11"/>
      <point x="415" y="537" type="line" name="ah10"/>
      <point x="459" y="492" type="line" name="ah09"/>
      <point x="301" y="338" type="line" name="ah08"/>
      <point x="454" y="181" type="line" name="ah07"/>
      <point x="410" y="136" type="line" name="ah06"/>
      <point x="256" y="295" type="line" name="ah05"/>
      <point x="98" y="142" type="line" name="ah04"/>
    </contour>
  </outline>
</glyph>
<glyph name="Oslash" format="1">
  <advance width="645"/>
  <unicode hex="00D8"/>
  <outline>
    <contour>
      <point x="323" y="-4" type="qcurve" name="hr00"/>
      <point x="249" y="-4"/>
      <point x="193" y="30" type="qcurve"/>
      <point x="158" y="-42" type="line"/>
      <point x="94" y="-42" type="line"/>
      <point x="91" y="-29" type="line"/>
      <point x="141" y="73" type="line"/>
      <point x="94" y="124"/>
      <point x="50" y="269"/>
      <point x="50" y="343" type="qcurve"/>
      <point x="50" y="406"/>
      <point x="82" y="530"/>
      <point x="149" y="629"/>
      <point x="252" y="691"/>
      <point x="323" y="691" type="qcurve" name="mh01"/>
      <point x="355" y="691"/>
      <point x="409" y="678"/>
      <point x="433" y="666" type="qcurve"/>
      <point x="472" y="745" type="line"/>
      <point x="539" y="745" type="line"/>
      <point x="538" y="731" type="line"/>
      <point x="488" y="629" type="line"/>
      <point x="543" y="578"/>
      <point x="595" y="424"/>
      <point x="595" y="343" type="qcurve"/>
      <point x="595" y="280"/>
      <point x="563" y="156"/>
      <point x="497" y="57"/>
      <point x="394" y="-4"/>
    </contour>
    <contour>
      <point x="323" y="64" type="qcurve"/>
      <point x="378" y="64"/>
      <point x="454" y="112"/>
      <point x="502" y="191"/>
      <point x="524" y="290"/>
      <point x="524" y="341" type="qcurve"/>
      <point x="524" y="403"/>
      <point x="492" y="522"/>
      <point x="456" y="564" type="qcurve" name="mh02"/>
      <point x="224" y="92" type="line"/>
      <point x="244" y="78"/>
      <point x="293" y="64"/>
    </contour>
    <contour>
      <point x="121" y="341" type="qcurve"/>
      <point x="121" y="286"/>
      <point x="146" y="181"/>
      <point x="174" y="140" type="qcurve"/>
      <point x="403" y="605" type="line"/>
      <point x="386" y="613"/>
      <point x="346" y="623"/>
      <point x="323" y="623" type="qcurve" name="mh03"/>
      <point x="268" y="623"/>
      <point x="191" y="573"/>
      <point x="143" y="493"/>
      <point x="121" y="392"/>
    </contour>
  </outline>
</glyph>
<glyph name="Uacute" format="1">
  <advance width="628"/>
  <unicode hex="00DA"/>
  <outline>
    <contour>
      <point x="219" y="764" type="line" name="hr00"/>
      <point x="377" y="897" type="line" name="ah02"/>
      <point x="407" y="890" type="line"/>
      <point x="444" y="818" type="line"/>
      <point x="251" y="717" type="line"/>
    </contour>
    <contour>
      <point x="417" y="631" type="line"/>
      <point x="417" y="691" type="line"/>
      <point x="587" y="691" type="line"/>
      <point x="591" y="635" type="line"/>
      <point x="536" y="627" type="line"/>
      <point x="536" y="202" type="line"/>
      <point x="536" y="153"/>
      <point x="501" y="76"/>
      <point x="441" y="24"/>
      <point x="359" y="-4"/>
      <point x="313" y="-4" type="qcurve"/>
      <point x="266" y="-4"/>
      <point x="186" y="25"/>
      <point x="128" y="79"/>
      <point x="96" y="155"/>
      <point x="96" y="202" type="qcurve"/>
      <point x="96" y="627" type="line"/>
      <point x="38" y="631" type="line"/>
      <point x="38" y="691" type="line" name="ah01"/>
      <point x="215" y="691" type="line"/>
      <point x="219" y="635" type="line"/>
      <point x="164" y="627" type="line"/>
      <point x="164" y="213" type="line"/>
      <point x="164" y="141"/>
      <point x="246" y="63"/>
      <point x="319" y="63" type="qcurve"/>
      <point x="350" y="63"/>
      <point x="406" y="79"/>
      <point x="449" y="115"/>
      <point x="474" y="172"/>
      <point x="474" y="213" type="qcurve"/>
      <point x="474" y="627" type="line"/>
    </contour>
  </outline>
</glyph>
<glyph name="Thorn" format="1">
  <advance width="500"/>
  <unicode hex="00DE"/>
  <outline>
    <contour>
      <point x="112" y="64" type="line" name="hr00"/>
      <point x="112" y="627" type="line" name="mv01"/>
      <point x="55" y="631" type="line" name="mv02"/>
      <point x="55" y="691" type="line" name="at01"/>
      <point x="232" y="691" type="line" name="mv03"/>
      <point x="236" y="635" type="line"/>
      <point x="181" y="627" type="line" name="mv04"/>
      <point x="181" y="561" type="line" name="mh01"/>
      <point x="224" y="561" type="line"/>
      <point x="274" y="561"/>
      <point x="365" y="542"/>
      <point x="434" y="498"/>
      <point x="475" y="425"/>
      <point x="475" y="371" type="qcurve" name="av01"/>
      <point x="475" y="317"/>
      <point x="433" y="242"/>
      <point x="363" y="195"/>
      <point x="271" y="175"/>
      <point x="221" y="175" type="qcurve"/>
      <point x="181" y="175" type="line"/>
      <point x="181" y="64" type="line"/>
      <point x="291" y="51" type="line"/>
      <point x="291" y="0" type="line"/>
      <point x="63" y="0" type="line"/>
      <point x="58" y="56" type="line"/>
    </contour>
    <contour>
      <point x="217" y="244" type="line"/>
      <point x="256" y="244"/>
      <point x="323" y="255" name="mh02"/>
      <point x="373" y="284"/>
      <point x="402" y="332"/>
      <point x="402" y="370" type="qcurve" name="hr01"/>
      <point x="402" y="407"/>
      <point x="374" y="455"/>
      <point x="324" y="482"/>
      <point x="257" y="492"/>
      <point x="218" y="492" type="qcurve"/>
      <point x="181" y="492" type="line"/>
      <point x="181" y="244" type="line"/>
    </contour>
  </outline>
</glyph>
<glyph name="germandbls" format="1">
  <advance width="511"/>
  <unicode hex="00DF"/>
  <outline>
    <contour>
      <point x="214" y="87" type="line" name="hr00"/>
      <point x="235" y="78"/>
      <point x="253" y="71" type="qcurve"/>
      <point x="268" y="65"/>
      <point x="297" y="55"/>
      <point x="302" y="53" type="qcurve"/>
      <point x="357" y="53"/>
      <point x="417" y="119"/>
      <point x="417" y="166" type="qcurve"/>
      <point x="417" y="211"/>
      <point x="366" y="266"/>
      <point x="315" y="292" type="qcurve"/>
      <point x="270" y="315"/>
      <point x="223" y="362"/>
      <point x="223" y="397" type="qcurve"/>
      <point x="223" y="426"/>
      <point x="251" y="467"/>
      <point x="286" y="506"/>
      <point x="314" y="552"/>
      <point x="314" y="586" type="qcurve"/>
      <point x="314" y="602"/>
      <point x="303" y="632"/>
      <point x="282" y="656"/>
      <point x="252" y="670"/>
      <point x="232" y="670" type="qcurve"/>
      <point x="206" y="670"/>
      <point x="174" y="650"/>
      <point x="156" y="619"/>
      <point x="150" y="579"/>
      <point x="150" y="559" type="qcurve"/>
      <point x="150" y="0" type="line"/>
      <point x="35" y="0" type="line"/>
      <point x="35" y="44" type="line"/>
      <point x="87" y="55" type="line"/>
      <point x="87" y="558" type="line"/>
      <point x="87" y="601"/>
      <point x="109" y="665"/>
      <point x="148" y="707"/>
      <point x="201" y="727"/>
      <point x="232" y="727" type="qcurve" name="mh01"/>
      <point x="297" y="727"/>
      <point x="380" y="653"/>
      <point x="380" y="585" type="qcurve"/>
      <point x="380" y="547"/>
      <point x="349" y="490"/>
      <point x="312" y="447"/>
      <point x="281" y="416"/>
      <point x="281" y="405" type="qcurve"/>
      <point x="281" y="397"/>
      <point x="285" y="382"/>
      <point x="297" y="368"/>
      <point x="320" y="353"/>
      <point x="340" y="344" type="qcurve"/>
      <point x="380" y="326"/>
      <point x="435" y="291"/>
      <point x="469" y="249"/>
      <point x="483" y="199"/>
      <point x="483" y="166" type="qcurve"/>
      <point x="483" y="124"/>
      <point x="448" y="61"/>
      <point x="394" y="18"/>
      <point x="330" y="-4"/>
      <point x="302" y="-4" type="qcurve"/>
      <point x="271" y="-4"/>
      <point x="212" y="12"/>
      <point x="190" y="20" type="qcurve"/>
    </contour>
  </outline>
</glyph>
<glyph name="agrave" format="1">
  <advance width="448"/>
  <unicode hex="00E0"/>
  <outline>
    <contour>
      <point x="366" y="79" type="line" name="hr00"/>
      <point x="366" y="68"/>
      <point x="375" y="50"/>
      <point x="389" y="50" type="qcurve"/>
      <point x="394" y="50"/>
      <point x="405" y="53"/>
      <point x="410" y="55" type="qcurve"/>
      <point x="421" y="17" type="line"/>
      <point x="410" y="6"/>
      <point x="381" y="-4"/>
      <point x="366" y="-4" type="qcurve"/>
      <point x="339" y="-4"/>
      <point x="313" y="21"/>
      <point x="308" y="40" type="qcurve"/>
      <point x="285" y="19"/>
      <point x="226" y="-4"/>
      <point x="190" y="-4" type="qcurve"/>
      <point x="160" y="-4"/>
      <point x="106" y="14"/>
      <point x="65" y="48"/>
      <point x="41" y="97"/>
      <point x="41" y="128" type="qcurve"/>
      <point x="41" y="179"/>
      <point x="96" y="241"/>
      <point x="176" y="275"/>
      <point x="267" y="287"/>
      <point x="303" y="288" type="qcurve"/>
      <point x="303" y="352" type="line"/>
      <point x="303" y="384"/>
      <point x="255" y="422"/>
      <point x="215" y="422" type="qcurve"/>
      <point x="200" y="422"/>
      <point x="159" y="417"/>
      <point x="146" y="409" type="qcurve"/>
      <point x="130" y="356" type="line"/>
      <point x="48" y="371" type="line"/>
      <point x="57" y="399"/>
      <point x="90" y="439"/>
      <point x="133" y="466"/>
      <point x="183" y="479"/>
      <point x="209" y="479" type="qcurve" name="mh01"/>
      <point x="292" y="479"/>
      <point x="366" y="402"/>
      <point x="366" y="337" type="qcurve"/>
    </contour>
    <contour>
      <point x="107" y="131" type="qcurve"/>
      <point x="107" y="96"/>
      <point x="155" y="53"/>
      <point x="197" y="53" type="qcurve"/>
      <point x="228" y="53"/>
      <point x="286" y="82"/>
      <point x="303" y="108" type="qcurve"/>
      <point x="303" y="232" type="line"/>
      <point x="277" y="232"/>
      <point x="210" y="225"/>
      <point x="149" y="204"/>
      <point x="107" y="164"/>
    </contour>
    <contour>
      <point x="270" y="554" type="line"/>
      <point x="130" y="674" type="line"/>
      <point x="174" y="727" type="line" name="mh02"/>
      <point x="200" y="727" type="line"/>
      <point x="304" y="587" type="line" name="mh03"/>
    </contour>
  </outline>
</glyph>
<glyph name="atilde" format="1">
  <advance width="448"/>
  <unicode hex="00E3"/>
  <outline>
    <contour>
      <point x="328" y="663" type="line" name="hr00"/>
      <point x="365" y="601" type="line"/>
      <point x="345" y="584"/>
      <point x="309" y="563"/>
      <point x="282" y="563" type="qcurve"/>
      <point x="264" y="563"/>
      <point x="236" y="575"/>
      <point x="211" y="588"/>
      <point x="187" y="600"/>
      <point x="173" y="600" type="qcurve"/>
      <point x="150" y="598"/>
      <point x="123" y="574"/>
      <point x="115" y="554" type="qcurve"/>
      <point x="72" y="580" type="line"/>
      <point x="73" y="597" type="line"/>
      <point x="87" y="621"/>
      <point x="130" y="663"/>
      <point x="166" y="663" type="qcurve" name="mh01"/>
      <point x="181" y="663"/>
      <point x="209" y="653"/>
      <point x="236" y="640"/>
      <point x="263" y="626"/>
      <point x="275" y="622" type="qcurve"/>
    </contour>
    <contour>
      <point x="366" y="79" type="line"/>
      <point x="366" y="68"/>
      <point x="375" y="50"/>
      <point x="389" y="50" type="qcurve"/>
      <point x="394" y="50"/>
      <point x="405" y="53"/>
      <point x="410" y="55" type="qcurve"/>
      <point x="421" y="17" type="line"/>
      <point x="410" y="6"/>
      <point x="381" y="-4"/>
      <point x="366" y="-4" type="qcurve"/>
      <point x="339" y="-4"/>
      <point x="313" y="21"/>
      <point x="308" y="40" type="qcurve"/>
      <point x="285" y="19"/>
      <point x="226" y="-4"/>
      <point x="190" y="-4" type="qcurve"/>
      <point x="160" y="-4"/>
      <point x="106" y="14"/>
      <point x="65" y="48"/>
      <point x="41" y="97"/>
      <point x="41" y="128" type="qcurve" name="mh02"/>
      <point x="41" y="179"/>
      <point x="96" y="241"/>
      <point x="176" y="275"/>
      <point x="267" y="287"/>
      <point x="303" y="288" type="qcurve"/>
      <point x="303" y="352" type="line"/>
      <point x="303" y="384"/>
      <point x="255" y="422"/>
      <point x="215" y="422" type="qcurve"/>
      <point x="200" y="422"/>
      <point x="159" y="417"/>
      <point x="146" y="409" type="qcurve"/>
      <point x="130" y="356" type="line"/>
      <point x="48" y="371" type="line"/>
      <point x="57" y="399"/>
      <point x="90" y="439"/>
      <point x="133" y="466"/>
      <point x="183" y="479"/>
      <point x="209" y="479" type="qcurve" name="mh03"/>
      <point x="292" y="479"/>
      <point x="366" y="402"/>
      <point x="366" y="337" type="qcurve"/>
    </contour>
    <contour>
      <point x="107" y="131" type="qcurve"/>
      <point x="107" y="96"/>
      <point x="155" y="53"/>
      <point x="197" y="53" type="qcurve"/>
      <point x="228" y="53"/>
      <point x="286" y="82"/>
      <point x="303" y="108" type="qcurve"/>
      <point x="303" y="232" type="line"/>
      <point x="277" y="232"/>
      <point x="210" y="225"/>
      <point x="149" y="204"/>
      <point x="107" y="164"/>
    </contour>
  </outline>
</glyph>
<glyph name="adieresis" format="1">
  <advance width="448"/>
  <unicode hex="00E4"/>
  <outline>
    <contour>
      <point x="89" y="619" type="qcurve" name="mh01"/>
      <point x="89" y="639"/>
      <point x="117" y="668"/>
      <point x="138" y="668" type="qcurve"/>
      <point x="157" y="668"/>
      <point x="186" y="639"/>
      <point x="186" y="619" type="qcurve"/>
      <point x="186" y="600"/>
      <point x="157" y="570"/>
      <point x="138" y="570" type="qcurve"/>
      <point x="117" y="570"/>
      <point x="89" y="600"/>
    </contour>
    <contour>
      <point x="229" y="619" type="qcurve"/>
      <point x="229" y="639"/>
      <point x="256" y="668"/>
      <point x="277" y="668" type="qcurve"/>
      <point x="296" y="668"/>
      <point x="324" y="639"/>
      <point x="324" y="619" type="qcurve" name="mh02"/>
      <point x="324" y="600"/>
      <point x="296" y="570"/>
      <point x="277" y="570" type="qcurve"/>
      <point x="256" y="570"/>
      <point x="229" y="600"/>
    </contour>
    <contour>
      <point x="366" y="79" type="line"/>
      <point x="366" y="68"/>
      <point x="375" y="50"/>
      <point x="389" y="50" type="qcurve"/>
      <point x="394" y="50"/>
      <point x="405" y="53"/>
      <point x="410" y="55" type="qcurve"/>
      <point x="421" y="17" type="line"/>
      <point x="410" y="6"/>
      <point x="381" y="-4"/>
      <point x="366" y="-4" type="qcurve"/>
      <point x="339" y="-4"/>
      <point x="313" y="21"/>
      <point x="308" y="40" type="qcurve"/>
      <point x="285" y="19"/>
      <point x="226" y="-4"/>
      <point x="190" y="-4" type="qcurve"/>
      <point x="160" y="-4"/>
      <point x="106" y="14"/>
      <point x="65" y="48" name="mh03"/>
      <point x="41" y="97"/>
      <point x="41" y="128" type="qcurve" name="mh04"/>
      <point x="41" y="179"/>
      <point x="96" y="241"/>
      <point x="176" y="275"/>
      <point x="267" y="287"/>
      <point x="303" y="288" type="qcurve"/>
      <point x="303" y="352" type="line"/>
      <point x="303" y="384"/>
      <point x="255" y="422"/>
      <point x="215" y="422" type="qcurve"/>
      <point x="200" y="422"/>
      <point x="159" y="417"/>
      <point x="146" y="409" type="qcurve"/>
      <point x="130" y="356" type="line" name="mh05"/>
      <point x="48" y="371" type="line"/>
      <point x="57" y="399"/>
      <point x="90" y="439"/>
      <point x="133" y="466"/>
      <point x="183" y="479"/>
      <point x="209" y="479" type="qcurve" name="mh06"/>
      <point x="292" y="479"/>
      <point x="366" y="402"/>
      <point x="366" y="337" type="qcurve" name="mh07"/>
    </contour>
    <contour>
      <point x="107" y="131" type="qcurve"/>
      <point x="107" y="96"/>
      <point x="155" y="53"/>
      <point x="197" y="53" type="qcurve"/>
      <point x="228" y="53"/>
      <point x="286" y="82"/>
      <point x="303" y="108" type="qcurve"/>
      <point x="303" y="232" type="line"/>
      <point x="277" y="232"/>
      <point x="210" y="225"/>
      <point x="149" y="204"/>
      <point x="107" y="164"/>
    </contour>
  </outline>
</glyph>
<glyph name="aring" format="1">
  <advance width="448"/>
  <unicode hex="00E5"/>
  <outline>
    <contour>
      <point x="124" y="601" type="qcurve" name="mh01"/>
      <point x="124" y="639"/>
      <point x="176" y="691"/>
      <point x="214" y="691" type="qcurve" name="mh02"/>
      <point x="252" y="691"/>
      <point x="304" y="639"/>
      <point x="304" y="601" type="qcurve"/>
      <point x="304" y="562"/>
      <point x="252" y="510"/>
      <point x="214" y="510" type="qcurve"/>
      <point x="176" y="510"/>
      <point x="124" y="562"/>
    </contour>
    <contour>
      <point x="176" y="601" type="qcurve"/>
      <point x="176" y="583"/>
      <point x="197" y="563"/>
      <point x="214" y="563" type="qcurve"/>
      <point x="231" y="563"/>
      <point x="252" y="583"/>
      <point x="252" y="601" type="qcurve"/>
      <point x="252" y="618"/>
      <point x="231" y="638"/>
      <point x="214" y="638" type="qcurve"/>
      <point x="197" y="638"/>
      <point x="176" y="618"/>
    </contour>
    <contour>
      <point x="366" y="79" type="line"/>
      <point x="366" y="68"/>
      <point x="375" y="50"/>
      <point x="389" y="50" type="qcurve"/>
      <point x="394" y="50"/>
      <point x="405" y="53"/>
      <point x="410" y="55" type="qcurve"/>
      <point x="421" y="17" type="line"/>
      <point x="410" y="6"/>
      <point x="381" y="-4"/>
      <point x="366" y="-4" type="qcurve"/>
      <point x="339" y="-4"/>
      <point x="313" y="21"/>
      <point x="308" y="40" type="qcurve"/>
      <point x="285" y="19"/>
      <point x="226" y="-4"/>
      <point x="190" y="-4" type="qcurve"/>
      <point x="160" y="-4"/>
      <point x="106" y="14"/>
      <point x="65" y="48"/>
      <point x="41" y="97"/>
      <point x="41" y="128" type="qcurve"/>
      <point x="41" y="179"/>
      <point x="96" y="241"/>
      <point x="176" y="275"/>
      <point x="267" y="287"/>
      <point x="303" y="288" type="qcurve"/>
      <point x="303" y="352" type="line"/>
      <point x="303" y="384"/>
      <point x="255" y="422"/>
      <point x="215" y="422" type="qcurve"/>
      <point x="200" y="422"/>
      <point x="159" y="417"/>
      <point x="146" y="409" type="qcurve"/>
      <point x="130" y="356" type="line"/>
      <point x="48" y="371" type="line"/>
      <point x="57" y="399"/>
      <point x="90" y="439"/>
      <point x="133" y="466"/>
      <point x="183" y="479"/>
      <point x="209" y="479" type="qcurve" name="mh03"/>
      <point x="292" y="479"/>
      <point x="366" y="402"/>
      <point x="366" y="337" type="qcurve"/>
    </contour>
    <contour>
      <point x="107" y="131" type="qcurve"/>
      <point x="107" y="96"/>
      <point x="155" y="53"/>
      <point x="197" y="53" type="qcurve"/>
      <point x="228" y="53"/>
      <point x="286" y="82"/>
      <point x="303" y="108" type="qcurve"/>
      <point x="303" y="232" type="line"/>
      <point x="277" y="232"/>
      <point x="210" y="225"/>
      <point x="149" y="204"/>
      <point x="107" y="164"/>
    </contour>
  </outline>
</glyph>
<glyph name="ae" format="1">
  <advance width="698"/>
  <unicode hex="00E6"/>
  <outline>
    <contour>
      <point x="303" y="352" type="line" name="hr00"/>
      <point x="303" y="360"/>
      <point x="292" y="384"/>
      <point x="269" y="406"/>
      <point x="232" y="422"/>
      <point x="206" y="422" type="qcurve" name="mh01"/>
      <point x="189" y="422"/>
      <point x="154" y="416"/>
      <point x="146" y="409" type="qcurve"/>
      <point x="130" y="356" type="line"/>
      <point x="48" y="371" type="line"/>
      <point x="52" y="398"/>
      <point x="84" y="438"/>
      <point x="129" y="465"/>
      <point x="182" y="479"/>
      <point x="207" y="479" type="qcurve" name="mh02"/>
      <point x="251" y="479"/>
      <point x="333" y="445"/>
      <point x="353" y="399" type="qcurve"/>
      <point x="382" y="438"/>
      <point x="465" y="481"/>
      <point x="511" y="481" type="qcurve" name="mh03"/>
      <point x="580" y="481"/>
      <point x="664" y="415"/>
      <point x="664" y="352" type="qcurve"/>
      <point x="664" y="302"/>
      <point x="615" y="244"/>
      <point x="539" y="216"/>
      <point x="448" y="209"/>
      <point x="406" y="209" type="qcurve"/>
      <point x="369" y="209" type="line"/>
      <point x="372" y="163"/>
      <point x="404" y="104"/>
      <point x="448" y="69"/>
      <point x="498" y="56"/>
      <point x="520" y="56" type="qcurve"/>
      <point x="552" y="56"/>
      <point x="602" y="77"/>
      <point x="617" y="91" type="qcurve"/>
      <point x="635" y="36" type="line"/>
      <point x="612" y="18"/>
      <point x="554" y="-2"/>
      <point x="504" y="-2" type="qcurve"/>
      <point x="460" y="-2"/>
      <point x="375" y="37"/>
      <point x="346" y="79" type="qcurve"/>
      <point x="344" y="74"/>
      <point x="338" y="67"/>
      <point x="336" y="63" type="qcurve"/>
      <point x="328" y="54"/>
      <point x="305" y="31"/>
      <point x="271" y="10"/>
      <point x="225" y="-4"/>
      <point x="196" y="-4" type="qcurve"/>
      <point x="158" y="-4"/>
      <point x="100" y="18"/>
      <point x="61" y="54"/>
      <point x="41" y="99"/>
      <point x="41" y="123" type="qcurve"/>
      <point x="41" y="171"/>
      <point x="83" y="228"/>
      <point x="151" y="258"/>
      <point x="236" y="267"/>
      <point x="279" y="267" type="qcurve"/>
      <point x="303" y="267" type="line"/>
    </contour>
    <contour>
      <point x="427" y="266" type="qcurve"/>
      <point x="455" y="266"/>
      <point x="515" y="272"/>
      <point x="565" y="289"/>
      <point x="598" y="320"/>
      <point x="598" y="346" type="qcurve"/>
      <point x="598" y="384"/>
      <point x="543" y="423"/>
      <point x="508" y="423" type="qcurve" name="mh04"/>
      <point x="484" y="423"/>
      <point x="439" y="404"/>
      <point x="401" y="366"/>
      <point x="375" y="307"/>
      <point x="371" y="267" type="qcurve"/>
      <point x="382" y="267"/>
      <point x="410" y="266"/>
    </contour>
    <contour>
      <point x="107" y="133" type="qcurve"/>
      <point x="107" y="97"/>
      <point x="159" y="54"/>
      <point x="196" y="54" type="qcurve"/>
      <point x="237" y="54"/>
      <point x="292" y="89"/>
      <point x="303" y="107" type="qcurve"/>
      <point x="303" y="211" type="line"/>
      <point x="270" y="211" type="line"/>
      <point x="241" y="211"/>
      <point x="182" y="207"/>
      <point x="136" y="191"/>
      <point x="107" y="160"/>
    </contour>
  </outline>
</glyph>
<glyph name="ccedilla" format="1">
  <advance width="406"/>
  <unicode hex="00E7"/>
  <outline>
    <contour>
      <point x="218" y="-73" type="line" name="hr00"/>
      <point x="205" y="-60" type="line"/>
      <point x="225" y="-3" type="line"/>
      <point x="177" y="1"/>
      <point x="109" y="43"/>
      <point x="64" y="107"/>
      <point x="43" y="189"/>
      <point x="43" y="233" type="qcurve"/>
      <point x="43" y="281"/>
      <point x="66" y="370"/>
      <point x="116" y="438"/>
      <point x="194" y="479"/>
      <point x="249" y="479" type="qcurve"/>
      <point x="294" y="479"/>
      <point x="364" y="456"/>
      <point x="383" y="442" type="qcurve"/>
      <point x="339" y="373" type="line"/>
      <point x="280" y="420" type="line"/>
      <point x="272" y="422"/>
      <point x="261" y="422" type="qcurve"/>
      <point x="244" y="422" type="line"/>
      <point x="203" y="422"/>
      <point x="151" y="388"/>
      <point x="121" y="334"/>
      <point x="109" y="266"/>
      <point x="109" y="232" type="qcurve"/>
      <point x="109" y="199"/>
      <point x="123" y="134"/>
      <point x="157" y="84"/>
      <point x="214" y="53"/>
      <point x="258" y="53" type="qcurve"/>
      <point x="287" y="53"/>
      <point x="336" y="66"/>
      <point x="360" y="80" type="qcurve"/>
      <point x="377" y="31" type="line"/>
      <point x="356" y="15"/>
      <point x="304" y="-1"/>
      <point x="276" y="-3" type="qcurve"/>
      <point x="266" y="-32" type="line"/>
      <point x="280" y="-33"/>
      <point x="307" y="-44"/>
      <point x="329" y="-63"/>
      <point x="343" y="-93"/>
      <point x="343" y="-112" type="qcurve"/>
      <point x="343" y="-148"/>
      <point x="292" y="-196"/>
      <point x="241" y="-196" type="qcurve"/>
      <point x="214" y="-196"/>
      <point x="175" y="-183"/>
      <point x="157" y="-176" type="qcurve"/>
      <point x="188" y="-116" type="line"/>
      <point x="243" y="-150" type="line"/>
      <point x="263" y="-150"/>
      <point x="289" y="-130"/>
      <point x="289" y="-113" type="qcurve"/>
      <point x="289" y="-99"/>
      <point x="260" y="-73"/>
      <point x="224" y="-73" type="qcurve"/>
    </contour>
  </outline>
</glyph>
<glyph name="edieresis" format="1">
  <advance width="443"/>
  <unicode hex="00EB"/>
  <outline>
    <contour>
      <point x="122" y="619" type="qcurve" name="hr00"/>
      <point x="122" y="639"/>
      <point x="150" y="668"/>
      <point x="171" y="668" type="qcurve" name="mh01"/>
      <point x="190" y="668"/>
      <point x="219" y="639"/>
      <point x="219" y="619" type="qcurve"/>
      <point x="219" y="600"/>
      <point x="190" y="570"/>
      <point x="171" y="570" type="qcurve"/>
      <point x="150" y="570"/>
      <point x="122" y="600"/>
    </contour>
    <contour>
      <point x="262" y="619" type="qcurve"/>
      <point x="262" y="639"/>
      <point x="289" y="668"/>
      <point x="310" y="668" type="qcurve" name="mh02"/>
      <point x="329" y="668"/>
      <point x="357" y="639"/>
      <point x="357" y="619" type="qcurve"/>
      <point x="357" y="600"/>
      <point x="329" y="570"/>
      <point x="310" y="570" type="qcurve"/>
      <point x="289" y="570"/>
      <point x="262" y="600"/>
    </contour>
    <contour>
      <point x="264" y="52" type="qcurve"/>
      <point x="296" y="52"/>
      <point x="358" y="71"/>
      <point x="381" y="88" type="qcurve"/>
      <point x="398" y="34" type="line"/>
      <point x="369" y="13"/>
      <point x="296" y="-4"/>
      <point x="259" y="-4" type="qcurve"/>
      <point x="204" y="-4"/>
      <point x="123" y="33"/>
      <point x="69" y="97"/>
      <point x="42" y="183"/>
      <point x="42" y="232" type="qcurve" name="mh03"/>
      <point x="42" y="283"/>
      <point x="70" y="373"/>
      <point x="124" y="440"/>
      <point x="202" y="479"/>
      <point x="252" y="479" type="qcurve" name="mh04"/>
      <point x="282" y="479"/>
      <point x="337" y="461"/>
      <point x="377" y="428"/>
      <point x="401" y="379"/>
      <point x="401" y="348" type="qcurve" name="mh05"/>
      <point x="401" y="294"/>
      <point x="346" y="230"/>
      <point x="260" y="196"/>
      <point x="158" y="185"/>
      <point x="111" y="185" type="qcurve"/>
      <point x="121" y="127"/>
      <point x="194" y="52"/>
    </contour>
    <contour>
      <point x="125" y="244" type="line"/>
      <point x="153" y="244"/>
      <point x="226" y="248"/>
      <point x="290" y="269"/>
      <point x="335" y="310"/>
      <point x="335" y="348" type="qcurve"/>
      <point x="335" y="368"/>
      <point x="320" y="396"/>
      <point x="296" y="414"/>
      <point x="266" y="422"/>
      <point x="251" y="422" type="qcurve"/>
      <point x="216" y="422"/>
      <point x="164" y="393"/>
      <point x="129" y="344"/>
      <point x="109" y="280"/>
      <point x="108" y="244" type="qcurve"/>
    </contour>
  </outline>
</glyph>
<glyph name="eth" format="1">
  <advance width="511"/>
  <unicode hex="00F0"/>
  <outline>
    <contour>
      <point x="169" y="528" type="line" name="hr00"/>
      <point x="275" y="589" type="line"/>
      <point x="248" y="616"/>
      <point x="188" y="659"/>
      <point x="159" y="675" type="qcurve"/>
      <point x="188" y="728" type="line" name="av01"/>
      <point x="223" y="711"/>
      <point x="297" y="658"/>
      <point x="331" y="622" type="qcurve"/>
      <point x="450" y="692" type="line"/>
      <point x="483" y="633" type="line"/>
      <point x="370" y="574" type="line"/>
      <point x="409" y="520"/>
      <point x="459" y="383"/>
      <point x="459" y="298" type="qcurve" name="av02"/>
      <point x="459" y="250"/>
      <point x="442" y="144"/>
      <point x="397" y="54"/>
      <point x="317" y="-4"/>
      <point x="253" y="-4" type="qcurve"/>
      <point x="200" y="-4"/>
      <point x="122" y="33"/>
      <point x="69" y="97"/>
      <point x="43" y="182"/>
      <point x="43" y="231" type="qcurve"/>
      <point x="43" y="280"/>
      <point x="71" y="363"/>
      <point x="122" y="424"/>
      <point x="193" y="458"/>
      <point x="237" y="458" type="qcurve"/>
      <point x="287" y="458"/>
      <point x="355" y="431"/>
      <point x="378" y="411" type="qcurve"/>
      <point x="368" y="449"/>
      <point x="336" y="515"/>
      <point x="314" y="544" type="qcurve"/>
      <point x="197" y="482" type="line"/>
    </contour>
    <contour>
      <point x="241" y="401" type="qcurve"/>
      <point x="209" y="401"/>
      <point x="161" y="375"/>
      <point x="128" y="329"/>
      <point x="111" y="266"/>
      <point x="111" y="230" type="qcurve"/>
      <point x="111" y="180"/>
      <point x="136" y="113"/>
      <point x="175" y="71"/>
      <point x="225" y="53"/>
      <point x="249" y="53" type="qcurve"/>
      <point x="293" y="53"/>
      <point x="347" y="95"/>
      <point x="377" y="160"/>
      <point x="389" y="238"/>
      <point x="390" y="275" type="qcurve"/>
      <point x="387" y="307"/>
      <point x="358" y="354"/>
      <point x="316" y="386"/>
      <point x="265" y="401"/>
    </contour>
  </outline>
</glyph>
<glyph name="ntilde" format="1">
  <advance width="505"/>
  <unicode hex="00F1"/>
  <outline>
    <contour>
      <point x="371" y="663" type="line" name="hr00"/>
      <point x="408" y="601" type="line"/>
      <point x="388" y="584"/>
      <point x="352" y="563"/>
      <point x="325" y="563" type="qcurve"/>
      <point x="307" y="563"/>
      <point x="279" y="575"/>
      <point x="254" y="588"/>
      <point x="230" y="600"/>
      <point x="216" y="600" type="qcurve"/>
      <point x="193" y="598"/>
      <point x="166" y="574"/>
      <point x="158" y="554" type="qcurve"/>
      <point x="115" y="580" type="line"/>
      <point x="116" y="597" type="line"/>
      <point x="130" y="621"/>
      <point x="173" y="663"/>
      <point x="209" y="663" type="qcurve" name="mh01"/>
      <point x="224" y="663"/>
      <point x="252" y="653"/>
      <point x="279" y="640"/>
      <point x="306" y="626"/>
      <point x="318" y="622" type="qcurve" name="mh02"/>
    </contour>
    <contour>
      <point x="421" y="58" type="line"/>
      <point x="482" y="44" type="line"/>
      <point x="482" y="0" type="line"/>
      <point x="302" y="0" type="line"/>
      <point x="298" y="44" type="line"/>
      <point x="358" y="58" type="line"/>
      <point x="358" y="327" type="line"/>
      <point x="358" y="422"/>
      <point x="273" y="422" type="qcurve"/>
      <point x="242" y="422"/>
      <point x="181" y="400"/>
      <point x="158" y="380" type="qcurve"/>
      <point x="158" y="59" type="line"/>
      <point x="219" y="44" type="line"/>
      <point x="219" y="0" type="line"/>
      <point x="46" y="0" type="line"/>
      <point x="40" y="43" type="line"/>
      <point x="95" y="58" type="line"/>
      <point x="95" y="420" type="line"/>
      <point x="41" y="416" type="line"/>
      <point x="32" y="463" type="line"/>
      <point x="133" y="481" type="line"/>
      <point x="155" y="440" type="line"/>
      <point x="211" y="479"/>
      <point x="278" y="479" type="qcurve" name="mh03"/>
      <point x="347" y="479"/>
      <point x="421" y="406"/>
      <point x="421" y="334" type="qcurve"/>
    </contour>
  </outline>
</glyph>
<glyph name="ograve" format="1">
  <advance width="489"/>
  <unicode hex="00F2"/>
  <outline>
    <contour>
      <point x="42" y="240" type="qcurve" name="hr00"/>
      <point x="42" y="288"/>
      <point x="68" y="376"/>
      <point x="119" y="442"/>
      <point x="194" y="481"/>
      <point x="244" y="481" type="qcurve" name="mh01"/>
      <point x="297" y="481"/>
      <point x="374" y="441"/>
      <point x="423" y="373"/>
      <point x="447" y="286"/>
      <point x="447" y="240" type="qcurve"/>
      <point x="447" y="193"/>
      <point x="423" y="106"/>
      <point x="374" y="37"/>
      <point x="297" y="-4"/>
      <point x="244" y="-4" type="qcurve"/>
      <point x="192" y="-4"/>
      <point x="116" y="38"/>
      <point x="66" y="106"/>
      <point x="42" y="194"/>
    </contour>
    <contour>
      <point x="108" y="228" type="qcurve"/>
      <point x="108" y="196"/>
      <point x="123" y="134"/>
      <point x="156" y="85"/>
      <point x="208" y="54"/>
      <point x="244" y="54" type="qcurve"/>
      <point x="282" y="54"/>
      <point x="335" y="86"/>
      <point x="367" y="138"/>
      <point x="381" y="203"/>
      <point x="381" y="235" type="qcurve"/>
      <point x="381" y="266"/>
      <point x="367" y="333"/>
      <point x="334" y="388"/>
      <point x="282" y="423"/>
      <point x="244" y="423" type="qcurve" name="mh02"/>
      <point x="205" y="423"/>
      <point x="153" y="383"/>
      <point x="122" y="325"/>
      <point x="108" y="256"/>
    </contour>
    <contour>
      <point x="317" y="553" type="line"/>
      <point x="177" y="673" type="line"/>
      <point x="221" y="726" type="line" name="mh03"/>
      <point x="247" y="726" type="line"/>
      <point x="351" y="586" type="line"/>
    </contour>
  </outline>
</glyph>
<glyph name="ocircumflex" format="1">
  <advance width="489"/>
  <unicode hex="00F4"/>
  <outline>
    <contour>
      <point x="122" y="548" type="line" name="hr00"/>
      <point x="238" y="691" type="line" name="mh01"/>
      <point x="254" y="691" type="line"/>
      <point x="369" y="550" type="line"/>
      <point x="366" y="544" type="line"/>
      <point x="312" y="544" type="line"/>
      <point x="245" y="602" type="line"/>
      <point x="179" y="544" type="line"/>
      <point x="126" y="544" type="line"/>
    </contour>
    <contour>
      <point x="42" y="240" type="qcurve"/>
      <point x="42" y="288"/>
      <point x="68" y="376"/>
      <point x="119" y="442"/>
      <point x="194" y="481"/>
      <point x="244" y="481" type="qcurve" name="mh02"/>
      <point x="297" y="481"/>
      <point x="374" y="441"/>
      <point x="423" y="373"/>
      <point x="447" y="286"/>
      <point x="447" y="240" type="qcurve"/>
      <point x="447" y="193"/>
      <point x="423" y="106"/>
      <point x="374" y="37"/>
      <point x="297" y="-4"/>
      <point x="244" y="-4" type="qcurve"/>
      <point x="192" y="-4"/>
      <point x="116" y="38"/>
      <point x="66" y="106"/>
      <point x="42" y="194"/>
    </contour>
    <contour>
      <point x="108" y="228" type="qcurve"/>
      <point x="108" y="196"/>
      <point x="123" y="134"/>
      <point x="156" y="85"/>
      <point x="208" y="54"/>
      <point x="244" y="54" type="qcurve" name="hr01"/>
      <point x="282" y="54"/>
      <point x="335" y="86"/>
      <point x="367" y="138"/>
      <point x="381" y="203"/>
      <point x="381" y="235" type="qcurve"/>
      <point x="381" y="266"/>
      <point x="367" y="333"/>
      <point x="334" y="388"/>
      <point x="282" y="423"/>
      <point x="244" y="423" type="qcurve" name="mh03"/>
      <point x="205" y="423"/>
      <point x="153" y="383"/>
      <point x="122" y="325"/>
      <point x="108" y="256"/>
    </contour>
  </outline>
</glyph>
<glyph name="otilde" format="1">
  <advance width="489"/>
  <unicode hex="00F5"/>
  <outline>
    <contour>
      <point x="350" y="663" type="line" name="hr00"/>
      <point x="387" y="601" type="line"/>
      <point x="367" y="584"/>
      <point x="331" y="563"/>
      <point x="304" y="563" type="qcurve" name="mh01"/>
      <point x="286" y="563"/>
      <point x="258" y="575"/>
      <point x="233" y="588"/>
      <point x="209" y="600"/>
      <point x="195" y="600" type="qcurve" name="mh02"/>
      <point x="172" y="598"/>
      <point x="145" y="574"/>
      <point x="137" y="554" type="qcurve"/>
      <point x="94" y="580" type="line"/>
      <point x="95" y="597" type="line"/>
      <point x="109" y="621"/>
      <point x="152" y="663"/>
      <point x="188" y="663" type="qcurve" name="mh03"/>
      <point x="203" y="663"/>
      <point x="231" y="653"/>
      <point x="258" y="640"/>
      <point x="285" y="626"/>
      <point x="297" y="622" type="qcurve" name="mh04"/>
    </contour>
    <contour>
      <point x="42" y="240" type="qcurve"/>
      <point x="42" y="288"/>
      <point x="68" y="376"/>
      <point x="119" y="442"/>
      <point x="194" y="481"/>
      <point x="244" y="481" type="qcurve" name="mh05"/>
      <point x="297" y="481"/>
      <point x="374" y="441"/>
      <point x="423" y="373"/>
      <point x="447" y="286"/>
      <point x="447" y="240" type="qcurve"/>
      <point x="447" y="193"/>
      <point x="423" y="106"/>
      <point x="374" y="37" name="mh06"/>
      <point x="297" y="-4"/>
      <point x="244" y="-4" type="qcurve"/>
      <point x="192" y="-4"/>
      <point x="116" y="38"/>
      <point x="66" y="106"/>
      <point x="42" y="194"/>
    </contour>
    <contour>
      <point x="108" y="228" type="qcurve"/>
      <point x="108" y="196"/>
      <point x="123" y="134"/>
      <point x="156" y="85"/>
      <point x="208" y="54"/>
      <point x="244" y="54" type="qcurve" name="mh07"/>
      <point x="282" y="54"/>
      <point x="335" y="86"/>
      <point x="367" y="138"/>
      <point x="381" y="203"/>
      <point x="381" y="235" type="qcurve"/>
      <point x="381" y="266"/>
      <point x="367" y="333"/>
      <point x="334" y="388"/>
      <point x="282" y="423"/>
      <point x="244" y="423" type="qcurve" name="mh08"/>
      <point x="205" y="423"/>
      <point x="153" y="383"/>
      <point x="122" y="325"/>
      <point x="108" y="256"/>
    </contour>
  </outline>
</glyph>
<glyph name="oslash" format="1">
  <advance width="489"/>
  <unicode hex="00F8"/>
  <outline>
    <contour>
      <point x="111" y="-90" type="line" name="hr00"/>
      <point x="63" y="-90" type="line"/>
      <point x="60" y="-77" type="line"/>
      <point x="119" y="41" type="line"/>
      <point x="79" y="76"/>
      <point x="42" y="182"/>
      <point x="42" y="240" type="qcurve"/>
      <point x="42" y="288"/>
      <point x="68" y="376"/>
      <point x="119" y="442"/>
      <point x="194" y="481"/>
      <point x="244" y="481" type="qcurve" name="mh01"/>
      <point x="269" y="481"/>
      <point x="311" y="471"/>
      <point x="330" y="463" type="qcurve"/>
      <point x="399" y="602" type="line" name="mh02"/>
      <point x="450" y="602" type="line" name="mh03"/>
      <point x="449" y="587" type="line"/>
      <point x="373" y="435" type="line"/>
      <point x="411" y="401"/>
      <point x="447" y="297"/>
      <point x="447" y="240" type="qcurve"/>
      <point x="447" y="193"/>
      <point x="423" y="106"/>
      <point x="374" y="37"/>
      <point x="297" y="-4"/>
      <point x="244" y="-4" type="qcurve"/>
      <point x="200" y="-4"/>
      <point x="162" y="12" type="qcurve"/>
    </contour>
    <contour>
      <point x="108" y="228" type="qcurve"/>
      <point x="108" y="193"/>
      <point x="127" y="125"/>
      <point x="148" y="99" type="qcurve" name="mh04"/>
      <point x="302" y="408" type="line" name="mh05"/>
      <point x="290" y="415"/>
      <point x="261" y="423" name="mh06"/>
      <point x="244" y="423" type="qcurve" name="mh07"/>
      <point x="205" y="423"/>
      <point x="153" y="383"/>
      <point x="122" y="325"/>
      <point x="108" y="256"/>
    </contour>
    <contour>
      <point x="244" y="54" type="qcurve"/>
      <point x="282" y="54"/>
      <point x="335" y="86"/>
      <point x="367" y="138"/>
      <point x="381" y="203"/>
      <point x="381" y="235" type="qcurve"/>
      <point x="381" y="270"/>
      <point x="362" y="344"/>
      <point x="342" y="373" type="qcurve" name="mh08"/>
      <point x="189" y="66" type="line"/>
      <point x="213" y="54"/>
    </contour>
  </outline>
</glyph>
<glyph name="uacute" format="1">
  <advance width="490"/>
  <unicode hex="00FA"/>
  <outline>
    <contour>
      <point x="290" y="415" type="line" name="hr00"/>
      <point x="283" y="463" type="line"/>
      <point x="383" y="482" type="line" name="mh01"/>
      <point x="407" y="453" type="line"/>
      <point x="407" y="73" type="line"/>
      <point x="407" y="60"/>
      <point x="421" y="51"/>
      <point x="430" y="51" type="qcurve"/>
      <point x="436" y="51"/>
      <point x="446" y="54"/>
      <point x="448" y="54" type="qcurve"/>
      <point x="456" y="19" type="line"/>
      <point x="450" y="12"/>
      <point x="420" y="-4"/>
      <point x="399" y="-4" type="qcurve" name="mh02"/>
      <point x="359" y="-4"/>
      <point x="348" y="37" type="qcurve"/>
      <point x="325" y="18"/>
      <point x="263" y="-4"/>
      <point x="231" y="-4" type="qcurve" name="mh03"/>
      <point x="202" y="-4"/>
      <point x="149" y="12"/>
      <point x="107" y="49"/>
      <point x="82" y="110"/>
      <point x="82" y="156" type="qcurve"/>
      <point x="82" y="415" type="line"/>
      <point x="28" y="415" type="line"/>
      <point x="19" y="463" type="line"/>
      <point x="120" y="481" type="line" name="mh04"/>
      <point x="145" y="453" type="line"/>
      <point x="145" y="159" type="line"/>
      <point x="145" y="120"/>
      <point x="167" y="78"/>
      <point x="198" y="58"/>
      <point x="233" y="54"/>
      <point x="245" y="54" type="qcurve" name="mh05"/>
      <point x="273" y="54"/>
      <point x="332" y="82"/>
      <point x="344" y="101" type="qcurve"/>
      <point x="344" y="415" type="line"/>
    </contour>
    <contour>
      <point x="170" y="586" type="line"/>
      <point x="274" y="725" type="line" name="mh06"/>
      <point x="301" y="725" type="line" name="mh07"/>
      <point x="345" y="673" type="line"/>
      <point x="205" y="553" type="line"/>
    </contour>
  </outline>
</glyph>
<glyph name="ucircumflex" format="1">
  <advance width="490"/>
  <unicode hex="00FB"/>
  <outline>
    <contour>
      <point x="114" y="548" type="line" name="hr00"/>
      <point x="230" y="691" type="line"/>
      <point x="246" y="691" type="line"/>
      <point x="362" y="550" type="line"/>
      <point x="358" y="544" type="line"/>
      <point x="304" y="544" type="line"/>
      <point x="238" y="602" type="line"/>
      <point x="171" y="544" type="line"/>
      <point x="118" y="544" type="line"/>
    </contour>
    <contour>
      <point x="290" y="415" type="line"/>
      <point x="283" y="463" type="line"/>
      <point x="383" y="482" type="line" name="mh01"/>
      <point x="407" y="453" type="line"/>
      <point x="407" y="73" type="line"/>
      <point x="407" y="60"/>
      <point x="421" y="51"/>
      <point x="430" y="51" type="qcurve"/>
      <point x="436" y="51"/>
      <point x="446" y="54"/>
      <point x="448" y="54" type="qcurve"/>
      <point x="456" y="19" type="line"/>
      <point x="450" y="12"/>
      <point x="420" y="-4"/>
      <point x="399" y="-4" type="qcurve"/>
      <point x="359" y="-4"/>
      <point x="348" y="37" type="qcurve"/>
      <point x="325" y="18"/>
      <point x="263" y="-4"/>
      <point x="231" y="-4" type="qcurve"/>
      <point x="202" y="-4"/>
      <point x="149" y="12"/>
      <point x="107" y="49"/>
      <point x="82" y="110"/>
      <point x="82" y="156" type="qcurve"/>
      <point x="82" y="415" type="line"/>
      <point x="28" y="415" type="line"/>
      <point x="19" y="463" type="line"/>
      <point x="120" y="481" type="line" name="mh02"/>
      <point x="145" y="453" type="line"/>
      <point x="145" y="159" type="line"/>
      <point x="145" y="120"/>
      <point x="167" y="78"/>
      <point x="198" y="58"/>
      <point x="233" y="54"/>
      <point x="245" y="54" type="qcurve"/>
      <point x="273" y="54"/>
      <point x="332" y="82"/>
      <point x="344" y="101" type="qcurve"/>
      <point x="344" y="415" type="line"/>
    </contour>
  </outline>
</glyph>
<glyph name="udieresis" format="1">
  <advance width="490"/>
  <unicode hex="00FC"/>
  <outline>
    <contour>
      <point x="130" y="619" type="qcurve" name="hr00"/>
      <point x="130" y="639"/>
      <point x="158" y="668"/>
      <point x="179" y="668" type="qcurve"/>
      <point x="198" y="668"/>
      <point x="226" y="639"/>
      <point x="226" y="619" type="qcurve"/>
      <point x="226" y="600"/>
      <point x="198" y="570"/>
      <point x="179" y="570" type="qcurve"/>
      <point x="158" y="570"/>
      <point x="130" y="600"/>
    </contour>
    <contour>
      <point x="269" y="619" type="qcurve"/>
      <point x="269" y="639"/>
      <point x="296" y="668"/>
      <point x="317" y="668" type="qcurve"/>
      <point x="336" y="668"/>
      <point x="365" y="639"/>
      <point x="365" y="619" type="qcurve"/>
      <point x="365" y="600"/>
      <point x="336" y="570"/>
      <point x="317" y="570" type="qcurve"/>
      <point x="296" y="570"/>
      <point x="269" y="600"/>
    </contour>
    <contour>
      <point x="290" y="415" type="line"/>
      <point x="283" y="463" type="line"/>
      <point x="383" y="482" type="line" name="mh01"/>
      <point x="407" y="453" type="line"/>
      <point x="407" y="73" type="line"/>
      <point x="407" y="60"/>
      <point x="421" y="51"/>
      <point x="430" y="51" type="qcurve"/>
      <point x="436" y="51"/>
      <point x="446" y="54"/>
      <point x="448" y="54" type="qcurve"/>
      <point x="456" y="19" type="line"/>
      <point x="450" y="12"/>
      <point x="420" y="-4"/>
      <point x="399" y="-4" type="qcurve"/>
      <point x="359" y="-4"/>
      <point x="348" y="37" type="qcurve"/>
      <point x="325" y="18"/>
      <point x="263" y="-4"/>
      <point x="231" y="-4" type="qcurve" name="mh02"/>
      <point x="202" y="-4"/>
      <point x="149" y="12"/>
      <point x="107" y="49"/>
      <point x="82" y="110"/>
      <point x="82" y="156" type="qcurve"/>
      <point x="82" y="415" type="line"/>
      <point x="28" y="415" type="line"/>
      <point x="19" y="463" type="line"/>
      <point x="120" y="481" type="line" name="mh03"/>
      <point x="145" y="453" type="line"/>
      <point x="145" y="159" type="line"/>
      <point x="145" y="120"/>
      <point x="167" y="78"/>
      <point x="198" y="58"/>
      <point x="233" y="54"/>
      <point x="245" y="54" type="qcurve" name="mh04"/>
      <point x="273" y="54"/>
      <point x="332" y="82"/>
      <point x="344" y="101" type="qcurve"/>
      <point x="344" y="415" type="line"/>
    </contour>
  </outline>
</glyph>
